<svg xmlns="http://www.w3.org/2000/svg" viewBox="0 0 34.16 35.83"><g id="Capa_2" data-name="Capa 2"><g id="Capa_1-2" data-name="Capa 1"><g id="Capa_2-2" data-name="Capa 2"><g id="Capa_1-2-2" data-name="Capa 1-2"><g id="Capa_35" data-name="Capa 35"><g id="Icono_3" data-name="Icono 3"><g id="Cañete"><polygon points="32.75 25.64 32.75 25.64 32.76 25.64 32.75 25.64" style="fill:#111;fill-rule:evenodd"/><path d="M4.14,27.73h0a.51.51,0,0,1,.26.14v.24a.06.06,0,0,1,0,.06.29.29,0,0,1,.13,0,.55.55,0,0,1,.16.18.11.11,0,0,1,0,.11h0c.17-.06.27.14.16.19a.73.73,0,0,1-.06.3.25.25,0,0,1,.12.2.51.51,0,0,1,.65.26v.08s.14,0,.18.1a1.57,1.57,0,0,1,.46.2c.06,0,0,0,.09.07a.47.47,0,0,1,.46,0c.13-.05.22,0,.23.13a.26.26,0,0,1-.12.31.19.19,0,0,1-.25-.1h0a.08.08,0,0,1,0-.07.18.18,0,0,1-.22,0c0,.13-.15.43-.31.27l-.14-.12c0,.09.2.2.06.34s-.2,0-.29-.09-.26.09-.34-.18A.55.55,0,0,1,5.1,30L5,29.84a2.56,2.56,0,0,1-.59-.55.63.63,0,0,1-.22-.21,1,1,0,0,1-.29-.35c-.07,0-.31-.35-.35-.4-.15-.22-.38-.37-.48-.61a2.4,2.4,0,0,1-.43-.61c-.25-.11-.31-.26-.43-.5-.06-.09-.13-.17-.2-.26a1.3,1.3,0,0,1-.29-.43A6.39,6.39,0,0,1,1,24.84a5.59,5.59,0,0,1-.26-.61c-.14-.28-.12-.39-.23-.64A.63.63,0,0,1,.29,23L0,22.36a.47.47,0,0,1,.24-.55h0a.42.42,0,0,1-.17-.43c-.1-.1-.12-.19,0-.26a.26.26,0,0,1,.33,0h0a.22.22,0,0,1,0,.3h0a.21.21,0,0,1,.06.22.29.29,0,0,1,.31,0c.16-.51.71,0,.36.26a.23.23,0,0,1,0,.32h0s.2,0,.19.17.18.15.1.33a.29.29,0,0,1,.24.3.14.14,0,0,1,0,.09v.11c.23,0,.32.45.25.61s0,.14,0,.16.15.06.1.15l.24.22a.62.62,0,0,1,.15.48h0a.22.22,0,0,1,.14.28h0c.16-.07.28.08.4.17s.13.15,0,.2,0,.07,0,.14a.37.37,0,0,1-.07.29c.35,0,.42.38.35.66a.21.21,0,0,1,.17.22v0c0,.13.3.21.23.31.14,0,.27.07.25.22a.12.12,0,0,1,.08.11.14.14,0,0,1,.13.15h.07Z" style="fill:#111;fill-rule:evenodd"/><path d="M32.08,25.45h0a.37.37,0,0,1,0-.29c.06-.08.13-.07.22-.1h.06V25a.65.65,0,0,1,.11-.22l.08-.06h0c-.12-.13,0-.31.11-.22a1.09,1.09,0,0,1,.3-.07.26.26,0,0,1,.13-.18.51.51,0,0,1,0-.72h0a.37.37,0,0,1,0-.21,1.34,1.34,0,0,1,0-.49v-.11A.41.41,0,0,1,33,22.2c-.1-.11-.11-.2,0-.27a.29.29,0,0,1,.33,0,.22.22,0,0,1,0,.32h0a.2.2,0,0,1,0,.21c.1-.1.45,0,.37.17l-.06.18c.09,0,.11-.26.29-.19s.06.2,0,.3.19.21,0,.39a.47.47,0,0,1-.19.38l-.09.2a2.48,2.48,0,0,1-.28.76.39.39,0,0,1-.11.28.69.69,0,0,1-.2.41s-.2.42-.24.48a2.76,2.76,0,0,1-.36.68,1.9,1.9,0,0,1-.39.64c0,.27-.12.38-.29.59l-.16.29a1.07,1.07,0,0,1-.28.44s-.59.91-.72,1.06a5.22,5.22,0,0,1-.46.48c-.2.24-.31.26-.49.47a.58.58,0,0,1-.44.4l-.51.49a.46.46,0,0,1-.6,0h0a.37.37,0,0,1-.32.33c0,.13-.13.18-.25.09a.24.24,0,0,1-.16-.29.2.2,0,0,1,.26-.11h0a.21.21,0,0,1,.17-.14.28.28,0,0,1-.13-.29c-.54.06-.3-.64.1-.43,0-.12.18-.15.29-.12s-.11-.17.08-.23c0-.14.07-.24.27-.23a.27.27,0,0,1,.18-.33h.09s0-.06.1,0c-.08-.22.29-.47.46-.48,0-.07.1-.1.16,0,0-.08,0-.16.1-.15s.07-.21.1-.31a.77.77,0,0,1,.38-.33m0-.05a.32.32,0,0,1,.21-.24h0c-.13-.12,0-.28,0-.43s.09-.17.18-.11,0-.07.14,0,.21-.1.29-.06c-.1-.33.19-.53.47-.58,0-.1,0-.23.15-.24s.08-.36.2-.34a.19.19,0,0,1,0-.26h.07c0-.06,0-.1.06-.11a.15.15,0,0,1,.11-.18h0s0-.28.09-.28Z" style="fill:#111;fill-rule:evenodd"/><path d="M26,31.43h0l-.1.06H26Z" style="fill:#111;fill-rule:evenodd"/><polygon points="19.24 32.91 19.25 32.91 19.24 32.91 19.24 32.91" style="fill:#111;fill-rule:evenodd"/><path d="M19.68,32.17c.07,0,.12.12.13.15s0-.12.1-.1,0-.07.07,0,.15,0,.17.07.05,0,.08,0a.06.06,0,0,1,0-.08.17.17,0,0,1,.17,0h0s0-.05.09,0,.21.13.07.13a.14.14,0,0,1-.16.09h-.06c-.06,0-.14.1-.17.07a.07.07,0,0,1-.1,0l0,0h0v.07a.09.09,0,0,1-.12.07h0c-.07,0-.12.1-.2,0s-.24.16-.32.11-.1.12-.19.1a.14.14,0,0,1-.19,0,.32.32,0,0,1-.32.1.73.73,0,0,1-.41.06A.28.28,0,0,1,18,33a.1.1,0,0,1-.16,0,.15.15,0,0,1-.21,0,.26.26,0,0,1-.21,0,.17.17,0,0,1-.14,0h-.08A.24.24,0,0,1,17,33a.12.12,0,0,1-.17,0v0h0a.22.22,0,0,1-.27,0,.17.17,0,0,1-.22-.06.35.35,0,0,1-.28-.14.33.33,0,0,1-.24-.14c-.08-.08-.22-.22,0-.17a.12.12,0,0,1,.1.08.22.22,0,0,1,.2.17.21.21,0,0,1,.24,0v-.08c-.2,0-.13-.2,0-.18-.07-.11.06-.17.14-.13s.13-.13.18,0,0,0,.06,0,.13,0,.14.08a.37.37,0,0,1,.45,0h.16a.16.16,0,0,1,.12.07s.19,0,.24.06.06-.07.09,0c.08-.13.2,0,.2.13h.09a.23.23,0,0,1,.07-.07.09.09,0,0,1,.09-.09h.15c-.09,0-.13-.06-.12-.11A6.08,6.08,0,0,0,19.68,32.17Z" style="fill:#111;fill-rule:evenodd"/><path d="M29.77,8.54a.38.38,0,0,1,.08-.17s-.11,0-.13-.06-.08,0-.07,0a.6.6,0,0,0,0-.19l-.06-.06c-.06-.06,0,0-.09,0A.1.1,0,0,1,29.39,8V8h0a.08.08,0,0,1-.08-.07c0-.07,0-.25.1-.12a.21.21,0,0,1,.14.12h.07s.14.09.13.12a.09.09,0,0,1,0,.12h0s.06.1.08.06.06,0,.07,0,.1.05.11.1.13.07.12.17.24.15.23.26.14,0,.16.12a.2.2,0,0,1,.11.17.41.41,0,0,1,.21.26.24.24,0,0,1,.14.17.2.2,0,0,1,0,.16.31.31,0,0,1,.12.18.16.16,0,0,1,.06.15.16.16,0,0,1,.12.18h0a.19.19,0,0,1,.09.18.1.1,0,0,1,0,.13v.08a.3.3,0,0,1,.1.21c.07,0,.12.14,0,.2a.32.32,0,0,1,.09.26.18.18,0,0,1,0,.22.34.34,0,0,1,.06.33.34.34,0,0,1,0,.28c.09.16-.12.28-.15.09a.15.15,0,0,1,0-.13.22.22,0,0,1,.08-.25.17.17,0,0,1-.05-.24h-.08c.07.19-.13.19-.15.12-.07.1-.18,0-.17-.08s-.17-.07-.11-.15a.11.11,0,0,1,0-.08v-.15c-.16,0-.25-.34-.22-.41s0,0-.08-.05v-.06a.19.19,0,0,1,0-.15c-.07,0-.1-.16,0-.23s-.08,0-.07-.07c-.15,0-.06-.2,0-.23a.1.1,0,0,1-.07-.08.09.09,0,0,1-.1,0,.08.08,0,0,1-.11,0V9.78s0-.06-.06-.08,0,.14-.06.16A8.08,8.08,0,0,0,29.77,8.54Z" style="fill:#111;fill-rule:evenodd"/><path d="M9.1,2.18a.32.32,0,0,1-.17-.09s0,.11-.06.13,0,.07,0,.06-.14.05-.19,0l-.06.05v.09a.13.13,0,0,1-.12.13h0a.07.07,0,0,1-.07.07c-.07,0-.25,0-.11-.1a.19.19,0,0,1,.11-.14.06.06,0,0,1,0-.06s.1-.14.13-.13a.24.24,0,0,1,.12,0s.1,0,.06-.07,0-.11,0-.11a.14.14,0,0,1,.11-.1c.08,0,.08-.14.18-.12s.16-.23.26-.22,0-.13.14-.16a.26.26,0,0,1,.17-.09.51.51,0,0,1,.27-.21,1.24,1.24,0,0,1,.36-.19A.62.62,0,0,1,10.4.79a.2.2,0,0,1,.15,0,.17.17,0,0,1,.18-.11.45.45,0,0,1,.19-.11.17.17,0,0,1,.14,0m.07,0a.55.55,0,0,1,.22-.1.15.15,0,0,1,.2,0h0A.42.42,0,0,1,11.82.4a.18.18,0,0,1,.2,0,.38.38,0,0,1,.33,0,.45.45,0,0,1,.28,0c.16-.07.28.13.08.16a.13.13,0,0,1-.13-.05.18.18,0,0,1-.24-.08.2.2,0,0,1-.25,0V.51c.19-.06.19.14.12.15.09.08,0,.18-.09.17S12,1,12,.94s0,0-.08,0h-.15c0,.15-.34.23-.41.2a.09.09,0,0,1-.06.07h-.07a.17.17,0,0,1-.14,0c0,.07-.17.09-.24,0s0,.08-.06.07c0,.15-.2,0-.24-.05s0,.06-.07.07a.14.14,0,0,1,0,.09.1.1,0,0,1-.05.12h0l-.08.06c-.08.06.14,0,.16.06a10.82,10.82,0,0,0-1.32.55Z" style="fill:#111;fill-rule:evenodd"/><path d="M3.78,10.22H3.59a.1.1,0,0,1,0,.15c-.08.07,0,.07,0,.08s-.09.12-.16.09a.11.11,0,0,1,0,.08s.07,0,0,.08a.14.14,0,0,1,0,.17h0V11s-.24.08-.15,0a.19.19,0,0,1,0-.18.06.06,0,0,1,0-.08v-.17s0-.07.08-.08h0s.05-.1,0-.1H3.3a.14.14,0,0,1,0-.15c.06,0,0-.15.09-.19s0-.28.1-.32,0-.15,0-.21a.21.21,0,0,1,.1-.17A.47.47,0,0,1,3.71,9a.23.23,0,0,1,.08-.2.31.31,0,0,1,.12-.16.54.54,0,0,1,.1-.2.19.19,0,0,1,.1-.12c0-.07,0-.17.1-.19s0-.13.11-.13a.14.14,0,0,1,.09-.11s0-.06,0-.06a.63.63,0,0,1,.13-.2.14.14,0,0,1,.14-.14h0a.39.39,0,0,1,.18-.2.23.23,0,0,1,.18-.13A.46.46,0,0,1,5.35,7a.36.36,0,0,1,.26-.11c.1-.15.31,0,.15.09a.11.11,0,0,1-.13,0c0,.06-.17.12-.25,0a.17.17,0,0,1-.18.17h0v.06c.14-.15.24,0,.19.07.12,0,.09.16,0,.19s0,.19-.08.17,0,0-.07,0a.12.12,0,0,1-.15.06c.06.14-.17.37-.24.38a.14.14,0,0,1,0,.09.08.08,0,0,1,0,.07.11.11,0,0,1-.13,0,.18.18,0,0,1-.19.16c-.09,0,0,.08,0,.09s-.14.15-.22.09a.07.07,0,0,1,0,.09.09.09,0,0,1,0,.1.1.1,0,0,1,0,.13h0v.09s.12-.06.16,0A10,10,0,0,0,3.78,10.22Z" style="fill:#111;fill-rule:evenodd"/><path d="M18.21,1.47a.43.43,0,0,1-.16,0c0,.11-.26.09-.31,0s-.2,0-.27-.12c0,.22-.35.16-.43-.11h0a.21.21,0,0,1-.09.15c.12.08,0,.31-.1.22s-.18-.1-.15-.19,0-.06-.08-.07a.44.44,0,0,1-.15.35.21.21,0,0,1-.3,0v0h0a.36.36,0,0,1,0-.25.29.29,0,0,1-.13,0,.31.31,0,0,1-.43-.07.25.25,0,0,1-.06-.17c-.12.1-.08.06,0,.27a.12.12,0,0,1-.06.16h0A.32.32,0,0,1,15,1.48h0a.31.31,0,0,1-.39.2h0c0,.22-.13.6-.39.4s0-.3-.08-.46c-.16,0-.27-.1-.23-.21-.19,0-.29-.14-.19-.25-.15-.18,0-.46.3-.34s.41.28.33.52c.11-.18.22-.36.32-.54s.07-.13,0-.16a.43.43,0,0,1-.16-.34s0-.06.09-.06a1.18,1.18,0,0,1,.59,0c.29-.17.6,0,.9-.12s.2.19.2.35V.51c.2.09.2-.09.21-.23a.22.22,0,0,1,.21-.23h.08c0-.15.57,0,.68.06.31-.11.6.06.9.05a.2.2,0,0,1,.2.17.13.13,0,0,1,0,.13c.09,0,.07.11.09.18,0-.18.11-.37.52-.36h.35s.19,0,.12.18,0,.52.23.47c0,0,.2-.34.39-.21a.46.46,0,0,1,.36.05c.2.06.25.08.16.19.17.16.13.34,0,.54a.25.25,0,0,1,.07.34h-.07a.16.16,0,0,1-.16.16h-.05c0,.1-.27.1-.21-.09a.2.2,0,0,1,.19-.08.38.38,0,0,1,0-.15.31.31,0,0,1-.32,0,.2.2,0,0,1-.36.15c-.17,0-.29,0-.26-.21-.11,0-.16,0-.15-.14A.34.34,0,0,1,19,1.38c0,.07-.24.12-.29,0h0V1.5S18.25,1.73,18.21,1.47Z" style="fill:#111;fill-rule:evenodd"/><path d="M16.55,34.29h-.16c0-.11-.26-.1-.31,0s-.2,0-.27.12c0-.23-.35-.16-.43.1h0a.27.27,0,0,0-.09-.15c.11-.08,0-.31-.1-.22s-.18.09-.15.18,0,.07-.08.07a.46.46,0,0,0-.15-.34.23.23,0,0,0-.31,0h0a.42.42,0,0,0-.05.24l-.13.05c0-.06-.41-.23-.49.24-.12-.1-.08-.07,0-.27a.1.1,0,0,0-.05-.14h0a.36.36,0,0,0-.34.18h0a.35.35,0,0,0-.4-.2c0-.22-.13-.59-.39-.4s0,.31-.08.47c-.16,0-.27.1-.23.21-.19,0-.29.14-.19.24-.15.19,0,.47.3.34a.36.36,0,0,0,.36-.37.4.4,0,0,0,0-.15L13,35s.07.12,0,.15a.46.46,0,0,0-.16.34s0,.06.09.07a1.18,1.18,0,0,0,.59,0c.29.17.6,0,.9.12s.2-.19.2-.36h0c.2-.09.2.09.21.23a.21.21,0,0,0,.19.23.16.16,0,0,0,.1,0c0,.16.57,0,.68-.06.31.11.6-.06.9,0s.23-.16.15-.29c.09,0,.07-.11.09-.19.05.19.11.38.52.37h.35s.19,0,.12-.18,0-.52.23-.46c0,0,.2.34.39.2a.3.3,0,0,0,.36,0c.2-.06.25-.08.16-.2.17-.15.13-.33,0-.53a.24.24,0,0,0,.07-.33L19,34a.16.16,0,0,0-.16-.15h-.05c0-.09-.27-.09-.21.1a.15.15,0,0,0,.19.07.38.38,0,0,0,0,.15.36.36,0,0,0-.32,0,.21.21,0,0,0-.12-.25.22.22,0,0,0-.25.1c-.16,0-.28,0-.25.21a.13.13,0,0,0-.15.09v0a.4.4,0,0,0-.34.15c0-.08-.24-.12-.29,0h0V34.4S16.59,34,16.55,34.29Z" style="fill:#111;fill-rule:evenodd"/><path d="M3.34,25.5c-.23-.39-1-1-.92-1.53a2.57,2.57,0,0,1-.25-.87,1,1,0,0,1,0-.59c.12-.22,0-.36,0-.58l.17-.79V20.7l-.1-.4c0-.16.06-.26,0-.4s.27-.43-.07-.55,0-.23-.12-.36,0-.37,0-.55-.16-.17-.14-.29,0,0,0-.12a1.24,1.24,0,0,1-.12-.66c0-.08,0,0,.05-.1s.08-.52.38-.62h0c0-.32.42-.4.4.11h0c.19.15.15.52,0,.72s-.11.07-.07.2,0,0,.09.06a.37.37,0,0,1,.08.48.88.88,0,0,1,0,.23.68.68,0,0,1,0,.4.5.5,0,0,1,.13.25.87.87,0,0,1,.18.69.36.36,0,0,1,0,.48A6.57,6.57,0,0,1,3.4,21.4c.11.34.24.68.38,1,0,0,.26.73.26.74a1.08,1.08,0,0,1-.17.23c-.06.05-.12,0-.17-.1a2.81,2.81,0,0,0-.17-.54l-.13.05c-.1,0-.07,0,0,.12A21.26,21.26,0,0,0,5,26.32c.13.26.22.21.38.4C6.48,28.15,6,28,7.78,29.07l.23.17c.13.11.22.07.37.14a9.12,9.12,0,0,1,1,.6,9,9,0,0,0,3,1.54l.29.1c.08,0,.08,0,0,.09a.41.41,0,0,1-.23.16.39.39,0,0,1-.3,0,.34.34,0,0,1-.38-.09.45.45,0,0,1-.44-.13.69.69,0,0,1-.35,0,.19.19,0,0,1,0,.26.49.49,0,0,1,.42.11.37.37,0,0,1,.47.1,1,1,0,0,1,.66.26.66.66,0,0,1,.23.17.66.66,0,0,1,.39.06h.24a.38.38,0,0,1,.46.13v.1s.06,0,.21,0,.58-.07.71.14h0c.5,0,.37.41.05.41h-.06c-.13.28-.46.15-.66.3s0,0-.1,0a1.07,1.07,0,0,1-.64-.21h-.12c-.12,0-.18-.12-.27-.17s-.39,0-.54-.12-.32.1-.35-.17-.38,0-.53-.13-.25,0-.39-.11a6.79,6.79,0,0,0-.74-.43h-.15a1.76,1.76,0,0,1-.91-.46c-.1-.08-.22-.1-.26-.23s0-.13,0-.18.21,0,.31.06,0-.1,0-.12a.25.25,0,0,0-.13-.14.38.38,0,0,0-.23.06H8.83A1.21,1.21,0,0,1,8.75,31c0-.06,0,0-.09-.09a2.73,2.73,0,0,1-.54-.37c-.5-.45-1.09-.75-1.62-1.18a9.18,9.18,0,0,1-2-2.17A9.92,9.92,0,0,1,3.34,25.5Z" style="fill:#111;fill-rule:evenodd"/><path d="M33,10.17c.21.41,1,1.1.84,1.59a2.68,2.68,0,0,1,.2.88,1,1,0,0,1-.09.59c-.13.21,0,.36,0,.57l-.21.78V15l.07.4c0,.17-.08.26,0,.41s-.29.41,0,.55,0,.23.11.37,0,.37,0,.55.15.18.12.3,0,0,0,.12a1.16,1.16,0,0,1,.08.66c0,.08,0,.05-.06.1s-.11.51-.41.59h-.06c-.06.32-.43.38-.39-.13h0c-.19-.16-.12-.53,0-.72s.12-.07.08-.2,0,0-.09-.07a.35.35,0,0,1,0-.47,1,1,0,0,1,0-.24.68.68,0,0,1,0-.4.53.53,0,0,1-.12-.25.86.86,0,0,1-.13-.7.34.34,0,0,1,0-.48,7.4,7.4,0,0,1-.27-1.15,7.26,7.26,0,0,0-.32-1l-.22-.75c0-.16.12-.18.19-.22s.12,0,.16.11.09.37.14.55h.14c.1,0,.06,0,0-.12a19.42,19.42,0,0,0-1.4-3.49c-.16-.32-.26-.26-.36-.46-1.08-1.49-.64-1.27-2.33-2.48a.79.79,0,0,1-.22-.19c-.13-.11-.22-.07-.36-.16a5.36,5.36,0,0,1-.93-.65,9.64,9.64,0,0,0-2.86-1.7L24,3.56c-.08,0-.08,0,0-.08a.63.63,0,0,1,.23-.16h.3a.39.39,0,0,1,.37.12.51.51,0,0,1,.44.15.69.69,0,0,1,.35,0,.21.21,0,0,1,0-.26.4.4,0,0,1-.41-.14.32.32,0,0,1-.45-.11v0a.78.78,0,0,1-.65-.29A.39.39,0,0,1,24,2.59a.6.6,0,0,1-.39-.08h-.26a.36.36,0,0,1-.45-.16v-.1h-.21c-.15,0-.59,0-.7-.19h0c-.5-.08-.35-.43,0-.41H22c.15-.28.47-.14.67-.27s0,0,.11,0a1.38,1.38,0,0,1,.63.24h.12c.12,0,.17.14.26.19s.39,0,.53.15.33-.08.34.19.38,0,.52.16.25,0,.39.13a3.64,3.64,0,0,0,.71.47.17.17,0,0,0,.14,0,2,2,0,0,1,.89.51c.09.09.21.11.25.24s0,.13,0,.19-.21,0-.31-.09,0,.1,0,.13a.16.16,0,0,0,.11.14H28a2.33,2.33,0,0,1,.06.35c0,.06,0,0,.08.09a3.48,3.48,0,0,1,.52.41c.48.47,1.05.8,1.56,1.27a8.86,8.86,0,0,1,1.87,2.27A10,10,0,0,1,33,10.17Z" style="fill:#111;fill-rule:evenodd"/><path d="M4.32,5.85c.28-.36.59-1.35,1.09-1.42a3,3,0,0,1,.73-.54,1.15,1.15,0,0,1,.57-.17c.24,0,.31-.17.54-.2L8,3.4l.41-.19L8.78,3c.14-.1.27,0,.36-.2s.49.1.49-.26.21-.1.29-.25.35-.13.49-.24.11-.21.22-.24,0,0,.12,0a1.75,1.75,0,0,1,.57-.35h.11c.23.09.52-.11.72.13h.06c.31-.08.52.25,0,.41h0c-.07.24-.43.32-.65.31s-.11-.08-.21,0,0,0,0,.11a.37.37,0,0,1-.41.24h-.23a.56.56,0,0,1-.37.15.35.35,0,0,1-.19.22.8.8,0,0,1-.57.41.34.34,0,0,1-.43.22h0a5,5,0,0,1-.93.71c-.28.2-.58.51-.83.73l-.59.51s-.22,0-.28-.08-.07-.11,0-.2A2,2,0,0,0,7,5l-.09-.1c-.07-.08,0,0-.13,0A22,22,0,0,0,4.12,7.58c-.2.21-.12.28-.24.5C3,9.68,3,9.19,2.57,11.22a1.28,1.28,0,0,1-.07.28c-.06.16,0,.23,0,.4A6.68,6.68,0,0,1,2.29,13a9.72,9.72,0,0,0-.37,3.3v.31c0,.11,0,.08-.08,0a.57.57,0,0,1-.23-.15c-.1-.1-.07-.26-.09-.29a.37.37,0,0,1-.05-.39.47.47,0,0,1,0-.46A.6.6,0,0,1,1.35,15a.18.18,0,0,1-.21.15h0a.42.42,0,0,1,0,.43.35.35,0,0,1,.08.48.88.88,0,0,1,0,.71.36.36,0,0,1-.08.27.68.68,0,0,1,.09.39c0,.08.07.15.09.22a.36.36,0,0,1,0,.48.08.08,0,0,0-.07.07h0c0,.08,0,.07.11.18s.27.52.12.72h0c.14.48-.25.5-.36.2H1c-.32,0-.32-.37-.52-.51s0,0-.08-.08a1.27,1.27,0,0,1,0-.67v-.12a.57.57,0,0,1,.06-.31c.06-.1-.17-.36-.08-.55s-.21-.26,0-.38-.15-.36-.06-.54-.08-.24,0-.41a4.6,4.6,0,0,0,.14-.84.43.43,0,0,0,0-.16,1.9,1.9,0,0,1,.09-1,.37.37,0,0,1,.15-.33.21.21,0,0,1,.19,0c.13.06.11.18,0,.32s.11,0,.13,0a.21.21,0,0,0,.08-.17c0-.06-.09-.11-.14-.2s-.06-.16-.1-.24-.06,0,0-.13l.29-.2c.06,0,0,0,.05-.12s.1-.42.16-.63c.23-.63.3-1.29.51-1.94a9.47,9.47,0,0,1,1.3-2.65A10.22,10.22,0,0,1,4.32,5.85Z" style="fill:#111;fill-rule:evenodd"/><path d="M31.36,25.5c.23-.4,1-1.07.88-1.56a2.05,2.05,0,0,0,.23-.88.94.94,0,0,0-.07-.59c-.12-.21,0-.35,0-.58l-.19-.77v-.45l.08-.39c0-.17-.07-.27,0-.41s-.28-.42,0-.55,0-.24.11-.37,0-.37,0-.55.16-.17.13-.29,0,0,0-.12a1.18,1.18,0,0,0,.11-.67c0-.07,0-.05-.06-.09s-.1-.52-.4-.61h0c0-.32-.42-.39-.4.12h0c-.19.16-.13.52,0,.72s.12.07.08.2,0,0-.09.07a.37.37,0,0,0-.06.47,1,1,0,0,0,0,.24.9.9,0,0,0,0,.4.64.64,0,0,0-.12.25.94.94,0,0,0-.16.69.34.34,0,0,0,0,.48,6.81,6.81,0,0,0-.29,1.14,8.44,8.44,0,0,1-.35,1l-.25.74c0,.16.12.19.18.23s.13,0,.17-.1a3.8,3.8,0,0,1,.16-.55l.13.05c.1,0,.07,0,0,.12a19.66,19.66,0,0,1-1.5,3.46c-.12.26-.22.21-.37.41-1.12,1.46-.67,1.25-2.4,2.42l-.23.17c-.12.11-.21.07-.36.15a10.34,10.34,0,0,0-.95.62,8.82,8.82,0,0,1-2.9,1.62l-.29.11c-.08,0-.08,0,0,.09a.6.6,0,0,0,.23.16.51.51,0,0,0,.3,0A.33.33,0,0,0,23,32a.43.43,0,0,0,.44-.13.69.69,0,0,0,.35,0,.21.21,0,0,0,0,.26.59.59,0,0,0-.42.13.34.34,0,0,0-.47.11h0a1.12,1.12,0,0,0-.65.28.72.72,0,0,0-.22.17.92.92,0,0,0-.4.07h-.24A.4.4,0,0,0,21,33v.1h-.21c-.15,0-.58-.05-.7.17h0c-.5.06-.37.42,0,.41h.05c.15.28.47.15.67.29h.11a.92.92,0,0,0,.63-.22h.12c.12,0,.18-.13.27-.18s.39,0,.53-.14.33.1.34-.17.39,0,.53-.15.25,0,.4-.12a7.49,7.49,0,0,1,.71-.45h.16a1.69,1.69,0,0,0,.89-.48c.1-.09.22-.11.26-.24a.14.14,0,0,0,0-.19c-.11-.09-.22,0-.31.08s0-.1,0-.12a.39.39,0,0,1,.11-.15h.57a1.37,1.37,0,0,0,.08-.35c0-.07,0,0,.08-.09a2.5,2.5,0,0,0,.53-.39c.49-.46,1.07-.77,1.59-1.22a8.83,8.83,0,0,0,2-2.22A8.79,8.79,0,0,0,31.36,25.5Z" style="fill:#111;fill-rule:evenodd"/><g id="cañete-2"><text transform="translate(6.9 15.54)" style="isolation:isolate;font-size:9.770000457763672px;fill:#111;font-family:Cunia">cañ</text><text transform="translate(8 24.38)" style="isolation:isolate;font-size:9.770000457763672px;fill:#111;font-family:Cunia">e</text><text transform="translate(14.26 24.38)" style="isolation:isolate;font-size:9.770000457763672px;fill:#111;font-family:Cunia">te</text></g></g></g></g></g></g></g></g></svg>