<svg xmlns="http://www.w3.org/2000/svg" viewBox="0 0 48.07 50.82"><defs><style>.cls-1{fill-rule:evenodd;}.cls-2{font-size:13px;font-family:Cunia;}</style></defs><g id="Capa_2" data-name="Capa 2"><g id="Oishi_Chincha" data-name="Oishi Chincha"><g id="Logo_Oishi_R_B" data-name="Logo Oishi R+B"><polygon class="cls-1" points="46.1 36.34 46.09 36.34 46.1 36.34 46.1 36.34"/><path class="cls-1" d="M5.71,39.31h.06a.48.48,0,0,1,.36.19c.07.12,0,.21,0,.33a.29.29,0,0,1,0,.09.28.28,0,0,1,.18,0,.55.55,0,0,1,.22.26.25.25,0,0,1,0,.15s.06,0,0,0c.24-.08.39.2.23.27a.82.82,0,0,1-.09.43.35.35,0,0,1,.17.28.68.68,0,0,1,.94.48s.2,0,.27.14a1.9,1.9,0,0,1,.64.28c.09.08,0,.08.13.1a.58.58,0,0,1,.64,0c.19-.07.31,0,.33.18a.34.34,0,0,1-.16.44.29.29,0,0,1-.39-.24.28.28,0,0,1-.31,0c.08.18-.2.61-.43.38L8.36,43c0,.13.28.28.09.48s-.29,0-.41-.13-.37.12-.49-.26a.75.75,0,0,1-.38-.47L7,42.35a3.89,3.89,0,0,1-.83-.79.86.86,0,0,1-.31-.29,1.3,1.3,0,0,1-.41-.49c-.1,0-.44-.49-.49-.57-.21-.3-.54-.52-.68-.86a3.4,3.4,0,0,1-.61-.85c-.35-.17-.43-.38-.6-.72-.1-.12-.19-.24-.28-.37a1.59,1.59,0,0,1-.42-.61s-.86-1.26-1-1.52S1,34.45,1,34.42c-.2-.39-.16-.54-.33-.9a.91.91,0,0,1-.28-.79L0,31.79A.64.64,0,0,1,.36,31v0a.6.6,0,0,1-.25-.6C0,30.24,0,30.11.14,30A.33.33,0,0,1,.6,30a.29.29,0,0,1,0,.46.27.27,0,0,1,.08.3.42.42,0,0,1,.45,0c.23-.72,1,0,.5.37a.33.33,0,0,1,0,.45.19.19,0,0,1,.26.23c.18.09.27.22.15.48a.39.39,0,0,1,.3.55c.05,0,.05.08,0,.15.32,0,.44.64.36.86.09.06.07.19-.06.22.1.05.2.09.14.22a3.39,3.39,0,0,0,.34.31.82.82,0,0,1,.21.67l.07,0a.33.33,0,0,1,.2.4h0c.24-.1.4.1.58.23s.17.21,0,.3.07.08-.05.19a.53.53,0,0,1-.08.41c.48,0,.58.53.48.93.13.07.29.16.23.34.1.08.42.3.33.44.2,0,.38.1.35.31a.14.14,0,0,1,.1.15.2.2,0,0,1,.18.28S5.72,39.27,5.71,39.31Z"/><path class="cls-1" d="M45.15,36.09s0,0,0-.06a.53.53,0,0,1,0-.41c.08-.11.19-.1.31-.13l.09,0a.26.26,0,0,1-.07-.16.51.51,0,0,1,.15-.31.27.27,0,0,1,.12-.09s0,0,0-.06c-.17-.19,0-.44.16-.32a.91.91,0,0,1,.42-.09.35.35,0,0,1,.19-.26.69.69,0,0,1,.08-1.06s-.06-.2,0-.3a2.06,2.06,0,0,1,0-.7c0-.11.06,0,.05-.16a.6.6,0,0,1-.23-.61c-.13-.14-.15-.27,0-.37A.34.34,0,0,1,47,31a.28.28,0,0,1-.07.45.29.29,0,0,1,.07.31c.14-.15.65-.06.53.24l-.08.25c.12-.06.15-.37.4-.27s.09.28,0,.43.26.28,0,.55a.81.81,0,0,1-.28.53l-.13.29a3.72,3.72,0,0,1-.39,1.07,1,1,0,0,1-.15.4,1.29,1.29,0,0,1-.28.56c.07.08-.29.61-.34.69a4.94,4.94,0,0,1-.52,1,3,3,0,0,1-.54.9,1.19,1.19,0,0,1-.41.83c-.08.14-.16.27-.23.41a1.7,1.7,0,0,1-.4.62s-.82,1.29-1,1.5-.63.66-.65.68c-.28.34-.43.36-.7.65a.89.89,0,0,1-.61.57l-.73.69a.63.63,0,0,1-.84,0l0,0a.61.61,0,0,1-.45.46c-.08.18-.18.26-.36.12a.33.33,0,0,1-.22-.41.29.29,0,0,1,.44-.13.3.3,0,0,1,.24-.2c-.11,0-.21-.24-.19-.4-.75.08-.42-.9.14-.6,0-.18.26-.21.42-.18,0,0-.15-.24.11-.32,0-.2.09-.34.38-.33a.39.39,0,0,1,.38-.49c0-.06.06-.08.14-.07-.11-.31.41-.66.65-.67a.12.12,0,0,1,.22,0c0-.12,0-.23.15-.22s.1-.29.15-.43a.81.81,0,0,1,.53-.46.2.2,0,0,1,0-.07.32.32,0,0,1,.29-.34h0c-.18-.18-.06-.41,0-.62s.13-.24.26-.15,0-.09.19,0,.3-.13.41-.07c-.15-.47.26-.75.67-.82,0-.15,0-.32.21-.34s.11-.5.28-.48c-.09-.18-.06-.38.15-.44,0-.08,0-.14.09-.16a.21.21,0,0,1,.19-.27S45.1,36.09,45.15,36.09Z"/><path class="cls-1" d="M36.49,44.53l0,0-.14.07.08,0Z"/><path class="cls-1" d="M27.52,46.26h0a0,0,0,0,0,0,0A0,0,0,0,1,27.52,46.26Z"/><polygon class="cls-1" points="27.02 46.6 27.04 46.61 27.02 46.6 27.02 46.6"/><path class="cls-1" d="M27.64,45.58c.1,0,.17.17.18.2s0-.16.15-.14.06-.09.09-.06.22,0,.25.1l.11,0s0-.08.06-.11.09-.15.23-.07.06-.08.13-.06c.14-.13.3.19.1.19a.23.23,0,0,1-.22.12.1.1,0,0,1-.1.07c0,.06-.19.12-.22.1a.13.13,0,0,1-.18,0s-.15,0-.11.07,0,.1,0,.11a.19.19,0,0,1-.2.08c-.1,0-.16.14-.29.07,0,.08-.33.23-.45.16s-.13.15-.26.14a.27.27,0,0,1-.27,0,.6.6,0,0,1-.46.14.34.34,0,0,1-.29.08.32.32,0,0,1-.29,0,.4.4,0,0,1-.3.06.21.21,0,0,1-.23,0,.22.22,0,0,1-.3,0,.3.3,0,0,1-.28,0,.26.26,0,0,1-.21,0s-.07,0-.11,0a.47.47,0,0,1-.33,0,.19.19,0,0,1-.29,0,.45.45,0,0,1-.39,0,.27.27,0,0,1-.3-.09.47.47,0,0,1-.45-.11c-.13,0-.23-.08-.35-.2s-.3-.31,0-.25a.21.21,0,0,1,.14.12.3.3,0,0,1,.29.24.27.27,0,0,1,.34.08l0-.12c-.29,0-.19-.28-.08-.26-.09-.14.09-.23.2-.17s.18-.2.26-.07a.08.08,0,0,1,.09.06s.17,0,.19.12c.12-.19.56-.13.64-.06a.14.14,0,0,1,.11-.07.2.2,0,0,1,.11,0,.19.19,0,0,1,.17.11.24.24,0,0,1,.33.07s.09-.09.13-.06c.12-.18.28,0,.28.18a.16.16,0,0,1,.13-.05.17.17,0,0,1,.1-.1.13.13,0,0,1,.21-.1l.13,0c-.13,0-.18-.08-.17-.16A10.94,10.94,0,0,0,27.64,45.58Z"/><path class="cls-1" d="M41.88,12.22c0-.09.09-.21.12-.24s-.15,0-.19-.08-.1,0-.09-.07-.08-.19,0-.26a.2.2,0,0,1-.09-.09s-.06.07-.12,0-.18,0-.16-.18c-.06,0-.1,0-.11-.1-.17-.08.06-.35.14-.17a.24.24,0,0,1,.19.16.1.1,0,0,1,.1.06c.07,0,.2.13.18.18a.12.12,0,0,1,0,.17c0,.05.08.13.11.08s.08-.07.09-.05a.19.19,0,0,1,.16.15c0,.11.19.1.17.24.08,0,.34.22.33.36s.19.06.23.18a.24.24,0,0,1,.14.24.56.56,0,0,1,.31.36.31.31,0,0,1,.18.25.28.28,0,0,1,.12.25.43.43,0,0,1,.17.26.2.2,0,0,1,.09.21.23.23,0,0,1,.17.25s.15.18.13.26a.22.22,0,0,1,.07.19s0,.06,0,.11a.51.51,0,0,1,.15.29.2.2,0,0,1,.06.29.42.42,0,0,1,.12.37.25.25,0,0,1,0,.31.48.48,0,0,1,.08.46.53.53,0,0,1-.05.4c.11.22-.17.4-.22.12a.22.22,0,0,1,.06-.18.27.27,0,0,1,.1-.35.28.28,0,0,1-.06-.34l-.11,0c.1.28-.19.28-.21.18-.1.14-.25,0-.24-.12-.07.06-.25-.09-.16-.21a.08.08,0,0,1,0-.11.21.21,0,0,1,0-.22c-.22,0-.34-.47-.3-.57a.16.16,0,0,1-.11-.07s0-.06-.06-.09a.25.25,0,0,1,0-.21.24.24,0,0,1-.06-.33s-.11,0-.1-.09c-.22,0-.08-.28.05-.33a.19.19,0,0,1-.1-.1.21.21,0,0,1-.13-.05.13.13,0,0,1-.17-.16.81.81,0,0,1-.09-.1c0,.12,0,.19-.08.22A11.46,11.46,0,0,0,41.88,12.22Z"/><path class="cls-1" d="M12.7,3.24c-.09,0-.21-.1-.23-.13s0,.16-.09.19c0,0,0,.1-.07.09s-.2.07-.27,0a.24.24,0,0,1-.09.08.07.07,0,0,1,0,.12.15.15,0,0,1-.19.15c0,.07,0,.1-.11.11-.08.17-.34-.08-.15-.15a.26.26,0,0,1,.16-.19.09.09,0,0,1,.07-.09c0-.07.14-.19.18-.18s.16,0,.17,0,.14-.08.08-.11-.06-.08,0-.1a.18.18,0,0,1,.16-.14c.11,0,.11-.19.25-.17,0-.08.23-.33.37-.31s.07-.19.19-.22A.25.25,0,0,1,13.32,2a.56.56,0,0,1,.38-.29A.35.35,0,0,1,14,1.56a.32.32,0,0,1,.26-.1.42.42,0,0,1,.26-.16.23.23,0,0,1,.22-.08A.22.22,0,0,1,15,1.07a.33.33,0,0,1,.26-.13.26.26,0,0,1,.19-.06s.06-.05.11,0a.46.46,0,0,1,.3-.13c0-.09.21-.15.29-.06a.47.47,0,0,1,.38-.1.24.24,0,0,1,.31,0,.48.48,0,0,1,.46-.06.48.48,0,0,1,.39.07c.24-.11.4.18.12.22A.18.18,0,0,1,17.6.71a.28.28,0,0,1-.35-.13.28.28,0,0,1-.35.05l0,.11c.28-.08.27.2.17.22.13.11,0,.25-.13.23.05.07-.1.25-.22.15s-.07,0-.1,0a.21.21,0,0,1-.22,0c-.05.22-.49.32-.58.28a.25.25,0,0,1-.08.1l-.1.05a.18.18,0,0,1-.2,0,.23.23,0,0,1-.33.05s-.05.11-.1.1c0,.21-.28.07-.33-.07a.12.12,0,0,1-.11.09.13.13,0,0,1-.05.13.13.13,0,0,1-.16.17s-.08,0-.11.08c.13,0,.19,0,.21.1A10.33,10.33,0,0,0,12.7,3.24Z"/><path class="cls-1" d="M5.2,14.59c-.06.08-.23,0-.27,0s.12.11,0,.2,0,.11,0,.12-.13.16-.23.13a.27.27,0,0,1,0,.12s.09,0,.05.11.06.16-.08.23c0,0,0,.09,0,.14s-.34.12-.21,0a.25.25,0,0,1,0-.25.08.08,0,0,1,0-.11s0-.24.06-.24.11-.14.14-.12.07-.14,0-.14-.1,0-.09,0a.18.18,0,0,1,.06-.21c.08-.08,0-.22.12-.27-.07-.05,0-.41.15-.46a.28.28,0,0,1,0-.29.23.23,0,0,1,.13-.24.56.56,0,0,1,.17-.45.31.31,0,0,1,.12-.28.31.31,0,0,1,.17-.23A.39.39,0,0,1,5.68,12a.21.21,0,0,1,.14-.18c-.06-.1,0-.24.13-.26s.08-.23.16-.25a.2.2,0,0,1,.13-.15c0-.06,0-.08.08-.09a.41.41,0,0,1,.18-.27c0-.1.1-.24.22-.2A.43.43,0,0,1,7,10.31a.24.24,0,0,1,.25-.18.49.49,0,0,1,.37-.3A.48.48,0,0,1,8,9.68c.15-.21.44,0,.22.13a.22.22,0,0,1-.18,0,.29.29,0,0,1-.36.08.28.28,0,0,1-.27.22l.08.09c.19-.23.33,0,.25.09.17,0,.13.22,0,.26.08,0,0,.27-.11.25s-.05.05-.1,0a.17.17,0,0,1-.2.09c.07.21-.25.53-.35.54a.2.2,0,0,1,0,.13.31.31,0,0,1,0,.1.22.22,0,0,1-.2.07c0,.1-.13.24-.26.22,0,0,0,.12,0,.13.08.21-.2.21-.31.12a.14.14,0,0,1,0,.14.14.14,0,0,1,0,.14.12.12,0,0,1,0,.22c0,.05,0,.09,0,.13s.18-.09.23,0A11.64,11.64,0,0,0,5.2,14.59Z"/><path class="cls-1" d="M25.56,2.24a.43.43,0,0,1-.22-.06c-.05.15-.36.14-.43,0-.24,0-.29.06-.38-.17,0,.32-.5.23-.62-.15l-.06,0a.52.52,0,0,1-.13.21c.16.11.06.43-.15.31-.23.05-.25-.14-.2-.26S23.29,2,23.25,2A.67.67,0,0,1,23,2.5a.3.3,0,0,1-.45,0,.41.41,0,0,1-.07-.34.44.44,0,0,1-.19-.07c0,.08-.57.33-.69-.33-.17.14-.11.09-.05.38a.17.17,0,0,1-.15.24A.49.49,0,0,1,21,2.09l-.06,0a.45.45,0,0,1-.56.27c.06.31-.19.84-.57.57s0-.44-.1-.66c-.23,0-.39-.14-.32-.3-.28.06-.42-.2-.27-.34-.22-.26,0-.65.41-.48.41,0,.58.39.48.73l.45-.76c0-.06.09-.18,0-.22A.56.56,0,0,1,20.21.4c0-.07,0-.09.12-.1a1.56,1.56,0,0,1,.83,0c.41-.24.85-.08,1.28-.17s.27.26.28.5c0,.06,0,0,.05.08.28.12.29-.13.3-.32s.17-.39.4-.31c.08-.22.81,0,1,.08.45-.15.85.09,1.28.08.25,0,.32.23.22.41.11.07.09.16.12.26.06-.26.15-.53.73-.51l.49,0s.28-.06.17.26,0,.73.32.65c0,0,.3-.47.56-.29a.57.57,0,0,1,.51.06c.28.09.35.12.22.28.24.22.19.48,0,.76.24.25.11.48,0,.55a.23.23,0,0,1-.3.22c-.06.13-.37.13-.3-.13a.23.23,0,0,1,.28-.11.54.54,0,0,1,0-.22.45.45,0,0,1-.45,0,.29.29,0,0,1-.52.21c-.23.07-.4,0-.35-.29-.16,0-.24-.08-.22-.2A.58.58,0,0,1,26.7,2c0,.1-.33.16-.4,0l-.06,0c0,.09,0,.18,0,.17C26.2,2.36,25.63,2.61,25.56,2.24Z"/><path class="cls-1" d="M23.22,48.57a.57.57,0,0,0-.22.07c-.05-.15-.37-.14-.44,0-.23,0-.28-.06-.38.17,0-.32-.5-.23-.61.14l-.07,0a.45.45,0,0,0-.12-.21c.16-.11.06-.43-.15-.31-.24,0-.26.13-.2.26s-.08.09-.13.1a.63.63,0,0,0-.21-.48.3.3,0,0,0-.44,0,.43.43,0,0,0-.08.34.67.67,0,0,0-.18.07c0-.08-.57-.33-.69.34-.17-.14-.11-.09-.05-.38s0-.22-.16-.25a.46.46,0,0,0-.47.26l-.07,0a.43.43,0,0,0-.56-.27c.06-.32-.19-.84-.56-.57s0,.43-.1.66c-.24,0-.39.14-.33.29-.28,0-.41.2-.27.35-.21.26,0,.65.42.48.41,0,.58-.39.47-.73.15.25.3.51.46.76,0,.06.09.18,0,.22a.53.53,0,0,0-.22.48c0,.07,0,.09.11.1a1.59,1.59,0,0,0,.84,0c.41.24.85.07,1.27.17s.28-.27.29-.5c0-.06,0-.05.05-.08.28-.13.28.13.29.32s.17.38.41.31c.08.22.8,0,1-.09.45.16.84-.08,1.28-.07.25,0,.32-.23.21-.42.12-.06.1-.15.13-.25.06.25.15.53.73.51l.49,0s.27.06.17-.26,0-.73.32-.65c0,0,.29.47.55.28a.55.55,0,0,0,.52-.05c.27-.1.35-.12.22-.28.24-.22.19-.48,0-.76a.34.34,0,0,0-.05-.56.21.21,0,0,0-.29-.21c-.06-.13-.38-.13-.3.13a.23.23,0,0,0,.28.11.39.39,0,0,0,0,.21.48.48,0,0,0-.45,0,.29.29,0,0,0-.52-.22c-.23-.07-.41,0-.36.3-.15,0-.23.07-.21.2a.55.55,0,0,0-.49.21c0-.1-.34-.17-.4,0l-.06,0c0-.09,0-.18-.06-.18S23.28,48.21,23.22,48.57Z"/><path class="cls-1" d="M22.13,49.44l0,0Z"/><path class="cls-1" d="M4.58,36.16C4.25,35.61,3.1,34.7,3.28,34a3.65,3.65,0,0,1-.35-1.23A1.34,1.34,0,0,1,3,31.93c.16-.3-.06-.5,0-.82L3.25,30l0-.63-.12-.55c-.06-.24.08-.37-.08-.58s.38-.6-.09-.77,0-.33-.18-.51,0-.53-.07-.78-.23-.24-.2-.4.06-.05,0-.18a1.76,1.76,0,0,1-.17-.93c0-.1,0-.07.08-.14.23-.26.12-.73.54-.87.07,0,.06,0,.07-.07,0-.45.58-.56.56.15,0,0,0,0,0,0,.28.22.21.74.08,1s-.16.1-.09.29.05,0,.12.08a.52.52,0,0,1,.11.67,1.24,1.24,0,0,1,0,.33,1.1,1.1,0,0,1,0,.57A.75.75,0,0,1,4,27.1a1.24,1.24,0,0,1,.24,1,.5.5,0,0,1,.06.68,10.22,10.22,0,0,1,.46,1.59c.12.47.37,1,.53,1.46,0,0,.37,1,.37,1,0,.22-.15.26-.24.32s-.17,0-.25-.13a3.74,3.74,0,0,0-.23-.77l-.19.08c-.14,0-.09,0,0,.17A28.87,28.87,0,0,0,6.9,37.33c.18.36.32.29.54.57,1.64,2,1,1.74,3.47,3.32a2,2,0,0,1,.33.24c.19.15.31.09.52.2a8.57,8.57,0,0,1,1.36.84,13.41,13.41,0,0,0,4.16,2.17l.41.14c.11,0,.12,0,0,.13a.87.87,0,0,1-.32.23c-.19.08-.38-.05-.42,0a.52.52,0,0,1-.54-.13.69.69,0,0,1-.63-.18,1,1,0,0,1-.5,0,.29.29,0,0,1,.08.37.64.64,0,0,1,.59.16.49.49,0,0,1,.66.14,1.23,1.23,0,0,1,.93.37.69.69,0,0,1,.33.23,1.08,1.08,0,0,1,.56.08,1.82,1.82,0,0,1,.33,0,.53.53,0,0,1,.65.19c0,.08,0,.1.07.14s.09,0,.3-.06.82-.09,1,.21c0,0,0,0,0,0,.7.06.53.58.07.58-.05,0,0,0-.08.06-.19.4-.64.22-.93.42-.07.06,0,.05-.15.06a1.81,1.81,0,0,1-.9-.29c-.12-.06-.06,0-.17,0s-.25-.18-.38-.25-.55,0-.76-.17-.46.15-.49-.24-.55,0-.75-.19-.36,0-.56-.15a7.66,7.66,0,0,0-1-.6.46.46,0,0,0-.22-.06,2.73,2.73,0,0,1-1.28-.64c-.14-.12-.31-.14-.37-.33s0-.18,0-.26.3-.06.44.09,0-.14,0-.17a.31.31,0,0,0-.17-.2c-.08,0-.19.07-.33.08s-.26,0-.37,0-.11,0-.2,0a2.68,2.68,0,0,1-.11-.49c0-.09,0-.07-.13-.12a7.43,7.43,0,0,1-.76-.53c-.71-.63-1.54-1.06-2.29-1.67a12.91,12.91,0,0,1-2.83-3.06A13.68,13.68,0,0,1,4.58,36.16Z"/><path class="cls-1" d="M46.42,14.52c.3.57,1.39,1.55,1.18,2.24A3.78,3.78,0,0,1,47.88,18a1.38,1.38,0,0,1-.12.83c-.18.3,0,.51-.06.82l-.3,1.09v.63l.1.56c0,.24-.1.37,0,.58s-.42.58,0,.77,0,.34.15.53,0,.52,0,.77.21.26.17.42-.06.05,0,.18a1.68,1.68,0,0,1,.12.94c0,.1,0,.07-.08.13-.25.24-.16.72-.59.84-.07,0-.07,0-.07.06-.09.45-.62.53-.56-.17,0,0,0,0,0-.05-.26-.23-.17-.75,0-1s.17-.1.11-.28-.05-.05-.12-.1a.5.5,0,0,1-.07-.67,2.1,2.1,0,0,1,.06-.33,1.07,1.07,0,0,1,0-.56.71.71,0,0,1-.17-.36,1.29,1.29,0,0,1-.19-1,.52.52,0,0,1,0-.69A9.5,9.5,0,0,1,46,20.33a14.29,14.29,0,0,0-.45-1.49s-.31-1.05-.31-1.06c0-.22.17-.25.27-.31s.17,0,.23.15a4.33,4.33,0,0,0,.19.78l.19-.06c.14,0,.1,0,.07-.17a29.62,29.62,0,0,0-2-4.94c-.16-.37-.3-.31-.5-.6-1.52-2.1-.9-1.8-3.28-3.51a2.13,2.13,0,0,1-.32-.26c-.17-.16-.3-.1-.51-.22a10,10,0,0,1-1.31-.92,13.27,13.27,0,0,0-4-2.4l-.4-.17c-.11,0-.12,0,0-.12a.71.71,0,0,1,.33-.22c.19-.06.37.07.42.06a.51.51,0,0,1,.53.16.66.66,0,0,1,.62.21,1.13,1.13,0,0,1,.5,0c-.12-.14-.14-.24-.06-.37a.66.66,0,0,1-.58-.19.51.51,0,0,1-.66-.18,1.28,1.28,0,0,1-.9-.42.8.8,0,0,1-.32-.25,1,1,0,0,1-.55-.12,1.2,1.2,0,0,1-.33,0,.52.52,0,0,1-.64-.22c0-.08,0-.1-.06-.14s-.09,0-.3,0-.83.05-1-.26c0,0,0,0,0,0-.7-.11-.49-.61,0-.58.05,0,.05,0,.08-.06.22-.39.66-.19,1-.37.07-.05,0-.05.15-.05a1.76,1.76,0,0,1,.88.33c.12.07.06,0,.17,0s.24.19.37.26.55,0,.75.22.46-.12.47.26.55,0,.74.23.35.05.55.19a9.08,9.08,0,0,0,1,.66.52.52,0,0,0,.21.07A2.67,2.67,0,0,1,38.29,5c.14.13.31.16.36.35s0,.18-.06.26-.3,0-.43-.12,0,.14,0,.17a.29.29,0,0,0,.16.21c.08,0,.19-.06.33-.06H39c.11,0,.11,0,.2,0a2.81,2.81,0,0,1,.09.49c0,.1,0,.08.11.14a5.45,5.45,0,0,1,.73.56c.68.67,1.48,1.14,2.2,1.8A13.09,13.09,0,0,1,45,12.08,15.4,15.4,0,0,1,46.42,14.52Z"/><path class="cls-1" d="M6,8.43c.4-.5.84-1.9,1.55-2a3.68,3.68,0,0,1,1-.77,1.24,1.24,0,0,1,.81-.23c.34,0,.45-.24.76-.29L11.21,5l.57-.27.48-.32c.2-.13.37,0,.5-.28s.7.14.69-.36.3-.14.42-.35.48-.19.69-.35.15-.29.31-.32.07,0,.17-.06a1.68,1.68,0,0,1,.8-.49c.11,0,.08,0,.16,0,.33.12.73-.16,1,.18,0,.06,0,.06.09.05.44-.11.74.34.07.58,0,0,0,0,0,0-.1.34-.61.46-.92.44s-.16-.11-.3,0,0,.06,0,.15a.52.52,0,0,1-.58.34,3.18,3.18,0,0,1-.33.08,1.08,1.08,0,0,1-.52.21.69.69,0,0,1-.26.3,1.21,1.21,0,0,1-.81.58.5.5,0,0,1-.62.3,9.35,9.35,0,0,1-1.32,1c-.39.28-.81.71-1.16,1,0,0-.84.71-.84.72-.21.08-.3-.05-.39-.12s-.1-.14,0-.27a3.84,3.84,0,0,0,.63-.5,1.79,1.79,0,0,0-.13-.14c-.1-.12-.07-.08-.18,0A29.05,29.05,0,0,0,5.7,11c-.27.3-.16.4-.33.71C4.08,14,4.1,13.29,3.52,16.16a2.34,2.34,0,0,1-.11.4c-.07.22,0,.32,0,.55a10.12,10.12,0,0,1-.29,1.57,13.61,13.61,0,0,0-.54,4.67c0,.14,0,.28,0,.43s0,.12-.1.07a.79.79,0,0,1-.34-.21c-.14-.15-.09-.37-.12-.41A.5.5,0,0,1,2,22.68.68.68,0,0,1,1.92,22a.87.87,0,0,1-.16-.47.3.3,0,0,1-.32.21.61.61,0,0,1,.06.6.5.5,0,0,1,.11.68,1.24,1.24,0,0,1,0,1,.65.65,0,0,1-.11.38,1,1,0,0,1,.13.55,2.08,2.08,0,0,1,.12.32.52.52,0,0,1,.06.67c-.06.06-.1,0-.11.11s0,.1.16.26.39.73.17,1c0,0,0,0,0,0,.19.68-.35.7-.51.27,0,0,0,0-.09-.05-.44,0-.44-.52-.73-.71-.08-.05-.06,0-.11-.12a1.8,1.8,0,0,1,0-.95c0-.13,0-.06-.05-.16s.07-.3.09-.45-.24-.5-.11-.77-.31-.37,0-.54-.21-.5-.09-.77-.11-.34-.06-.57A9.66,9.66,0,0,0,.54,21.4a.86.86,0,0,0,0-.23,2.56,2.56,0,0,1,.13-1.42c.06-.18,0-.34.17-.47s.15-.11.26-.06.16.26.07.45.15,0,.17,0a.32.32,0,0,0,.13-.23c0-.09-.14-.16-.2-.29s-.09-.23-.15-.33-.08-.09-.05-.2a3.83,3.83,0,0,1,.42-.28c.08,0,.06-.06.07-.16a5.9,5.9,0,0,1,.22-.9c.33-.89.43-1.82.73-2.74a13.13,13.13,0,0,1,1.83-3.74A14.85,14.85,0,0,1,6,8.43Z"/><path class="cls-1" d="M44.14,36.16c.31-.56,1.43-1.5,1.24-2.2a4,4,0,0,0,.32-1.24,1.31,1.31,0,0,0-.1-.83c-.17-.3,0-.51,0-.82L45.3,30l0-.62.12-.56c0-.24-.1-.37.06-.58s-.4-.59.07-.77,0-.34.16-.52,0-.52.06-.78.21-.25.18-.41-.06-.05,0-.18a1.74,1.74,0,0,0,.14-.93c0-.1,0-.07-.08-.14-.24-.25-.14-.72-.56-.85-.07,0-.06,0-.07-.07-.07-.45-.6-.55-.56.16,0,0,0,0,0,.05-.28.22-.19.74-.05,1s.16.1.1.28-.06,0-.13.09a.5.5,0,0,0-.08.67,1,1,0,0,0,.05.33,1,1,0,0,0,0,.56.72.72,0,0,0-.18.36,1.26,1.26,0,0,0-.22,1,.5.5,0,0,0,0,.68,9.23,9.23,0,0,0-.42,1.61c-.11.46-.35,1-.49,1.46,0,0-.34,1.05-.34,1.05,0,.23.15.26.25.32s.17,0,.24-.14a3.54,3.54,0,0,1,.22-.77l.18.07c.14,0,.1,0,.06.17a28.82,28.82,0,0,1-2.12,4.87c-.17.37-.31.31-.52.59-1.58,2.06-1,1.77-3.38,3.41a2.85,2.85,0,0,0-.33.25c-.18.16-.31.1-.51.21a9.92,9.92,0,0,0-1.34.87A13.49,13.49,0,0,1,31.66,45l-.4.15c-.12,0-.12,0,0,.12a.82.82,0,0,0,.33.23c.18.07.37-.06.42,0a.49.49,0,0,0,.53-.15.66.66,0,0,0,.62-.19,1,1,0,0,0,.5,0,.27.27,0,0,0-.07.36.66.66,0,0,0-.58.18.49.49,0,0,0-.66.16,1.26,1.26,0,0,0-.92.39.7.7,0,0,0-.32.24,1.1,1.1,0,0,0-.56.1,1.82,1.82,0,0,0-.33,0,.5.5,0,0,0-.64.21c0,.07,0,.1-.07.13s-.09,0-.3,0-.82-.07-1,.24c0,0,0,0,0,0-.71.08-.52.59-.06.58.05,0,0,0,.08.06.2.39.65.2.94.39.08.06.05.06.15.06a1.73,1.73,0,0,0,.89-.31c.12-.07.07,0,.18,0s.24-.18.37-.25.55,0,.76-.2.46.14.48-.25.55,0,.74-.21.36,0,.56-.16a9,9,0,0,1,1-.64.9.9,0,0,1,.22-.06,2.71,2.71,0,0,0,1.26-.67c.14-.12.31-.15.37-.34s0-.18-.05-.26-.3-.05-.44.11,0-.15,0-.18a.29.29,0,0,1,.16-.2c.08,0,.2.06.34.07s.25,0,.37,0,.11,0,.19,0a2.22,2.22,0,0,0,.1-.5c0-.09,0-.07.12-.13a6.46,6.46,0,0,0,.75-.54c.69-.65,1.51-1.1,2.25-1.73a12.86,12.86,0,0,0,2.74-3.13A14.88,14.88,0,0,0,44.14,36.16Z"/><text class="cls-2" transform="translate(7.76 23.59)">CHIN<tspan x="2.15" y="11">CHA</tspan></text></g></g></g></svg>