<?xml version="1.0" encoding="utf-8"?>
<!-- Generator: Adobe Illustrator 25.1.0, SVG Export Plug-In . SVG Version: 6.00 Build 0)  -->
<svg version="1.1"
	 id="svg82" xmlns:cc="http://creativecommons.org/ns#" xmlns:dc="http://purl.org/dc/elements/1.1/" xmlns:rdf="http://www.w3.org/1999/02/22-rdf-syntax-ns#" xmlns:svg="http://www.w3.org/2000/svg"
	 xmlns="http://www.w3.org/2000/svg" xmlns:xlink="http://www.w3.org/1999/xlink" x="0px" y="0px" viewBox="0 0 102 132"
	 style="enable-background:new 0 0 102 132;" xml:space="preserve">
<style type="text/css">
	.st0{fill-rule:evenodd;clip-rule:evenodd;fill:#AB4237;}
	.st1{fill-rule:evenodd;clip-rule:evenodd;fill:#C5C6C6;}
	.st2{fill-rule:evenodd;clip-rule:evenodd;fill:#EDF5F7;}
	.st3{fill-rule:evenodd;clip-rule:evenodd;fill:#E05B48;}
	.st4{fill-rule:evenodd;clip-rule:evenodd;fill:#80322E;}
	.st5{fill-rule:evenodd;clip-rule:evenodd;fill:#888989;}
	.st6{fill-rule:evenodd;clip-rule:evenodd;fill:#405768;}
	.st7{fill-rule:evenodd;clip-rule:evenodd;fill:#242E35;fill-opacity:0.3;}
	.st8{fill-rule:evenodd;clip-rule:evenodd;fill:#1D1D1B;}
	.st9{fill:#1D1D1B;}
</style>
<g id="book">
	<g id="Group" transform="translate(15.118 0.5960007)">
		<path id="Shape" class="st0" d="M86.7,120.1c0,5.5-4.5,10-10,10H10c-5.5,0-10-4.5-10-10V10C0,4.5,4.5,0,10,0h66.7
			c5.5,0,10,4.5,10,10V120.1L86.7,120.1z"/>
	</g>
	<g id="g16" transform="translate(12.834 1.1679993)">
		<path id="path14" class="st1" d="M86.7,119.1c0,5.5-4.5,10-10,10H10c-5.5,0-10-4.5-10-10V10C0,4.5,4.5,0,10,0h66.7
			c5.5,0,10,4.5,10,10V119.1L86.7,119.1z"/>
	</g>
	<g id="g20" transform="translate(11.514 1.1679993)">
		<path id="path18" class="st2" d="M86.7,119.1c0,5.5-4.5,10-10,10H10c-5.5,0-10-4.5-10-10V10C0,4.5,4.5,0,10,0h66.7
			c5.5,0,10,4.5,10,10V119.1L86.7,119.1z"/>
	</g>
	<g id="g24" transform="translate(9.900002 1.1679993)">
		<path id="path22" class="st1" d="M86.7,119.1c0,5.5-4.5,10-10,10H10c-5.5,0-10-4.5-10-10V10C0,4.5,4.5,0,10,0h66.7
			c5.5,0,10,4.5,10,10V119.1L86.7,119.1z"/>
	</g>
	<g id="g28" transform="translate(7.9280014 1.1679993)">
		<path id="path26" class="st2" d="M86.7,119.1c0,5.5-4.5,10-10,10H10c-5.5,0-10-4.5-10-10V10C0,4.5,4.5,0,10,0h66.7
			c5.5,0,10,4.5,10,10V119.1L86.7,119.1z"/>
	</g>
	<g id="g32" transform="translate(5.987999 1.1679993)">
		<path id="path30" class="st1" d="M86.7,119.1c0,5.5-4.5,10-10,10H10c-5.5,0-10-4.5-10-10V10C0,4.5,4.5,0,10,0h66.7
			c5.5,0,10,4.5,10,10V119.1L86.7,119.1z"/>
	</g>
	<g id="g36" transform="translate(2.4510002 0.5960007)">
		<path id="path34" class="st3" d="M88.4,120.1c0,5.5-4.5,10-10,10H10c-5.5,0-10-4.5-10-10V10C0,4.5,4.5,0,10,0h68.4
			c5.5,0,10,4.5,10,10L88.4,120.1L88.4,120.1z"/>
	</g>
	<path id="Circle" class="st0" d="M5.7,17.9c0-2.3,1.9-4.2,4.2-4.2s4.2,1.9,4.2,4.2S12.2,22,9.9,22S5.7,20.2,5.7,17.9z"/>
	<path id="path39" class="st0" d="M5.7,41.6c0-2.3,1.9-4.2,4.2-4.2s4.2,1.9,4.2,4.2c0,2.3-1.9,4.2-4.2,4.2S5.7,43.9,5.7,41.6z"/>
	<path id="path41" class="st0" d="M5.7,66.4c0-2.3,1.9-4.2,4.2-4.2s4.2,1.9,4.2,4.2c0,2.3-1.9,4.2-4.2,4.2S5.7,68.7,5.7,66.4z"/>
	<path id="path43" class="st0" d="M5.7,92.1c0-2.3,1.9-4.2,4.2-4.2s4.2,1.9,4.2,4.2c0,2.3-1.9,4.2-4.2,4.2S5.7,94.4,5.7,92.1z"/>
	<path id="path45" class="st0" d="M5.7,116c0-2.3,1.9-4.2,4.2-4.2s4.2,1.9,4.2,4.2c0,2.3-1.9,4.2-4.2,4.2S5.7,118.3,5.7,116z"/>
	<path id="path47" class="st4" d="M6,17.9C6,15.8,7.8,14,9.9,14s3.9,1.7,3.9,3.9s-1.7,3.9-3.9,3.9S6,20,6,17.9z"/>
	<path id="path49" class="st4" d="M6,41.6c0-2.1,1.7-3.9,3.9-3.9s3.9,1.7,3.9,3.9s-1.7,3.9-3.9,3.9S6,43.7,6,41.6z"/>
	<path id="path51" class="st4" d="M6,66.4c0-2.1,1.7-3.9,3.9-3.9s3.9,1.7,3.9,3.9c0,2.1-1.7,3.9-3.9,3.9S6,68.6,6,66.4z"/>
	<path id="path53" class="st4" d="M6,92.1c0-2.1,1.7-3.9,3.9-3.9s3.9,1.7,3.9,3.9c0,2.1-1.7,3.9-3.9,3.9S6,94.2,6,92.1z"/>
	<path id="path55" class="st4" d="M6,116c0-2.1,1.7-3.9,3.9-3.9s3.9,1.7,3.9,3.9c0,2.1-1.7,3.9-3.9,3.9S6,118.1,6,116z"/>
	<g id="g59" transform="translate(0 39.711)">
		<path id="path57" class="st5" d="M0,2.8c0,0.5,0.5,1,1,1h9c0.6,0,1-0.5,1-1V1c0-0.5-0.4-1-1-1H1C0.5,0,0,0.5,0,1V2.8L0,2.8z"/>
	</g>
	<g id="g63" transform="translate(0 15.9939995)">
		<path id="path61" class="st5" d="M0,2.8c0,0.5,0.5,1,1,1h9c0.6,0,1-0.5,1-1V1c0-0.5-0.4-1-1-1H1C0.5,0,0,0.5,0,1V2.8L0,2.8z"/>
	</g>
	<g id="g67" transform="translate(0.4889984 64.53)">
		<path id="path65" class="st5" d="M0,2.8c0,0.5,0.5,1,1,1h8.5c0.6,0,1-0.5,1-1V1c0-0.6-0.4-1-1-1H1C0.5,0,0,0.4,0,1L0,2.8L0,2.8z"
			/>
	</g>
	<g id="g71" transform="translate(0.4889984 90.202)">
		<path id="path69" class="st5" d="M0,2.8c0,0.5,0.5,1,1,1h8.5c0.6,0,1-0.5,1-1V1c0-0.6-0.4-1-1-1H1C0.5,0,0,0.4,0,1L0,2.8L0,2.8z"
			/>
	</g>
	<g id="g75" transform="translate(0 114.128)">
		<path id="path73" class="st5" d="M0,2.8c0,0.5,0.5,1,1,1h8.5c0.6,0,1-0.5,1-1V1c0-0.6-0.4-1-1-1H1C0.5,0,0,0.4,0,1V2.8L0,2.8z"/>
	</g>
	<path id="Rectangle" class="st6" d="M70.7,0h10.5v131.3H70.7V0z"/>
	<path id="path78" class="st7" d="M81.2,0.6h2.3v130.1h-2.3V0.6z"/>
</g>
<g id="logoOishi">
	<path class="st8" d="M36,74.3C36,74.3,36,74.3,36,74.3c0.1,0,0.2,0.1,0.3,0.1c0.1,0.1,0,0.1,0,0.2c0,0,0,0,0,0.1c0,0,0.1,0,0.1,0
		c0.1,0,0.1,0.1,0.2,0.2c0,0,0,0.1,0,0.1c0,0,0,0,0,0c0.2-0.1,0.3,0.1,0.2,0.2c0,0.1,0,0.2-0.1,0.3c0.1,0,0.1,0.1,0.1,0.2
		c0.3-0.1,0.6,0,0.7,0.3c0,0,0.1,0,0.2,0.1c0.1,0,0.3,0.1,0.5,0.2c0.1,0,0,0,0.1,0.1c0.1-0.1,0.3-0.1,0.5,0c0.1,0,0.2,0,0.2,0.1
		c0,0.1,0,0.2-0.1,0.3c-0.2,0-0.2,0-0.3-0.2c-0.1,0-0.2,0-0.2,0c0.1,0.1-0.1,0.4-0.3,0.3l-0.1-0.1c0,0.1,0.2,0.2,0.1,0.3
		c-0.1,0.1-0.2,0-0.3-0.1c0,0-0.3,0.1-0.3-0.2c-0.1-0.1-0.2-0.2-0.3-0.3l-0.2-0.2c-0.2-0.2-0.5-0.3-0.6-0.6c-0.1,0-0.2-0.1-0.2-0.2
		c-0.1-0.1-0.2-0.2-0.3-0.3c-0.1,0-0.3-0.4-0.3-0.4c-0.2-0.2-0.4-0.4-0.5-0.6c-0.2-0.2-0.3-0.4-0.4-0.6c-0.3-0.1-0.3-0.3-0.4-0.5
		C34,73.1,34,73,33.9,72.9c-0.1-0.1-0.2-0.3-0.3-0.4c0,0-0.6-0.9-0.7-1.1c-0.1-0.2-0.3-0.6-0.3-0.6c-0.1-0.3-0.1-0.4-0.2-0.6
		c-0.1-0.1-0.2-0.4-0.2-0.6L32,68.9c-0.1-0.2,0-0.5,0.2-0.5v0c-0.1-0.1-0.2-0.2-0.2-0.4c-0.1-0.1-0.1-0.2,0-0.3
		c0.1-0.1,0.2-0.1,0.3,0c0.1,0.1,0.1,0.2,0,0.3c0.1,0.1,0.1,0.1,0.1,0.2c0.1-0.1,0.2-0.1,0.3,0c0.2-0.5,0.7,0,0.4,0.3
		c0.1,0.1,0.1,0.2,0,0.3c0.1,0,0.2,0,0.2,0.1c0,0,0,0.1,0,0.1c0.1,0.1,0.2,0.2,0.1,0.3c0.2,0.1,0.3,0.2,0.2,0.4c0,0,0,0.1,0,0.1
		c0.2,0,0.3,0.5,0.3,0.6c0.1,0,0,0.1,0,0.2c0.1,0,0.1,0.1,0.1,0.2c0.1,0.1,0.2,0.1,0.2,0.2c0.1,0.1,0.2,0.3,0.2,0.5c0,0,0,0,0,0
		c0.1,0,0.2,0.2,0.1,0.3l0,0c0.2-0.1,0.3,0.1,0.4,0.2c0.1,0.1,0.1,0.1,0,0.2c0,0,0,0.1,0,0.1c0,0.1,0,0.2-0.1,0.3
		c0.4,0,0.4,0.4,0.4,0.7c0.1,0,0.2,0.1,0.2,0.2c0.1,0.1,0.3,0.2,0.2,0.3c0.1,0,0.3,0.1,0.2,0.2c0.1,0,0.1,0.1,0.1,0.1
		c0.1,0,0.1,0.1,0.1,0.2C36,74.2,36,74.2,36,74.3C36,74.2,36,74.3,36,74.3L36,74.3z"/>
	<path class="st8" d="M64,72C64,72,64,72,64,72c0-0.1,0-0.2,0-0.3c0.1-0.1,0.1-0.1,0.2-0.1c0,0,0,0,0.1,0c0,0,0-0.1,0-0.1
		c0-0.1,0-0.2,0.1-0.2c0,0,0.1,0,0.1-0.1c0,0,0,0,0,0c-0.1-0.1,0-0.3,0.1-0.2c0.1,0,0.2-0.1,0.3-0.1c0-0.1,0.1-0.2,0.1-0.2
		c-0.2-0.2-0.2-0.5,0.1-0.7c0,0,0-0.1,0-0.2c0-0.2,0-0.3,0-0.5c0-0.1,0,0,0-0.1C65,69,64.9,68.9,65,68.6c-0.1-0.1-0.1-0.2,0-0.3
		c0.1-0.1,0.2-0.1,0.3,0c0.1,0.1,0.1,0.2-0.1,0.3c0.1,0.1,0.1,0.1,0.1,0.2c0.1-0.1,0.5,0,0.4,0.2l-0.1,0.2c0.1,0,0.1-0.3,0.3-0.2
		c0.1,0.1,0.1,0.2,0,0.3c0,0,0.2,0.2,0,0.4c0,0.1-0.1,0.3-0.2,0.4l-0.1,0.2c-0.1,0.3-0.1,0.5-0.3,0.8c0,0.1,0,0.2-0.1,0.3
		c0,0.1-0.1,0.3-0.2,0.4c0,0.1-0.2,0.4-0.2,0.5c-0.1,0.2-0.2,0.5-0.4,0.7c-0.1,0.2-0.2,0.4-0.4,0.6c0,0.3-0.1,0.4-0.3,0.6
		c-0.1,0.1-0.1,0.2-0.2,0.3c-0.1,0.2-0.2,0.3-0.3,0.4c0,0-0.6,0.9-0.7,1.1c-0.2,0.2-0.5,0.5-0.5,0.5c-0.2,0.2-0.3,0.3-0.5,0.5
		c0,0.2-0.3,0.4-0.4,0.4l-0.5,0.5c-0.2,0.2-0.5,0.2-0.6,0c0,0,0,0,0,0c0,0.1-0.1,0.3-0.3,0.3c0,0.1-0.1,0.2-0.2,0.1
		c-0.1,0-0.2-0.1-0.2-0.3c0.1-0.2,0.2-0.2,0.3-0.1c0-0.1,0.1-0.1,0.2-0.1c-0.1,0-0.2-0.2-0.1-0.3c-0.5,0.1-0.3-0.6,0.1-0.4
		c0-0.1,0.2-0.1,0.3-0.1c0,0-0.1-0.2,0.1-0.2c0-0.1,0.1-0.2,0.3-0.2c0-0.2,0.1-0.3,0.3-0.4c0,0,0-0.1,0.1-0.1
		c-0.1-0.2,0.3-0.5,0.5-0.5c0,0,0-0.1,0.1-0.1c0,0,0.1,0,0.1,0c0-0.1,0-0.2,0.1-0.2c0-0.1,0.1-0.2,0.1-0.3c0.1-0.2,0.2-0.3,0.4-0.3
		c0,0,0,0,0-0.1c0-0.1,0.1-0.2,0.2-0.2h0c-0.1-0.1,0-0.3,0-0.4c0-0.1,0.1-0.2,0.2-0.1c0,0,0-0.1,0.1,0c0.1,0,0.2-0.1,0.3-0.1
		c-0.1-0.3,0.2-0.5,0.5-0.6c0-0.1,0-0.2,0.2-0.2c0-0.1,0.1-0.4,0.2-0.3c-0.1-0.1,0-0.3,0.1-0.3c0,0,0-0.1,0.1-0.1
		c0-0.1,0-0.2,0.1-0.2C63.9,72,63.9,72,64,72C64,72,64,72,64,72L64,72z"/>
	<path class="st8" d="M57.9,78C57.9,78,57.8,78,57.9,78c0,0-0.1,0.1-0.1,0.1C57.8,78,57.8,78,57.9,78C57.8,78,57.8,78,57.9,78
		L57.9,78z"/>
	<path class="st8" d="M51.1,79.5L51.1,79.5L51.1,79.5z"/>
	<path class="st8" d="M51.6,78.7c0.1,0,0.1,0.1,0.1,0.1c0,0,0-0.1,0.1-0.1c0,0,0-0.1,0.1,0c0.1-0.1,0.2,0,0.2,0.1c0,0,0,0,0.1,0
		c0,0,0-0.1,0-0.1c0,0,0,0,0,0c0-0.1,0.1-0.1,0.2-0.1c0,0,0,0,0,0c0,0,0,0,0.1,0c0.1-0.1,0.2,0.1,0.1,0.1c0,0.1-0.1,0.1-0.2,0.1
		c0,0,0,0-0.1,0c0,0.1-0.1,0.1-0.2,0.1c0,0-0.1,0-0.1,0c0,0,0,0,0,0c0,0-0.1,0-0.1,0c0,0,0,0.1,0,0.1c0,0.1-0.1,0.1-0.1,0.1
		c-0.1,0-0.1,0.1-0.2,0c0,0.1-0.2,0.2-0.3,0.1c0,0.1-0.1,0.1-0.2,0.1c-0.1,0-0.1,0.1-0.2,0c-0.1,0.1-0.2,0.1-0.3,0.1
		c-0.1,0-0.3,0.1-0.4,0.1c-0.1,0-0.1,0-0.2,0c0,0-0.1,0-0.2,0c0,0.1-0.1,0.1-0.2,0c-0.1,0-0.1,0-0.2,0c0,0-0.1,0-0.1,0
		c0,0,0,0-0.1,0c0,0,0,0,0,0c-0.1,0-0.2,0-0.2,0c-0.1,0-0.1,0-0.2,0c0,0,0,0,0,0c-0.1,0-0.2,0-0.3,0c-0.1,0-0.2,0-0.2-0.1
		c-0.1,0-0.2,0-0.3-0.1c-0.1,0-0.2-0.1-0.2-0.1c-0.2,0-0.2-0.2,0-0.2c0,0,0.1,0,0.1,0.1c0.1,0,0.2,0.1,0.2,0.2
		c0.1-0.1,0.2,0,0.2,0.1l0-0.1c-0.2,0-0.1-0.2-0.1-0.2c-0.1-0.1,0.1-0.2,0.1-0.1c0-0.1,0.1-0.1,0.2,0c0,0,0.1,0,0.1,0
		c0,0,0.1,0,0.1,0.1c0.1-0.1,0.4-0.1,0.5,0c0,0,0,0,0.1,0c0,0,0.1,0,0.1,0c0.1,0,0.1,0,0.1,0.1c0-0.1,0.2,0,0.2,0.1
		c0,0,0.1-0.1,0.1,0c0.1-0.1,0.2,0,0.2,0.1c0,0,0.1,0,0.1,0c0,0,0-0.1,0.1-0.1c0,0,0-0.1,0.1-0.1c0,0,0,0,0.1,0c0,0,0.1,0,0.1,0
		c-0.1,0-0.1-0.1-0.1-0.1C50.6,78.9,51.1,78.9,51.6,78.7L51.6,78.7L51.6,78.7z"/>
	<path class="st8" d="M61.7,55c0-0.1,0.1-0.2,0.1-0.2c0,0-0.1,0-0.1-0.1c0,0-0.1,0-0.1,0c-0.1,0-0.1-0.1,0-0.2c0,0,0,0-0.1-0.1
		c0,0,0,0-0.1,0c-0.1,0-0.1,0-0.1-0.1c0,0,0,0,0,0c0,0-0.1,0-0.1-0.1c-0.1-0.1,0-0.3,0.1-0.1c0.1,0,0.1,0,0.1,0.1c0,0,0.1,0,0.1,0
		c0,0,0.1,0.1,0.1,0.1c0.1,0,0,0.1,0,0.1c0,0,0.1,0.1,0.1,0.1c0,0,0.1,0,0.1,0c0,0,0.1,0,0.1,0.1s0.1,0.1,0.1,0.2
		c0.1,0,0.2,0.1,0.2,0.3c0.1,0,0.1,0,0.2,0.1c0.1,0,0.1,0.1,0.1,0.2c0.1,0,0.1,0.1,0.2,0.3c0.1,0.1,0.2,0.2,0.2,0.4
		c0.1,0,0.1,0.1,0.1,0.2c0,0,0.1,0.1,0.1,0.2c0.1,0,0.1,0.1,0.1,0.2c0,0,0,0,0,0c0.1,0,0.1,0.1,0.1,0.2c0,0,0.1,0.1,0,0.1
		c0,0,0,0,0,0.1c0.1,0.1,0.1,0.1,0.1,0.2c0.1,0,0.1,0.1,0.1,0.2c0,0,0,0,0,0c0.1,0.1,0.1,0.2,0.1,0.3c0.1,0.1,0.1,0.1,0,0.2
		c0.1,0.1,0.1,0.2,0.1,0.3c0,0.1,0,0.2,0,0.3c0.1,0.2-0.1,0.3-0.2,0.1c0,0,0-0.1,0-0.1c0-0.1,0-0.2,0.1-0.3c-0.1-0.1-0.1-0.2,0-0.2
		l-0.1,0c0.1,0.2-0.1,0.2-0.1,0.1c-0.1,0.1-0.2,0-0.2-0.1c0,0-0.2-0.1-0.1-0.2c0,0,0-0.1,0-0.1c0-0.1,0-0.1,0-0.2
		c-0.2,0-0.2-0.3-0.2-0.4c0,0-0.1,0-0.1,0c0,0,0,0,0-0.1c0,0,0-0.1,0-0.1c-0.1,0-0.1-0.2,0-0.2c0,0-0.1,0-0.1-0.1
		c-0.2,0-0.1-0.2,0-0.2c0,0-0.1,0-0.1-0.1c0,0-0.1,0-0.1,0c0,0-0.1,0-0.1-0.1c0,0,0,0,0-0.1c0,0,0,0-0.1-0.1c0,0.1,0,0.1-0.1,0.2
		C62.2,55.9,62,55.4,61.7,55L61.7,55z"/>
	<path class="st8" d="M41,48.7c-0.1,0-0.1-0.1-0.2-0.1c0,0,0,0.1-0.1,0.1c0,0,0,0.1-0.1,0.1c0,0.1-0.1,0-0.2,0c0,0,0,0-0.1,0.1
		c0,0,0,0.1,0,0.1c0,0,0,0,0,0c0,0.1,0,0.1-0.1,0.1c0,0,0,0,0,0c0,0,0,0.1-0.1,0.1C40.1,49.2,40,49,40.1,49c0-0.1,0.1-0.1,0.1-0.1
		c0,0,0-0.1,0-0.1c0,0,0,0,0,0c0,0,0.1-0.1,0.1-0.1c0,0,0.1-0.1,0.1,0c0,0,0,0,0,0c0,0,0.1-0.1,0.1-0.1c0,0,0-0.1,0-0.1
		c0-0.1,0.1-0.1,0.1-0.1c0.1,0,0.1-0.1,0.2-0.1c0-0.1,0.2-0.2,0.3-0.2c0-0.1,0.1-0.1,0.1-0.2c0-0.1,0.1-0.1,0.2-0.1
		c0.1-0.1,0.2-0.2,0.3-0.2c0.1-0.1,0.2-0.2,0.4-0.2c0-0.1,0.1-0.1,0.2-0.1c0,0,0.1-0.1,0.2-0.1c0-0.1,0.1-0.1,0.2-0.1
		c0,0,0.1-0.1,0.2-0.1c0,0,0.1,0,0.1,0c0,0,0,0,0.1,0c0.1-0.1,0.1-0.1,0.2-0.1c0-0.1,0.1-0.1,0.2,0c0.1-0.1,0.2-0.1,0.3-0.1
		c0.1-0.1,0.2-0.1,0.2,0c0.1-0.1,0.2-0.1,0.3,0c0.1,0,0.2,0,0.3,0c0.2-0.1,0.3,0.1,0.1,0.2c0,0-0.1,0-0.1,0c-0.1,0-0.2,0-0.2-0.1
		c-0.1,0.1-0.2,0.1-0.2,0l0,0.1c0.2-0.1,0.2,0.1,0.1,0.2c0.1,0.1,0,0.2-0.1,0.2c0,0-0.1,0.2-0.2,0.1c0,0,0,0-0.1,0c0,0-0.1,0-0.2,0
		c0,0.2-0.4,0.2-0.4,0.2c0,0,0,0.1-0.1,0.1c0,0,0,0-0.1,0c0,0-0.1,0-0.1,0c0,0.1-0.2,0.1-0.2,0c0,0,0,0.1-0.1,0.1
		c0,0.2-0.2,0.1-0.2,0c0,0,0,0.1-0.1,0.1c0,0,0,0.1,0,0.1c0,0,0,0.1-0.1,0.1c0,0,0,0,0,0c0,0,0,0-0.1,0.1c0.1,0,0.1,0,0.2,0.1
		C41.8,48.2,41.3,48.4,41,48.7L41,48.7z"/>
	<path class="st8" d="M35.6,56.7c0,0.1-0.2,0-0.2,0c0,0,0.1,0.1,0,0.1c0,0,0,0.1,0,0.1c0,0.1-0.1,0.1-0.2,0.1c0,0,0,0.1,0,0.1
		c0,0,0.1,0,0,0.1c0,0.1,0,0.1,0,0.2c0,0,0,0,0,0c0,0,0,0.1,0,0.1c0,0.1-0.2,0.1-0.2,0c0-0.1,0-0.1,0-0.2c0,0,0-0.1,0-0.1
		c0,0,0-0.2,0-0.2c0,0,0-0.1,0.1-0.1c0,0,0,0,0,0c0,0,0.1-0.1,0-0.1c0,0-0.1,0-0.1,0c0-0.1,0-0.1,0-0.2c0.1-0.1,0-0.2,0.1-0.2
		c-0.1,0,0-0.3,0.1-0.3c0-0.1,0-0.1,0-0.2c0-0.1,0-0.1,0.1-0.2c0-0.1,0-0.2,0.1-0.3c0-0.1,0-0.2,0.1-0.2c0-0.1,0.1-0.1,0.1-0.2
		c0-0.1,0-0.1,0.1-0.2c0-0.1,0-0.1,0.1-0.1c0-0.1,0-0.2,0.1-0.2c0-0.1,0-0.1,0.1-0.2c0-0.1,0-0.1,0.1-0.1c0,0,0-0.1,0.1-0.1
		c0-0.1,0.1-0.1,0.1-0.2c0-0.1,0.1-0.2,0.2-0.1c0-0.1,0.1-0.2,0.2-0.2c0-0.1,0.1-0.1,0.2-0.1c0-0.1,0.1-0.2,0.3-0.2
		c0.1-0.1,0.1-0.1,0.3-0.1c0.1-0.2,0.3,0,0.2,0.1c0,0-0.1,0-0.1,0c-0.1,0.1-0.2,0.1-0.3,0.1c0,0.1-0.1,0.2-0.2,0.2l0.1,0.1
		c0.1-0.2,0.2,0,0.2,0.1c0.1,0,0.1,0.2,0,0.2c0.1,0,0,0.2-0.1,0.2c0,0,0,0-0.1,0c0,0.1-0.1,0.1-0.2,0.1c0.1,0.1-0.2,0.4-0.2,0.4
		c0,0,0,0.1,0,0.1c0,0,0,0,0,0.1c0,0-0.1,0.1-0.1,0.1c0,0.1-0.1,0.2-0.2,0.2c0,0,0,0.1,0,0.1c0.1,0.1-0.1,0.1-0.2,0.1
		c0,0,0,0.1,0,0.1c0,0,0,0.1,0,0.1c0,0,0,0.1,0,0.1c0,0,0,0-0.1,0c0,0,0,0.1,0,0.1c0.1-0.1,0.1-0.1,0.2,0
		C36.1,55.9,35.8,56.3,35.6,56.7L35.6,56.7z"/>
	<path class="st8" d="M50.1,47.9c-0.1,0-0.1,0-0.2,0c0,0.1-0.3,0.1-0.3,0c-0.2,0-0.2,0-0.3-0.1c0,0.2-0.4,0.2-0.4-0.1c0,0,0,0,0,0
		c0,0.1,0,0.1-0.1,0.2c0.1,0.1,0,0.3-0.1,0.2c-0.2,0-0.2-0.1-0.1-0.2c0,0-0.1-0.1-0.1-0.1c0,0.1-0.1,0.3-0.1,0.3
		c-0.1,0.1-0.2,0.1-0.3,0l0,0c-0.1-0.1,0-0.1,0-0.2c0,0-0.1,0-0.1,0c0,0.1-0.4,0.2-0.5-0.2c-0.1,0.1-0.1,0.1,0,0.3
		c0,0.1,0,0.1-0.1,0.2c0,0,0,0-0.1,0c-0.1,0-0.3-0.1-0.3-0.2c0,0,0,0-0.1,0c-0.1,0.2-0.2,0.2-0.4,0.2l0,0c0,0.2-0.1,0.6-0.4,0.4
		c-0.2-0.2,0-0.3-0.1-0.5c-0.2,0-0.3-0.1-0.2-0.2c-0.2,0-0.3-0.1-0.2-0.2c-0.2-0.2,0-0.5,0.3-0.3c0.3,0,0.4,0.3,0.3,0.5
		c0.1-0.2,0.2-0.4,0.3-0.5c0,0,0.1-0.1,0-0.2c-0.1-0.1-0.2-0.2-0.2-0.3c0,0,0-0.1,0.1-0.1c0.2,0,0.4-0.1,0.6,0
		c0.3-0.2,0.6-0.1,0.9-0.1c0.3-0.1,0.2,0.2,0.2,0.4c0,0,0,0,0,0.1c0.2,0.1,0.2-0.1,0.2-0.2c0-0.2,0.1-0.3,0.3-0.2
		c0.1-0.2,0.6,0,0.7,0.1c0.3-0.1,0.6,0.1,0.9,0c0.2,0,0.2,0.2,0.2,0.3c0.1,0.1,0.1,0.1,0.1,0.2c0-0.2,0.1-0.4,0.5-0.4l0.4,0
		c0,0,0.2,0,0.1,0.2c-0.1,0.2,0,0.5,0.2,0.5c0,0,0.2-0.3,0.4-0.2c0.1,0,0.2,0,0.4,0c0.2,0.1,0.3,0.1,0.2,0.2c0.2,0.2,0.1,0.3,0,0.5
		c0.2,0.2,0.1,0.3,0,0.4c0,0.1,0,0.2-0.2,0.1c0,0.1-0.3,0.1-0.2-0.1c0-0.1,0.1-0.1,0.2-0.1c0,0,0-0.1,0-0.1c-0.1,0.1-0.2,0.1-0.3,0
		c0,0.3-0.3,0.3-0.4,0.2c-0.2,0.1-0.3,0-0.3-0.2c-0.1,0-0.2-0.1-0.2-0.1c-0.1,0-0.3,0-0.4-0.1c0,0.1-0.2,0.1-0.3,0c0,0,0,0,0,0
		c0,0.1,0,0.1,0,0.1C50.5,48,50.1,48.2,50.1,47.9L50.1,47.9z"/>
	<path class="st8" d="M48.4,80.9c-0.1,0-0.1,0-0.2,0c0-0.1-0.3-0.1-0.3,0c-0.2,0-0.2,0-0.3,0.1c0-0.2-0.4-0.2-0.4,0.1c0,0,0,0,0,0
		c0-0.1,0-0.1-0.1-0.2c0.1-0.1,0-0.3-0.1-0.2c-0.2,0-0.2,0.1-0.1,0.2c0,0-0.1,0.1-0.1,0.1c0-0.1-0.1-0.3-0.2-0.3
		c-0.1-0.1-0.2-0.1-0.3,0c0,0,0,0,0,0c-0.1,0.1-0.1,0.1-0.1,0.2c0,0-0.1,0-0.1,0.1c0-0.1-0.4-0.2-0.5,0.2c-0.1-0.1-0.1-0.1,0-0.3
		c0-0.1,0-0.2-0.1-0.2c-0.1,0-0.3,0.1-0.3,0.2c0,0,0,0,0,0c-0.1-0.2-0.2-0.2-0.4-0.2c0-0.2-0.1-0.6-0.4-0.4c-0.2,0.2,0,0.3-0.1,0.5
		c-0.2,0-0.3,0.1-0.2,0.2c-0.2,0-0.3,0.1-0.2,0.2c-0.2,0.2,0,0.5,0.3,0.3c0.3,0,0.4-0.3,0.3-0.5l0.3,0.5c0,0,0.1,0.1,0,0.2
		c-0.1,0.1-0.2,0.2-0.2,0.3c0,0,0,0.1,0.1,0.1c0.2,0,0.4,0.1,0.6,0c0.3,0.2,0.6,0.1,0.9,0.1c0.3,0.1,0.2-0.2,0.2-0.4c0,0,0,0,0-0.1
		c0.2-0.1,0.2,0.1,0.2,0.2c0,0.2,0.1,0.3,0.3,0.2c0.1,0.2,0.6,0,0.7-0.1c0.3,0.1,0.6-0.1,0.9-0.1c0.2,0,0.2-0.2,0.2-0.3
		c0.1,0,0.1-0.1,0.1-0.2c0,0.2,0.1,0.4,0.5,0.4l0.4,0c0,0,0.2,0,0.1-0.2c-0.1-0.2,0-0.5,0.2-0.5c0,0,0.2,0.3,0.4,0.2
		c0.1,0,0.2,0,0.4,0c0.2-0.1,0.3-0.1,0.2-0.2c0.2-0.2,0.1-0.3,0-0.5c0.2-0.2,0.1-0.3,0-0.4c0-0.1-0.1-0.2-0.1-0.2c0,0,0,0-0.1,0
		c0-0.1-0.3-0.1-0.2,0.1c0.1,0.1,0.1,0.1,0.2,0.1c0,0.1,0,0.1,0,0.2c-0.1-0.1-0.2-0.1-0.3,0c0-0.3-0.3-0.3-0.4-0.2
		c-0.2-0.1-0.3,0-0.3,0.2c-0.1,0-0.2,0.1-0.2,0.1c-0.1,0-0.3,0-0.3,0.2c0-0.1-0.2-0.1-0.3,0c0,0,0,0,0,0c0-0.1,0-0.1,0-0.1
		C48.9,80.8,48.5,80.6,48.4,80.9L48.4,80.9z"/>
	<path class="st8" d="M47.7,81.5C47.7,81.5,47.7,81.5,47.7,81.5L47.7,81.5z"/>
	<path class="st8" d="M35.2,72c-0.2-0.4-1-1-0.9-1.5c-0.1-0.2-0.2-0.6-0.3-0.9c0-0.2,0-0.4,0.1-0.6c0.1-0.2,0-0.4,0-0.6l0.2-0.8
		l0-0.4l-0.1-0.4c0-0.2,0.1-0.3-0.1-0.4c-0.1-0.2,0.3-0.4-0.1-0.5c-0.3-0.1,0-0.2-0.1-0.4c-0.1-0.2,0-0.4-0.1-0.5
		c0-0.1-0.2-0.2-0.1-0.3c0-0.1,0,0,0-0.1c-0.1-0.2-0.2-0.4-0.1-0.7c0-0.1,0-0.1,0.1-0.1c0.2-0.2,0.1-0.5,0.4-0.6c0,0,0,0,0,0
		c0-0.3,0.4-0.4,0.4,0.1c0,0,0,0,0,0c0.2,0.2,0.1,0.5,0.1,0.7c-0.1,0.1-0.1,0.1-0.1,0.2c0,0.1,0,0,0.1,0.1c0.2,0.1,0.2,0.3,0.1,0.5
		c0,0.1,0,0.2,0,0.2c0,0.1,0,0.3,0,0.4c0.1,0.1,0.1,0.2,0.1,0.3c0.3,0.3,0.2,0.7,0.2,0.7c0.3,0.3,0,0.5,0,0.5
		c0.1,0.2,0.3,0.9,0.3,1.1c0.1,0.3,0.3,0.7,0.4,1c0,0,0.3,0.7,0.3,0.7c0,0.2-0.1,0.2-0.2,0.2c-0.1,0.1-0.1,0-0.2-0.1
		c0-0.1,0-0.3-0.2-0.5c-0.1,0-0.1,0-0.1,0c-0.1,0-0.1,0,0,0.1c0.3,1.2,1,2.3,1.6,3.4c0.1,0.3,0.2,0.2,0.4,0.4
		c1.2,1.4,0.7,1.2,2.5,2.4c0.1,0,0.2,0.1,0.2,0.2c0.1,0.1,0.2,0.1,0.4,0.1c0.3,0.2,0.7,0.4,1,0.6c1.3,1,1.6,1,3,1.5
		c0.1,0,0.2,0.1,0.3,0.1c0.1,0,0.1,0,0,0.1c-0.1,0.1-0.1,0.1-0.2,0.2c-0.1,0.1-0.3,0-0.3,0c-0.1,0-0.3,0-0.4-0.1
		c-0.2,0-0.4,0-0.4-0.1c-0.1,0-0.2,0-0.4,0c0.1,0.1,0.1,0.2,0.1,0.3c0.1,0,0.3,0,0.4,0.1c0,0,0.3-0.2,0.5,0.1c0,0,0.4,0,0.7,0.3
		c0.1,0,0.2,0.1,0.2,0.2c0.1,0,0.3,0,0.4,0.1c0.1,0,0.2,0,0.2,0c0.2-0.1,0.4,0,0.5,0.1c0,0.1,0,0.1,0.1,0.1c0.1,0.1,0.1,0,0.2,0
		c0.2-0.1,0.6-0.1,0.7,0.1c0,0,0,0,0,0c0.5,0.1,0.4,0.4,0.1,0.4c0,0,0,0-0.1,0c-0.1,0.3-0.5,0.2-0.7,0.3c-0.1,0,0,0-0.1,0
		c-0.2,0-0.4-0.1-0.6-0.2c-0.1,0,0,0-0.1,0c-0.1,0-0.2-0.1-0.3-0.2c-0.2-0.1-0.4,0-0.5-0.1c-0.1-0.1-0.3,0.1-0.4-0.2
		c-0.1-0.3-0.4,0-0.5-0.1c-0.1-0.1-0.3,0-0.4-0.1c-0.2-0.2-0.5-0.3-0.7-0.4c0,0-0.1,0-0.2,0c-0.3-0.1-0.7-0.2-0.9-0.5
		c-0.1-0.1-0.2-0.1-0.3-0.2c0-0.1,0-0.1,0-0.2c0.1-0.1,0.2,0,0.3,0.1c0.1,0.1,0-0.1,0-0.1c0-0.1-0.1-0.1-0.1-0.1
		c-0.1,0-0.1,0-0.2,0.1c-0.1,0-0.2,0-0.3,0c-0.1,0-0.1,0-0.1,0c0-0.1-0.1-0.2-0.1-0.3c0-0.1,0-0.1-0.1-0.1c-0.2-0.1-0.4-0.2-0.5-0.4
		c-0.5-0.4-1.1-0.7-1.6-1.2c-0.8-0.6-1.4-1.3-2-2.2C36.1,73.5,35.4,72.5,35.2,72L35.2,72z"/>
	<path class="st8" d="M64.9,56.7c0.2,0.4,1,1.1,0.8,1.6c0.1,0.2,0.2,0.6,0.2,0.9c0,0.2,0,0.4-0.1,0.6c-0.1,0.2,0,0.4,0,0.6l-0.2,0.8
		l0,0.4l0.1,0.4c0,0.2-0.1,0.3,0,0.4c0.1,0.2-0.3,0.4,0,0.5c0.3,0.1,0,0.2,0.1,0.4c0.1,0.2,0,0.4,0,0.5c0,0.1,0.1,0.2,0.1,0.3
		c0,0.1,0,0,0,0.1c0.1,0.2,0.1,0.4,0.1,0.7c0,0.1,0,0-0.1,0.1c-0.2,0.2-0.1,0.5-0.4,0.6c-0.1,0,0,0-0.1,0c-0.1,0.3-0.4,0.4-0.4-0.1
		c0,0,0,0,0,0c-0.2-0.2-0.1-0.5,0-0.7c0.1-0.1,0.1-0.1,0.1-0.2c0-0.1,0,0-0.1-0.1c-0.2-0.1-0.1-0.3,0-0.5c0-0.1,0-0.2,0-0.2
		c0-0.1,0-0.3,0-0.4c-0.1-0.1-0.1-0.2-0.1-0.3c-0.2-0.3-0.1-0.7-0.1-0.7c-0.2-0.3,0-0.5,0-0.5c-0.1-0.2-0.2-0.9-0.3-1.1
		c-0.1-0.3-0.2-0.7-0.3-1.1c0,0-0.2-0.7-0.2-0.7c0-0.2,0.1-0.2,0.2-0.2c0.1-0.1,0.1,0,0.2,0.1c0,0.1,0,0.3,0.1,0.5c0,0,0.1,0,0.1,0
		c0.1,0,0.1,0,0-0.1c-0.3-1.2-0.9-2.3-1.4-3.5c-0.1-0.3-0.2-0.2-0.4-0.4c-1.1-1.5-0.6-1.3-2.3-2.5c-0.1-0.1-0.2-0.1-0.2-0.2
		c-0.1-0.1-0.2-0.1-0.4-0.2c-0.3-0.2-0.6-0.4-0.9-0.6c-1.3-1-1.6-1.1-2.9-1.7c-0.1,0-0.2-0.1-0.3-0.1c-0.1,0-0.1,0,0-0.1
		c0.1-0.1,0.1-0.1,0.2-0.2c0.1,0,0.3,0,0.3,0c0.1,0,0.3,0,0.4,0.1c0.2,0,0.4,0,0.4,0.2c0.1,0,0.2,0,0.4,0c-0.1-0.1-0.1-0.2,0-0.3
		c-0.1,0-0.3,0-0.4-0.1c0,0-0.3,0.2-0.5-0.1c0,0-0.4,0-0.6-0.3c-0.1,0-0.2-0.1-0.2-0.2c-0.1,0-0.3,0-0.4-0.1c-0.1,0-0.2,0-0.2,0
		c-0.2,0-0.4,0-0.5-0.2c0-0.1,0-0.1,0-0.1c-0.1-0.1-0.1,0-0.2,0c-0.2,0.1-0.6,0-0.7-0.2c0,0,0,0,0,0c-0.5-0.1-0.4-0.4,0-0.4
		c0,0,0,0,0.1,0c0.2-0.3,0.5-0.1,0.7-0.3c0.1,0,0,0,0.1,0c0.2,0,0.4,0.1,0.6,0.2c0.1,0.1,0,0,0.1,0c0.1,0,0.2,0.1,0.3,0.2
		c0.2,0.1,0.4,0,0.5,0.2c0.1,0.1,0.3-0.1,0.3,0.2c0.1,0.4,0.4,0,0.5,0.2c0.1,0.1,0.3,0,0.4,0.1c0.2,0.2,0.5,0.3,0.7,0.5
		c0,0,0.1,0,0.2,0c0.3,0.1,0.6,0.3,0.9,0.5c0.1,0.1,0.2,0.1,0.3,0.2c0,0.1,0,0.1,0,0.2c-0.1,0.1-0.2,0-0.3-0.1c-0.1-0.1,0,0.1,0,0.1
		c0,0.1,0.1,0.1,0.1,0.1c0.1,0,0.1,0,0.2,0c0.1,0,0.2,0,0.3,0c0.1,0,0.1,0,0.1,0c0,0.1,0,0.2,0.1,0.4c0,0.1,0,0.1,0.1,0.1
		c0.2,0.1,0.4,0.3,0.5,0.4c0.5,0.5,1.1,0.8,1.6,1.3c0.7,0.7,1.4,1.4,1.9,2.3C64.1,55.2,64.8,56.3,64.9,56.7L64.9,56.7L64.9,56.7z"/>
	<path class="st8" d="M36.2,52.3c0.3-0.4,0.6-1.4,1.1-1.4c0.1-0.2,0.5-0.4,0.7-0.5c0.2-0.1,0.4-0.2,0.6-0.2c0.2,0,0.3-0.2,0.5-0.2
		l0.8-0.1l0.4-0.2l0.3-0.2c0.1-0.1,0.3,0,0.4-0.2c0.1-0.2,0.5,0.1,0.5-0.3c0-0.3,0.2-0.1,0.3-0.2c0.1-0.2,0.3-0.1,0.5-0.3
		c0.1-0.1,0.1-0.2,0.2-0.2c0.1,0,0,0,0.1,0c0.2-0.2,0.3-0.3,0.6-0.4c0.1,0,0.1,0,0.1,0c0.2,0.1,0.5-0.1,0.7,0.1c0,0,0,0,0.1,0
		c0.3-0.1,0.5,0.2,0.1,0.4c0,0,0,0,0,0c-0.1,0.2-0.4,0.3-0.7,0.3c-0.2,0-0.1-0.1-0.2,0c0,0,0,0.1,0,0.1c-0.1,0.2-0.2,0.3-0.4,0.2
		c-0.1,0-0.2,0-0.2,0.1c-0.1,0.1-0.2,0.1-0.4,0.2c0,0.1-0.1,0.2-0.2,0.2c-0.2,0.3-0.6,0.4-0.6,0.4c-0.1,0.3-0.4,0.2-0.4,0.2
		c-0.1,0.2-0.7,0.6-0.9,0.7c-0.3,0.2-0.6,0.5-0.8,0.7c0,0-0.6,0.5-0.6,0.5c-0.1,0.1-0.2,0-0.3-0.1c-0.1-0.1-0.1-0.1,0-0.2
		c0.1-0.1,0.3-0.1,0.4-0.4c0,0-0.1-0.1-0.1-0.1c-0.1-0.1-0.1-0.1-0.1,0c-1,0.8-1.8,1.8-2.6,2.7c-0.2,0.2-0.1,0.3-0.2,0.5
		c-0.9,1.6-0.9,1.1-1.3,3.2c0,0.1,0,0.2-0.1,0.3c-0.1,0.2,0,0.2,0,0.4c0,0.4-0.1,0.8-0.2,1.1c-0.4,1.6-0.4,1.9-0.4,3.3
		c0,0.1,0,0.2,0,0.3c0,0.1,0,0.1-0.1,0.1c-0.1,0-0.2-0.1-0.2-0.2c-0.1-0.1-0.1-0.3-0.1-0.3c-0.1-0.1-0.1-0.3-0.1-0.4
		c-0.1-0.2-0.1-0.4,0-0.5c-0.1-0.1-0.1-0.2-0.1-0.3c-0.1,0.1-0.1,0.2-0.2,0.1c0.1,0.1,0.1,0.3,0,0.4c0,0,0.3,0.2,0.1,0.5
		c0,0,0.2,0.4,0,0.7c0,0.1,0,0.2-0.1,0.3c0.1,0.1,0.1,0.3,0.1,0.4c0,0.1,0.1,0.1,0.1,0.2c0.1,0.1,0.2,0.3,0,0.5c0,0-0.1,0-0.1,0.1
		c0,0.1,0,0.1,0.1,0.2c0.1,0.2,0.3,0.5,0.1,0.7c0,0,0,0,0,0c0.1,0.5-0.3,0.5-0.4,0.2c0,0,0,0-0.1,0c-0.3,0-0.3-0.4-0.5-0.5
		c-0.1,0,0,0-0.1-0.1c-0.1-0.2-0.1-0.5,0-0.7c0-0.1,0,0,0-0.1c0-0.1,0.1-0.2,0.1-0.3c0-0.2-0.2-0.4-0.1-0.5c0.1-0.2-0.2-0.3,0-0.4
		c0.3-0.2-0.2-0.4-0.1-0.5c0.1-0.2-0.1-0.2,0-0.4c0-0.3,0.1-0.6,0.1-0.8c0-0.1,0-0.1,0-0.2c-0.1-0.3,0-0.7,0.1-1
		c0-0.1,0-0.2,0.1-0.3c0.1-0.1,0.1-0.1,0.2,0c0.1,0.1,0.1,0.2,0,0.3c0,0.1,0.1,0,0.1,0c0,0,0.1-0.1,0.1-0.2c0-0.1-0.1-0.1-0.1-0.2
		c0-0.1-0.1-0.2-0.1-0.2c0-0.1-0.1-0.1,0-0.1c0.1-0.1,0.2-0.1,0.3-0.2c0.1,0,0,0,0.1-0.1c0-0.2,0.1-0.4,0.2-0.6
		c0.2-0.6,0.3-1.3,0.5-1.9c0.3-1,0.7-1.8,1.3-2.7C35.2,53.6,35.8,52.7,36.2,52.3L36.2,52.3z"/>
	<path class="st8" d="M63.3,72c0.2-0.4,1-1.1,0.9-1.6c0.1-0.2,0.2-0.6,0.2-0.9c0-0.2,0-0.4-0.1-0.6c-0.1-0.2,0-0.4,0-0.6l-0.2-0.8
		l0-0.4l0.1-0.4c0-0.2-0.1-0.3,0-0.4c0.1-0.2-0.3-0.4,0-0.5c0.3-0.1,0-0.2,0.1-0.4c0.1-0.2,0-0.4,0-0.5c0-0.1,0.2-0.2,0.1-0.3
		c0-0.1,0,0,0-0.1c0.1-0.2,0.1-0.4,0.1-0.7c0-0.1,0-0.1-0.1-0.1c-0.2-0.2-0.1-0.5-0.4-0.6c-0.1,0,0,0-0.1,0c0-0.3-0.4-0.4-0.4,0.1
		c0,0,0,0,0,0c-0.2,0.2-0.1,0.5,0,0.7c0.1,0.1,0.1,0.1,0.1,0.2c0,0.1,0,0-0.1,0.1c-0.2,0.1-0.1,0.3-0.1,0.5c0,0.1,0,0.2,0,0.2
		c0,0.1,0,0.3,0,0.4c-0.1,0.1-0.1,0.2-0.1,0.3c-0.3,0.3-0.2,0.7-0.2,0.7c-0.2,0.3,0,0.5,0,0.5c-0.1,0.2-0.2,0.9-0.3,1.1
		c-0.1,0.3-0.2,0.7-0.4,1c0,0-0.2,0.7-0.2,0.7c0,0.2,0.1,0.2,0.2,0.2c0.1,0,0.1,0,0.2-0.1c0-0.1,0-0.3,0.2-0.5c0,0,0.1,0,0.1,0
		c0.1,0,0.1,0,0,0.1c-0.3,1.2-1,2.3-1.5,3.5c-0.1,0.3-0.2,0.2-0.4,0.4c-1.1,1.5-0.7,1.3-2.4,2.4c-0.1,0.1-0.2,0.1-0.2,0.2
		c-0.1,0.1-0.2,0.1-0.4,0.1c-0.3,0.2-0.7,0.4-1,0.6c-1.3,1-1.6,1.1-2.9,1.6c-0.1,0-0.2,0.1-0.3,0.1c-0.1,0-0.1,0,0,0.1
		c0.1,0.1,0.1,0.1,0.2,0.2c0.1,0,0.3,0,0.3,0c0.1,0.1,0.3,0,0.4-0.1c0.2,0,0.4,0,0.4-0.1c0,0,0.1,0,0.4,0c-0.1,0.1-0.1,0.2-0.1,0.3
		c-0.1,0-0.3,0-0.4,0.1c0,0-0.3-0.2-0.5,0.1c0,0-0.4,0-0.6,0.3c-0.1,0-0.2,0.1-0.2,0.2c-0.1,0-0.3,0-0.4,0.1c-0.1,0-0.2,0-0.2,0
		c-0.2,0-0.4,0-0.5,0.2c0,0.1,0,0.1,0,0.1c-0.1,0.1-0.1,0-0.2,0c-0.2-0.1-0.6-0.1-0.7,0.2c0,0,0,0,0,0c-0.5,0.1-0.4,0.4,0,0.4
		c0,0,0,0,0.1,0c0.1,0.3,0.5,0.1,0.7,0.3c0.1,0,0,0,0.1,0c0.2,0,0.4-0.1,0.6-0.2c0.1,0,0,0,0.1,0c0.1,0,0.2-0.1,0.3-0.2
		c0.2-0.1,0.4,0,0.5-0.1c0.1-0.1,0.3,0.1,0.3-0.2c0.1-0.3,0.4,0,0.5-0.1c0.1-0.1,0.3,0,0.4-0.1c0.2-0.2,0.5-0.3,0.7-0.5
		c0,0,0.1,0,0.1,0c0.3-0.1,0.7-0.2,0.9-0.5c0.1-0.1,0.2-0.1,0.3-0.2c0-0.1,0-0.1,0-0.2c-0.1-0.1-0.2,0-0.3,0.1c-0.1,0.1,0-0.1,0-0.1
		c0-0.1,0.1-0.1,0.1-0.1c0.1,0,0.1,0,0.2,0c0.1,0,0.2,0,0.3,0c0.1,0,0.1,0,0.1,0c0-0.1,0.1-0.2,0.1-0.4c0-0.1,0-0.1,0.1-0.1
		c0.2-0.1,0.4-0.2,0.5-0.4c0.5-0.5,1.1-0.8,1.6-1.2c0.8-0.7,1.4-1.3,2-2.2C62.5,73.5,63.1,72.4,63.3,72L63.3,72L63.3,72z"/>
	<path class="st9" d="M62.1,63.6c0,7.7-5.8,13.9-13,13.9s-13-6.2-13-13.9s5.8-13.9,13-13.9S62.1,55.9,62.1,63.6L62.1,63.6z
		 M55.1,66.7L55,66.6l-0.1-0.2l-0.1-0.2L54.7,66l-0.1-0.2l-0.1-0.2l-0.1-0.2l-0.1-0.2l0,0h0l-0.1,0h0l0,0l0,0h-0.1l0,0h0l-0.2,0.1
		l0,0l0,0h0l-0.1,0l0,0l0,0l0-0.1l0,0l0,0l-0.1,0.1v-0.2l0-0.1v-0.8l0,0v0l0,0l0,0h0l0,0l0,0l0,0v0h0l0,0l0,0v0l0,0l0,0l0,0l0,0l0,0
		l0,0l0,0h0.1l0,0v0l0,0l0,0h0v0l0,0l0,0v0l0,0l0,0v0h0l0,0l0,0l0,0l0,0l0,0l-0.1,0l0,0l0,0l0,0l-0.1,0l0,0l0,0l0,0l0,0l0,0l0,0l0,0
		l0,0l0,0l-0.1,0l-0.1,0l0,0l0,0l0,0l0,0l0,0l0,0l0,0h0v0h0l0,0h0v0l0,0l0,0h-0.8l0,0v-0.1l0,0l0,0v0l0,0l0,0l0,0l-0.1,0l0,0l0,0v0
		l0,0l0,0l0,0v-0.1l0,0h0l0,0l0,0l0,0h-0.1l0,0l0,0l0,0h0l0,0h0l0,0v0l-0.1,0h-0.4l0,0l0.1-0.1l0,0l0,0l0,0l0,0h0l0,0l0,0v0l0,0l0,0
		l0,0v0l0-0.1l0,0l0,0l0,0l0,0l0,0L50.8,63l0,0l0,0l0,0l0,0l0,0l0,0l0,0l0-0.1v0l0,0v0l0,0l0,0l0,0h0l0,0l0,0l0,0l0,0l-0.1,0l0,0
		l0,0v0l0,0l0,0l0,0v0l0,0v0l0,0l0,0l0,0l0,0l0,0l0,0l0,0l0,0l0,0v0h0l0,0l0,0l0,0l0,0l0,0l0,0l0,0l0,0L50,61.8l0,0l0,0l0,0l0,0v0
		l0,0l0,0l0,0l0-0.1v0h0l0,0h0l0,0l0,0l0,0h0.1l0,0l0,0l0,0l0,0l0,0l-0.1-0.1l0,0l0,0l0,0l0-0.1v-0.1l0,0l0,0l0,0l0,0l0,0l0,0l0,0
		l0,0l0.1-0.1l0.1-0.1l0,0l0,0l0,0h0.1l0,0l0,0l0,0l0,0l0,0v-0.1l0,0v0l0-0.1v0l0-0.1l0,0v0l0,0l0,0l0.1-0.1l0,0l0.1-0.1l0,0l0,0
		l0-0.1v0l0,0v0l0,0l0-0.1v0l0,0l0,0l0,0l0,0v-0.1l0,0l0,0l0,0l0,0h0l0,0v0l0,0l0,0l0,0h0l0,0l0,0l0,0l0,0h0l0,0h0.1l0,0v0l0,0l0,0
		l0,0l0,0l0,0l0,0h0l0,0v0l0,0l0,0v0l0,0v0h0l0,0l0,0l0,0V59l0,0l0,0l0,0v0l0,0l0,0l0,0h0l0,0l0,0l0,0l0.1,0l0,0l0,0l0,0v0h0l0,0h0
		l0,0l0,0l0,0l0,0l0,0l0,0l0.1,0h0v0h0l0,0h0l0,0h0l0,0l0,0l0,0l0,0h0l0,0l0,0v0l0,0l0,0l0,0h0v0l0,0l0,0l0,0h0l0,0l0,0h0v0h0v0l0,0
		h0l0,0v0l0,0l0,0l0,0l0,0l0,0l0,0l0,0h0l0,0l0,0h0l0,0l0,0l0,0l0.1,0l0,0v0l0,0l0,0l0,0l0,0l0,0l0,0l0,0l0,0l0,0l0,0h0v0l0,0l0,0
		l0,0l0,0h0l0.1,0h0l0,0l0,0l0,0l0,0l0,0l0,0l0,0v0l0,0l0,0l0,0l0,0l0,0l0,0v0l0,0l0,0l0,0l0,0l0,0l0,0l0,0h0l0,0h0l0,0h0l0,0l0,0v0
		l0,0v0l0,0l0,0h0l0,0l0,0l0,0l0,0l0,0l0,0l0,0h0l0,0l0,0v0h0l0,0l0,0h0l0,0l0,0l0,0v0l0-0.1l0,0l0,0l0,0l-0.1,0l0,0l0,0l0,0l0,0
		l0,0l0,0l0,0l0,0l0,0l0,0l0,0l0,0h0l-0.1,0l0,0L53.2,58h-0.1l0-0.1l0.1-0.1l0.1-0.1l0.1-0.1l0.1-0.1l0.1-0.1l0.1-0.1l0.1-0.1
		l0.1-0.1l0,0h0l0,0l0,0l0,0l0,0l0,0l0,0l0,0l0,0v0h0v0l0,0l0,0h0l0,0l0,0l0,0l0,0l0,0l0,0l0,0l0,0l0,0h0l0,0v0l0,0l0,0l0,0v0l0,0
		h-0.1l0,0h0l0,0v0l0,0l0,0h0l0,0h0l0,0l0,0l0,0v0h0l0,0v0l0,0l0,0h0v0h0l0,0h0l0,0l0,0L53,56.5l0,0l0,0l0,0l0,0h0l0,0v0l0,0l0,0h0
		l0,0l0,0h0l0,0l0,0.1l0,0l0,0h0l0,0l0,0l0,0l0,0l0,0l0,0l-0.1,0l0,0l0,0v0l0,0v0l0,0l0,0h0l0,0l0,0v0l0,0l0,0v-0.1l0,0l-0.1,0l0,0
		l0,0l0,0l0,0l0,0h0l0,0v0l0,0l0,0l-0.1,0h0l0,0l0,0.1l0,0l0,0v0l0,0l0,0l-0.1,0h0l0,0l0,0l0,0l0,0l-0.1,0h0l0,0l0,0v0h0l0,0l0,0h0
		l0,0l0,0v0l0,0l-0.1,0h0l0,0l0,0l0,0l0,0l0,0.1l0,0l0,0h0v0l0,0v0.1l0,0l0,0h0v0l0,0l0,0l0,0l0,0l0,0l0,0h0l0,0h0l0,0l0,0l0,0h0
		l-0.1,0v0l0,0l0,0l0,0l0,0l0,0l0,0v0l0,0v0l0,0v0l0,0l0,0v0l0,0l0,0l0,0l0,0l0,0l0,0l0,0l0,0l0,0l0,0l0,0l0,0l0,0v0l0,0l0,0l0,0
		l0,0l0,0h0l0,0l0,0l0,0h0v0h0l0,0l0,0l0,0l0,0l0,0l0,0l0,0h0l0,0l0,0l-0.1,0l0,0v0l0,0v0l0,0v0l0,0v0l0,0l0,0l0,0l0,0l0,0l0,0l0,0
		h0l0,0v0l0,0v0h0l0,0v0l0,0v0l0,0l0,0h0l0,0l0,0l0,0l0,0h0l0,0l0,0h0l0,0l0,0l0,0l0,0l0,0l0,0l0,0l0,0l0,0v0l0,0l0,0l0,0h0v0h0l0,0
		l0,0l0,0l0,0l0,0l0,0l0-0.1l0,0l0,0h0l-0.1,0l-0.1,0l0,0l0,0l0,0l0,0l0,0l0,0l0,0l0,0l0,0h0l0,0l0,0l0,0v0l0,0l0,0h0l0,0v0l0,0v0
		l0-0.1l0,0v0h0v0l0,0l0,0l0,0l-0.1,0l0,0l0,0l0,0l0,0h0l0,0h0l0,0l0,0l0,0h0l0,0h0l0,0l0,0l0,0l0-0.1l0,0l0,0l0,0l0,0l0,0h0l0,0h0
		l0,0l0,0l0,0l0,0h0l0,0l0,0l0-0.1l0,0l0,0l0,0h0l0,0v0l0,0l0,0l0,0h0l0,0l0,0l0,0h-0.1l0,0l0,0l-0.1,0h-0.1l0,0l0,0l0,0l0,0l0,0
		l0,0l0,0l0,0h0l0,0h0l0,0l0,0l0,0l0,0.1l0,0l0,0l0,0l0,0h0v0l0,0l0,0v0l0,0l0,0l0,0h0l0,0v0.1l0,0v0l0,0l0,0l0,0l0,0v0l0,0v0l0,0v0
		l0,0.1v0l0,0l0,0v0h0l0,0h0l0,0v0l0,0l0,0v0l0,0.1l0,0.1l0,0.1l0,0.1l0,0.1l0,0.1l0,0l0,0l-0.1,0l0,0L48.3,56l0,0.1l0,0.1l-0.1,0.1
		l0,0.1l0,0.1L48,56.3l0,0.1l-0.1,0l-0.1,0l-0.1,0l-0.1,0l-0.1,0l-0.1,0l-0.1,0l-0.1,0l-0.1,0l-0.1,0l-0.1,0l-0.1,0L47,57l-0.1,0
		l-0.1,0l-0.1,0l-0.1,0l-0.1,0l-0.1,0l-0.1,0l0,0l-0.1,0.1L46,57.5l0,0l0,0l0,0.1l0,0l0,0l0,0v0l0,0l0,0l0,0v0l0,0l0,0h0l0,0h0l0,0
		l0-0.1l0,0l0,0l0,0h0l0,0v0l0,0v0l0,0l0,0l0,0v0l0,0v0l0,0v0l0,0h0v0l0,0.1v0l0,0l0,0h0l0,0l0,0l0,0l0,0.1v0l0,0l0,0l0,0h0l0,0l0,0
		v0.1l0,0l-0.1,0.1l0,0v0l0,0l0,0v0l0,0l0,0l0,0v0l0,0l0,0v0.1l0,0l0,0l-0.1,0l0,0l0,0l0,0l0,0v0l0,0v0l0,0h0l0,0l0,0l0,0v0l0,0l0,0
		l0,0l0,0h-0.1l0,0h-0.1l0,0l0,0l0,0h0l0,0l0,0v0l0,0l0,0l0,0l0,0l0,0v0l0,0l0,0l0-0.1l0,0v0l0,0v0l0,0l0,0h0l0,0l0,0l-0.1-0.1l0,0
		l0,0l0,0l-0.1,0l0,0l0,0l0,0l0,0l0,0h0l0,0l0,0l0,0l0,0l0,0l0,0h0l0,0v0h0l0,0h0l0,0l0,0l0,0l0,0l0,0l-0.1,0.1l0,0l0,0h0l0,0l0,0
		l0,0v0l0.1-0.2l0,0h0l0,0l0,0l0,0v0l0,0l0,0v0l0,0v0l0,0l0,0l0,0l0,0h0.1l0,0h0l0,0l0,0l0,0l0,0l0.1,0l0,0v0h0l0,0l0,0v0l0,0l0,0
		l0,0l0,0v0l0,0v0l0,0v0l0,0l0,0v0l0,0h0l0,0v0l0,0v0l0,0h0v0l0,0l0,0v0l0,0l0,0l0,0h0v0l0,0v0l0,0l0,0l0,0l0,0l-0.1,0l0,0l0,0h0v0
		l0,0.1l0,0L43.4,58l0,0l0,0l0,0v0l0,0v0l0,0l0,0l0,0l0,0l0,0.1l0,0l0,0l0,0h0l0,0l0,0l0,0l-0.1,0.1l0,0l0,0l0,0l0,0l0,0.1v0l0,0
		l0,0v0h0l0,0l0,0l0,0l0,0l0,0v0l0,0.1l0,0v0l0,0v0h0l0,0v0l0,0l0,0l0,0l0.1,0.1l0,0l0,0l0,0l0,0l0,0l0,0v0l0,0h0v0l0,0v0l0,0v0l0,0
		l0,0l0,0v0l0,0l0,0l0,0l0.1,0l0,0l0.1,0.1l0,0l0.1,0.1l0,0.1V60l0,0.1l0,0l0,0l0,0l0,0l0,0l0,0l0,0l0,0l0,0h0l0,0l0,0v0l0,0l0,0
		l0,0l0,0l0,0l0,0l0,0l0,0l0,0l0,0l0,0l0,0l0,0l0,0l0,0l0.1,0l0.1,0.1l0.2,0.1l0.2,0.1l0.2,0.1l0,0l0.1,0.1l0,0v0l0,0v0h0l0,0l0,0
		l0,0l0,0.1l0.1,0l0,0l0,0l0.1,0.1l0,0v0l0,0v0l0,0l0,0l0,0l0,0l0,0l0,0v0l0,0v0l0,0l0,0l0.1,0.1l0,0v0l0,0v0h0l0.1,0.2l0.1,0.1
		l0.1,0.1l0,0l0,0l0,0l0.1,0.1l0,0l0,0l0,0l0.1,0.1l0,0l0,0h0v0l0,0l0,0l0,0l0,0l0,0l0,0l0,0l0,0v0l0,0l0,0l0,0l0,0.1l0,0l0,0l0,0v0
		l0,0l0,0v0l0,0l0,0v0h0l0,0v0l0,0l0,0h0l0,0l0,0l0,0l0,0l0,0v0l0,0l0,0h0l0,0h0l0,0l0,0l0,0v0l0,0l0,0l0,0v0l0,0l0,0l0,0l0,0v0l0,0
		l0,0l0,0l0,0l0,0v0l0,0l0,0l0,0l0,0h0l0,0v0.1l0,0l0,0l0,0l0,0l0,0l0,0l0,0.1l0,0.1l0,0l0.1,0.1l0,0v0l0,0l0,0l0,0l0,0v0l0,0v0l0,0
		v0h0l0,0l0,0v0l0,0l0,0v0h0l0,0v0l0,0v0l0,0l0,0l0,0l0,0.1l0,0l0,0l0,0v0l0,0l0,0v0l0,0l0,0v0l0,0l0,0l0,0l0.1,0.1l0,0l0,0l0,0l0,0
		l0,0v0h0l0,0l0,0.1l0,0l0,0l0,0l0,0l0,0l0,0l0,0l0,0v0l0,0v0l0,0l0,0l0,0v0l0,0v0l0,0l0,0l0,0l0,0l0,0h-0.1l0,0l0,0l0,0l0,0l0,0
		l0,0l0.1,0.1l0,0l0,0l0,0l0,0v0h0l0,0v0l0,0l0,0v0l0,0l0,0l0,0l0,0l0,0l0,0l0,0l0,0l0,0l0,0v0l0-0.1l0,0l0,0v0l0,0v0l0,0l0,0l0,0.1
		l0,0l0,0l0,0l0,0h0l0,0l0,0l0,0v0l0,0v0l0,0l0,0v0h0l0.1,0l0.1,0l0,0.1l0,0l0,0v0l0,0l0,0l0,0l0,0l0,0v0l0,0.1l0,0l0,0v0l0,0l0,0.1
		l0,0l0.1,0.1l0,0l0,0v0l0,0.1l0,0v0l0,0l0.1,0.1l0.1,0.1l0,0h0l0,0l0,0.1l0,0.1l0,0v0.1l0,0.1l0,0l0,0v0l0,0l0,0l0,0l0,0v0l0,0l0,0
		l0,0l0,0l0,0v0h0l0,0l0,0l0,0l0,0v0l0,0l0,0h0l0,0v0h0l0,0l0,0v0l0,0l0,0.1l0,0v0l0,0v0h0l0,0l0,0v0l0,0l0,0l0,0.1l0,0l0,0l0,0
		l0.1,0l0,0l0,0l0,0v0l0,0l0,0l0,0l0,0l0,0v0h0l0,0l0,0v0h0l0,0h0l0,0l0,0l0,0l0,0l0,0l0,0l0,0l0,0l0,0l0,0l0,0l0,0v0l0,0v0l0,0l0,0
		l0,0h0l0,0l0,0v0l0,0h0l0,0h0v0l0,0l0,0l0,0l0.1,0l0,0l0,0l0,0l0.1,0l0,0l0,0v0l0,0l0,0l0,0l0,0l0,0.1l0,0l0,0l0,0l0.1,0l0,0l0,0
		l0,0v0h-0.1l0,0l0,0l0,0l0,0l0,0l0,0l0,0l0,0l0,0h0v0l0,0l0,0l0,0h0l0,0l0,0l0,0h0l0,0l0.2,0.1l0.1,0l0,0l0,0l0.2,0.1l0,0l0,0l0,0
		l0,0l0,0l0,0v0l0,0l0.1,0l0,0l0,0h0.1l0,0l0,0l0,0l0,0l0,0l0.1,0l0,0v0l0,0l0,0l0,0l0.1,0.1l0.1,0.1l0,0l0.1,0l0,0h0l0,0l0,0v0
		l0.1,0l0.1,0l0.1,0l0.1,0l0.1,0h0l0,0l0,0l0,0l0,0l0,0l0,0l0,0l0,0h0.1l0,0l0,0l0,0L51,71l0.1,0.1l0,0l0.2,0l0.1,0l0,0l0,0l0,0l0,0
		h0l0,0l0,0h0l0,0l0.1,0.1l0,0v0l0,0l0,0l0,0l0,0l0,0l0,0l0,0l0,0v0h0l0.1,0l0,0l0,0l0.1,0l0,0l0,0.1l0,0l0,0l0.2,0h0l0,0l0,0l0,0
		l0,0l0,0h0l0,0l0,0l0,0l0,0l0,0l0,0h0v0l0,0l0,0l0,0l0,0.1v0l0,0l0,0l0,0l0,0v0l0,0l0,0l0,0l0,0l0,0l0.1,0l0,0l0,0l0,0l0,0l0.1,0.1
		h0l0.1,0l0,0l0,0l0,0l0,0l0,0l0,0l0,0l0,0l0,0l0.1,0.1h0l0,0l0,0l0,0v0h0l0.1,0.1l0,0l0,0h0l0,0l0.1,0.1l0.1,0l0,0l0,0l0,0l0.1,0
		h0.1l0,0l0.1,0h0l0,0h0l0,0l0-0.1l0,0l0,0l0,0l0.1-0.1l0,0l0,0l0,0l0,0v0l0,0l0,0l0,0l0,0l0,0l0,0l0,0l0,0l0,0l0,0l0.1-0.1l0,0
		v-0.1l0,0l0,0l0,0l0,0l0,0h0l0,0l0,0l0-0.1l0,0h0l0,0l0,0l0.1,0l0,0l0,0h0l0,0l0,0v-0.1h0v0l0,0l0,0l0-0.1l0.1-0.1l0,0l0-0.1l0,0
		l0,0h0l0,0l0.1,0l0,0l0,0l0,0l0,0v-0.1l0,0l0,0l0,0l0.1,0l0,0l0,0l0,0l0,0l0,0l0,0l0,0l0,0h0l0,0h-0.1l0,0l0,0l0,0l0-0.1l0-0.1
		l0-0.1l0-0.1l0-0.1l0,0l0,0l0,0l0.1-0.1v0l0,0v0l0,0h0l0,0h0v0l0,0l0,0l0,0l0,0l0,0l0,0h0l0,0v0l0,0l0,0l0,0l-0.1,0l0,0l-0.1-0.1
		h-0.1l0,0l0,0l0,0l0,0v0l0-0.1v0l0,0l0,0l0.1,0l0,0l0,0l0-0.1l0,0h0l0,0h0v-0.1h0l0,0h0l0,0l0,0l0.1,0l0,0v0l0,0l0,0v-0.1l0,0l0,0
		l0,0l0.1,0l0,0l0,0l0-0.1v0l0,0l0,0l-0.1,0l0,0l0,0v-0.1l0,0l0,0v-0.1l0,0l-0.1,0l0,0l0,0h0.1l0,0v0l0,0l0,0v0l0,0l0,0l0,0v-0.1
		l0-0.2l0-0.1l0,0l0-0.1l0-0.1v-0.1l0,0l0,0l0,0h0l0,0l0,0l0,0l0.1,0l0,0l0,0l0,0l0,0l0,0v0l0,0l0,0l0,0l0,0L55.1,66.7L55.1,66.7
		L55.1,66.7L55.1,66.7L55.1,66.7L55.1,66.7z"/>
	<path class="st9" d="M58.8,52.7c0.5,0.5,1,1.1,1.4,1.7c-2.1-1.9-2.7-3.1-5.7-4.4c-1-0.4-2-0.8-3.1-0.9c-2.6-0.3-5.2-0.1-7.7,0.9
		c-1.4,0.5-2.8,1.3-3.9,2.2c-0.6,0.5-1.2,1.1-1.7,1.7c-0.4,0.5-0.8,1-1.1,1.5c-0.4,0.6-0.7,1.2-1,1.9c-0.1,0.3-0.3,0.7-0.4,1
		c-0.2,0.7-0.3,1.5-0.5,2.2c-0.3,1.4-0.3,2.9-0.1,4.3c0.6,3.4,0.6,3.8,2.3,6.9c0.4,0.8,1,1.6,1.6,2.3c0,0,0,0.1,0,0
		c0,0-0.1-0.2-0.2-0.2c-0.1-0.1-0.1-0.1-0.2-0.2c0,0.2,0,0.3,0.1,0.4c0.1,0.1,0.2,0.2,0.3,0.3c0.2,0.2,0.4,0.4,0.6,0.5
		c0.2,0.2,0.4,0.3,0.5,0.5c0.1,0.1,0.2,0.1,0.3,0.1c-0.2-0.2-0.4-0.4-0.6-0.6c0,0-0.1-0.1-0.1-0.1l-0.1-0.1
		c-0.1-0.1-0.2-0.2-0.3-0.3c-0.1-0.1,0.8,0.6,1,0.8c0.4,0.3,0.8,0.7,1.2,1c1.3,0.9,1.6,1,2.9,1.5c1.1,0.4,2.7,0.7,3.9,0.7
		c1.9,0.1,3.9-0.1,5.8-0.7c1.7-0.6,2.5-0.9,4.1-2.4c0.8-0.7,1.4-1.6,2-2.4s1.3-1.8,1.7-2.8c0.5-1.2,1-3.2,1.1-4.6
		c0.1-1.5,0.2-3.9-0.1-5.3C62.5,57.3,60.9,54.4,58.8,52.7L58.8,52.7z M43.9,76.7c-3.3-1.8-5.6-3.8-7.1-7.5c-0.6-1.5-1.3-4.1-1.2-5.7
		c0.1-0.7,0.2-2.9,0.4-3.6c0.6-2.2,0.6-2.6,2.1-4.6c0.9-1.1,1.9-1.9,2.9-3c0.7-0.6,1.4-1,2.2-1.4c1.4-0.6,1-0.3,2.3-0.7
		c1.2-0.3,2.1-0.5,3.3-0.5c0.9-0.1,1.1-0.2,2.2-0.1c3.6,0.6,3.8,1,6.7,3c2.4,1.7,3.9,5.1,4.8,7.9c0.8,3.1,0,6.2-1.2,9
		c-0.5,1.1-0.3,1.1,0.2,0.2c0.2-0.4,0.7-1.5,0.7-1.5c0,0,0.2-0.2,0,0.4c-0.2,0.5-0.8,1.6-0.9,1.9c-2.2,4.5-6.1,7.2-11.4,7.4
		c-1.4,0-3.2,0-4.7-0.4c-0.3-0.1-0.6-0.2-1-0.4C44,77,44,77,44.1,77c0.2,0,0.3,0.1,0.5,0.2c0.6,0.3,1.2,0.3,0.7,0.2"/>
</g>
</svg>
