<?xml version="1.0" encoding="utf-8"?>
<!-- Generator: Adobe Illustrator 25.1.0, SVG Export Plug-In . SVG Version: 6.00 Build 0)  -->
<svg version="1.1" id="Livello_1" xmlns="http://www.w3.org/2000/svg" xmlns:xlink="http://www.w3.org/1999/xlink" x="0px" y="0px"
	 viewBox="0 0 141.7 141.7" style="enable-background:new 0 0 141.7 141.7;" xml:space="preserve">
<style type="text/css">
	.st0{fill:#C62114;}
</style>
<g id="Livello_103">
	<path class="st0" d="M124.8,70.9c0,3-2.4,5.4-5.4,5.4h0H76.3v43.2c0,3-2.4,5.4-5.4,5.4c-3,0-5.4-2.4-5.4-5.4V76.3H22.3
		c-3,0-5.4-2.4-5.4-5.4c0-3,2.4-5.4,5.4-5.4h43.2V22.3c0-3,2.4-5.4,5.4-5.4s5.4,2.4,5.4,5.4v43.2h43.2
		C122.4,65.5,124.8,67.9,124.8,70.9 M141,70.9c0-38.7-31.4-70.2-70.2-70.2S0.7,32.1,0.7,70.9S32.1,141,70.9,141S141,109.6,141,70.9"
		/>
</g>
<g id="Livello_1_1_">
</g>
</svg>
