<svg id="Capa_1" data-name="Capa 1" xmlns="http://www.w3.org/2000/svg" viewBox="0 0 523.28 768"><defs><style>.cls-1{fill:none;stroke:#000;stroke-linecap:round;stroke-linejoin:round;stroke-width:20px;}</style></defs><path class="cls-1" d="M851.64,844.9V944a30,30,0,0,1-30,30H413.87c-35.47,0-65-28.22-65.5-63.69a64.55,64.55,0,0,1,63.68-65.4H851.64Z" transform="translate(-338.36 -216)"/><path class="cls-1" d="M477.46,226V844.9H412.91a64.55,64.55,0,0,0-64.55,64.55V290.55A64.55,64.55,0,0,1,412.91,226Z" transform="translate(-338.36 -216)"/><path class="cls-1" d="M477.46,226H821.64a30,30,0,0,1,30,30h0V844.9" transform="translate(-338.36 -216)"/><line class="cls-1" x1="186.4" y1="75.94" x2="340.48" y2="75.94"/><line class="cls-1" x1="186.4" y1="144.34" x2="412.48" y2="144.34"/><line class="cls-1" x1="186.4" y1="212.74" x2="412.48" y2="212.74"/></svg>