<svg id="Capa_1" data-name="Capa 1" xmlns="http://www.w3.org/2000/svg" viewBox="0 0 968.94 411.99"><defs><style>.cls-1,.cls-3{fill:#303030;}.cls-1,.cls-2{fill-rule:evenodd;}</style></defs><polygon class="cls-1" points="613.54 64.25 590.47 283.23 542.06 283.23 565.13 64.25 613.54 64.25"/><path class="cls-1" d="M646,458.27,626,646.35c-.62,7.21,3.29,10.92,12,10.92l-2.07,20H615.3c-11.74,0-21.21-2.67-28.22-7.82-7-5.36-9.89-13-9.06-23.08l7.21-68.6H539.49L529,677.25H480.57l21.43-199H488.2l2.26-20h61.6l-10.51,99.5h45.53l10.51-99.5Z" transform="translate(-115.48 -394.02)"/><path class="cls-1" d="M466.15,458.27l-2.06,20H440.81c-11.94,0-20.39,1.24-25.13,3.71-9.27,4.94-13.8,11.53-13.8,19.57,0,7.83,3.71,15.45,10.92,23.28l44.29,47.59c10.92,11.33,16.27,24.72,16.27,40,0,20.4-9.47,36.88-28.42,49-16.28,10.51-36.88,15.86-62.22,15.86H347.08l2.47-20h31.11q21.33,0,32.76-8c7.82-5.57,11.53-12.57,11.53-21,0-8.85-3.91-17.92-11.95-26.78l-49.64-56.65a40.39,40.39,0,0,1-10.51-27.4c0-18.33,8.86-33.17,26.78-44.5,14.83-9.88,33.17-14.62,54.8-14.62Z" transform="translate(-115.48 -394.02)"/><polygon class="cls-1" points="228.31 64.25 205.23 283.23 156.82 283.23 179.89 64.25 228.31 64.25"/><path class="cls-1" d="M275,504.21l-13.8,126.9c-1.45,13.18-8.24,23.9-20.4,32.34-13.18,9.27-29.46,13.8-49.24,13.8H175.68c-19.36,0-34.81-4.53-45.73-13.8C119,655,114.29,644.29,115.73,631.11l13.39-126.9c1.45-13,8.66-23.9,21.43-32.76,13-8.86,29-13.18,48.62-13.18h15.45c19.57,0,34.81,4.32,45.94,13.18s15.86,19.78,14.42,32.76Zm-47.59-5.57a17.2,17.2,0,0,0-5.77-14.42c-4.32-4.12-9.89-6-16.68-6a28.64,28.64,0,0,0-18.13,6c-5.15,4.12-8.24,8.86-8.86,14.42L163.12,637.08c-.83,5.56,1,10.3,5.56,14.42s10.09,6.18,17.1,6.18a30.75,30.75,0,0,0,18.54-6A20.86,20.86,0,0,0,213,637.05Z" transform="translate(-115.48 -394.02)"/><path class="cls-1" d="M351.41,792.62c-8.45-2.27-15-3.92-19.57-5a48.47,48.47,0,0,0-9.27-1.44,5.55,5.55,0,0,0-3.51.83c-.61.41-.82,1.23-.82,2.47,0,2.47,1.44,4.32,4.53,6a29,29,0,0,0,12.16,2.27,31.6,31.6,0,0,0,9.27-1.24,22.07,22.07,0,0,0,7.21-3.91Zm10.5,2.27A30.55,30.55,0,0,1,350,803.13,39.33,39.33,0,0,1,335,806c-8,0-14.42-1.44-19.16-4.53s-7-7-7-12c0-3.71,1-6.59,3.3-8.45s5.77-2.88,10.3-2.88c3.71,0,11.74,1.65,23.9,5.15,4.32,1,7.62,2.06,10.09,2.68a22.39,22.39,0,0,0,2.89-5.36,17.89,17.89,0,0,0,1-5.56,11.45,11.45,0,0,0-2.27-7q-1.86-3.09-9.89-7.41c-6-3.5-10.09-6.8-12.36-9.68a17.66,17.66,0,0,1-3.09-10.51,22.71,22.71,0,0,1,8.45-18.13c5.56-4.74,12.77-7,21.63-7,5.56,0,10.3,1.23,13.8,3.5,3.71,2.47,5.36,5.56,5.36,9.06,0,2.06-.42,3.71-1.65,4.74a5.75,5.75,0,0,1-4.53,1.85h-.83c-.41-3.5-1.65-6-3.91-7.62s-5.56-2.47-9.68-2.47q-7.73,0-12.36,3.71a11.43,11.43,0,0,0-4.74,9.68c0,4.53,3.5,8.65,10.5,12.57a6,6,0,0,1,2.06,1.23c5.36,2.89,9.27,6.18,11.54,9.69A20.69,20.69,0,0,1,372,773.46a23.49,23.49,0,0,1-1.24,7.62,25.58,25.58,0,0,1-3.71,7l3.09.61,3.71.62-1.85,7c-2.27-.21-4.12-.41-5.77-.62-1.44-.21-2.88-.62-4.33-.82Zm9.89,1.44,2.06-7a28.24,28.24,0,0,0,6-.82A34.08,34.08,0,0,0,385.4,786c-.21-.21-.21-.42-.21-.83v-1c0-3.5,1.86-10.5,5.36-21a45.37,45.37,0,0,0,1.65-4.53,22.56,22.56,0,0,0,1.23-3.92c1.86-5.35,3.71-8.24,5.36-8.24a16.4,16.4,0,0,1,7,1.45c2.27.82,3.3,1.85,3.3,2.67a28.82,28.82,0,0,1-2.47,5.77q-2.47,5.25-4.33,9.89a127.22,127.22,0,0,0-4.53,12,23.64,23.64,0,0,0-1.24,6,4.36,4.36,0,0,0,.62,2.47,3.25,3.25,0,0,0,2.47.83c2.27,0,4.95-1.86,8-5.77a68.35,68.35,0,0,0,8.44-15.24,73,73,0,0,0,4.33-12.36c1.44-4.74,3.3-7.21,5.77-7.21a18,18,0,0,1,6,1c1.65.82,2.47,1.64,2.47,2.67a44.24,44.24,0,0,1-2.26,6q-2.48,5.25-4.33,9.89c-1.65,4.32-2.88,8-3.71,10.91a29.35,29.35,0,0,0-1.23,7.21,4.77,4.77,0,0,0,1.44,3.71c.82.62,2.68,1,5.36,1l-2.06,7H427c-4.94,0-8.44-.62-10.3-1.65-1.85-1.24-2.88-3.3-2.88-6.18a21.13,21.13,0,0,1,.62-4.33c.41-1.65,1-3.91,1.85-6.8-5.15,7.63-9.27,12.78-12.15,15.25a14.94,14.94,0,0,1-9.48,3.71,13.94,13.94,0,0,1-5.56-1,6.47,6.47,0,0,1-3.09-3.5,17.61,17.61,0,0,1-6.18,3.09,29.84,29.84,0,0,1-8,1.44Zm76.64-13a7.92,7.92,0,0,1,3.5,2.26,16.41,16.41,0,0,1,2.27,3.71,12,12,0,0,0,7.62-4.74c1.85-2.67,2.68-6,2.68-10.09a45.5,45.5,0,0,0-.42-4.94c-.41-1.65-.82-3.71-1.44-5.77a52.33,52.33,0,0,1-5.77,9.47,75.44,75.44,0,0,1-8.44,10.1Zm-20.4,13,1.86-7q4.94-.62,13-9.27a142.12,142.12,0,0,0,16.68-23.48,3.52,3.52,0,0,1-1.44-2.06,6.68,6.68,0,0,1-.62-2.89,9.56,9.56,0,0,1,3.09-7,10.75,10.75,0,0,1,7.42-2.89c1.85,0,3.29.42,4.12,1.45a4.5,4.5,0,0,1,1.65,3.71,8.69,8.69,0,0,1-1.24,4.32,25.11,25.11,0,0,1-3.91,4.33,53.46,53.46,0,0,1,6.59,9.47,21.9,21.9,0,0,1,1.85,8.66,21.26,21.26,0,0,1-1.44,8,16.26,16.26,0,0,1-3.71,6.39,8.13,8.13,0,0,0,2.68,1,20.94,20.94,0,0,0,3.71.2h1l-2.06,7h-1.44a52,52,0,0,1-5.57-.41,26.18,26.18,0,0,1-5.15-1.86,35.17,35.17,0,0,1-6.18,1.86,25.37,25.37,0,0,1-5.35.61A22.71,22.71,0,0,1,446,795.3a13.43,13.43,0,0,1-6-3.71,24.59,24.59,0,0,1-5.56,3.09,22.79,22.79,0,0,1-6.39,1.65Zm61.39-5a18.64,18.64,0,0,1-5.35,3.51,18.25,18.25,0,0,1-6.8,1.44l2.06-7A11.81,11.81,0,0,0,488,785c2.27-2.89,4.53-7.63,6.8-14.63l10.71-33.58c.83-2.47,1.65-5.56,2.68-9.06,1.44-6.18,4.33-9.27,8.24-9.27a31,31,0,0,1,5.77.41,2.23,2.23,0,0,1,1.44,2.06c0,.82-.82,2.88-2.06,6.18-.62,1.44-1,2.47-1.24,3.09l-16.89,42.64q8-13,14.83-19c4.33-4.12,8.86-6.18,13-6.18a6.9,6.9,0,0,1,5.15,1.85,6.19,6.19,0,0,1,1.86,4.74q0,3.71-6.18,18.54l-1.24,3.3c-.82,2.06-1.44,3.91-2.06,5.77a19.33,19.33,0,0,0-.62,3.7,2.62,2.62,0,0,0,1.44,2.68c1,.62,2.89.83,5.77,1l-2.06,7h-1.23c-5.57,0-9.69-.62-12.36-2.27a7.4,7.4,0,0,1-3.92-7,23.29,23.29,0,0,1,1.44-7c1-2.88,2.48-6.8,4.54-11.53l.41-1c1.85-3.92,2.68-6.39,2.68-7a1.55,1.55,0,0,0-1.17-1.85,1.61,1.61,0,0,0-.69,0c-2.06,0-5.15,2.68-9.27,7.83a82.85,82.85,0,0,0-11.33,18.74c-.62,1.65-1.23,3.3-2.06,5.56-1.44,3.92-4.32,5.77-8.44,5.77-1.45,0-2.27,0-2.89-.41a1.13,1.13,0,0,1-.82-1.23,4.21,4.21,0,0,1,.2-1.45c.3-.7.63-1.39,1-2.06Zm43.88,5,2.06-7c4.12,0,7.63-2.26,10.3-6.59,2.89-4.53,5.77-11.54,8.24-21.63.42-1.65.83-3.5,1.24-6,1-5.15,4.53-7.83,10.3-7.83a6.74,6.74,0,0,1,3.09.62,2.09,2.09,0,0,1,1,1.64q0,1.55-1.85,6.18a49.8,49.8,0,0,0-2.48,6.8l-4.94,15-.21.62c-1.23,3.71-1.85,6-1.85,7a3.25,3.25,0,0,0,1.44,3.09c.83.62,2.89.83,6,1l-2.06,7h-1.86a24.55,24.55,0,0,1-9.89-1.65,7.36,7.36,0,0,1-3.91-5.56,26.15,26.15,0,0,1-6.59,5.35,21.08,21.08,0,0,1-8,1.86Zm35-64.9A6.89,6.89,0,0,1,563.6,730a7,7,0,0,1-1.65-4.74,9.34,9.34,0,0,1,2.47-6.59,8,8,0,0,1,5.77-2.68,6.08,6.08,0,0,1,4.53,1.86,6.48,6.48,0,0,1,1.85,4.74A9.17,9.17,0,0,1,574.1,729a7.49,7.49,0,0,1-5.77,2.47Zm75.2,15a17.57,17.57,0,0,1,4.94,1.24,19.52,19.52,0,0,1,4.53,2.47,35.23,35.23,0,0,0,8.66-8.86,15.32,15.32,0,0,0,3.09-8.65c0-2.68-.62-4.74-1.86-6a6.8,6.8,0,0,0-5.35-2.27,12.42,12.42,0,0,0-5.15,1.24,19.54,19.54,0,0,0-5.15,3.09c-.42,2.88-1,5.76-1.65,8.65-.62,3.09-1.24,6-2.06,9.06Zm-10.72-1.85A49.73,49.73,0,0,0,624,755.13a104.43,104.43,0,0,0-11.75,24.92,23.92,23.92,0,0,0-1.23,6.8,3,3,0,0,0,.62,2.06,2,2,0,0,0,1.64.62c2.68,0,5.57-3.92,8.86-11.54,3.5-7.83,7-19,10.71-33.37Zm-2.47,39.76c1.86.41,3.3.82,4.74,1a24.05,24.05,0,0,0,3.5.41,12.9,12.9,0,0,0,10.51-4.94c2.88-3.3,4.12-7.42,4.12-12.36a15.48,15.48,0,0,0-.82-5.36,13.86,13.86,0,0,0-2.48-4.94,10.81,10.81,0,0,1-2.47.41H643.1c-.83,0-1.65-.21-2.68-.21a148.77,148.77,0,0,1-4.54,14.42,66.62,66.62,0,0,1-5.56,11.54Zm-4.53,8a21.44,21.44,0,0,1-6.8,6.8,14.51,14.51,0,0,1-7.83,2.47c-3.29,0-5.56-1-7.21-3.29-1.85-2.27-2.67-5.36-2.67-9.69,0-4.53,1.23-9.88,3.5-15.86A95.57,95.57,0,0,1,625,741.12a57.49,57.49,0,0,1,10.91-9.07c0-.82.21-2.06.21-3.5.62-5.77,1.44-9.27,2.47-10.3a20.68,20.68,0,0,1,8.45-2.88,1.84,1.84,0,0,1,1.44.61,2.39,2.39,0,0,1,.62,1.65,2.14,2.14,0,0,1-.21,1,3.75,3.75,0,0,1-.2,1.24,28.93,28.93,0,0,1,6.59-3.5,26.07,26.07,0,0,1,6.8-1,13.16,13.16,0,0,1,10.5,4.53c2.68,2.88,4.12,6.8,4.12,11.74a22.39,22.39,0,0,1-4.73,13.8c-3.3,4.12-7.83,7.42-13.81,10.1a29.2,29.2,0,0,1,5,8.86,22.08,22.08,0,0,1,1.85,8.85,23.15,23.15,0,0,1-6.59,16.48,22.08,22.08,0,0,1-16.27,6.8,25.19,25.19,0,0,1-8-1,36.23,36.23,0,0,1-8.24-3.09ZM714,758a9.38,9.38,0,0,0-2.88-1.44,6.38,6.38,0,0,0-2.68-.62c-2.06,0-4.33.82-7,2.68a31.13,31.13,0,0,0-7.63,7.21,32.35,32.35,0,0,0-5.15,8.86,19.34,19.34,0,0,0-2.06,8.24,6.14,6.14,0,0,0,1,3.7,2.85,2.85,0,0,0,2.68,1.24c3.3,0,7-2.68,10.92-7.62,4.12-5,8.24-12.36,12.77-22.25Zm-5.35,19.57c-3.71,6.59-7.21,11.33-10.92,14.42a17.07,17.07,0,0,1-11.54,4.53,12.93,12.93,0,0,1-5.15-.82,6.15,6.15,0,0,1-3.5-2.47,24,24,0,0,1-5.77,2.26,42.91,42.91,0,0,1-7.83.83l2.06-7a20.28,20.28,0,0,0,5.15-.62,22.41,22.41,0,0,0,3.92-1.64c0-.62-.21-1.45-.21-2.27a10.23,10.23,0,0,1-.21-2.47,28.23,28.23,0,0,1,1.86-9.48,47,47,0,0,1,5.35-9.89,39.74,39.74,0,0,1,11.34-11.33,23.4,23.4,0,0,1,13-3.91,16,16,0,0,1,5.77,1,12.7,12.7,0,0,1,4.53,3.09l.83-2.27c.41-1.44.82-2.47,1.23-2.67a3.43,3.43,0,0,1,2.06-.62,14.41,14.41,0,0,1,6.18,1.23c1.86.83,2.68,1.65,2.68,2.89a51.43,51.43,0,0,1-2.26,4.74c-1.45,2.88-2.68,5.76-3.92,8.24-2.26,5.35-3.91,9.68-5.15,13.39a36,36,0,0,0-1.65,8.65,3.24,3.24,0,0,0,1.24,2.88,25.11,25.11,0,0,0,6,1.24l-2.06,6.8h-1c-5.35,0-9.06-.41-11.33-1.65a6,6,0,0,1-3.29-5.77,20.94,20.94,0,0,1,.62-4.53,70,70,0,0,1,2.06-6.8Zm12.77,18.75,2.06-7q6.48-.93,11.74-8.65t12.36-26.57a8,8,0,0,1-2.47-6,10.14,10.14,0,0,1,2.06-6.18,6.53,6.53,0,0,1,5.15-2.47,6.4,6.4,0,0,1,4.53,1.65,5.76,5.76,0,0,1,1.65,4.12c0,.82-.21,1.65-.21,2.26-.2.83-.61,1.45-.82,2.27,1.65,1,3.91,2.27,6.8,3.91,4.94,2.68,7.62,5.36,7.62,8,0,2.26-1.44,6.38-4.12,12.15-2.88,5.77-4.12,9.68-4.12,11.74a2.5,2.5,0,0,0,1.24,2.48c1,.61,3.5,1,7.41,1.44l-2.06,6.8H768.8c-6.18,0-10.71-.62-13.39-2.06a7.38,7.38,0,0,1-4.12-7c0-2.88,1.24-7,3.91-12.77,2.68-5.56,3.92-9.27,3.92-10.71a3.15,3.15,0,0,0-1.44-2.47,20.34,20.34,0,0,0-4.54-3.09c-4.53,13.39-9.27,23.07-14.21,28.84s-10.71,8.86-17.51,9.27Z" transform="translate(-115.48 -394.02)"/><path class="cls-1" d="M784,672.72a.59.59,0,0,0,.41.21,3.33,3.33,0,0,1,2.68,1.23c.41.83,0,1.45,0,2.48,0,.2-.21.41-.21.61a1.36,1.36,0,0,1,1.24,0,3.63,3.63,0,0,1,1.64,1.86c.21.2.21.62.21,1,.21,0,.41,0,.41.41,1.65-.62,2.68,1.44,1.44,1.85a4.25,4.25,0,0,1-.61,3.09,2,2,0,0,1,1.23,1.86,5.11,5.11,0,0,1,6.61,2.89,6.17,6.17,0,0,1,.19.61s1.44.21,1.85,1a10.11,10.11,0,0,1,4.54,2.06c.61.41.2.41.82.62,1.24-.83,2.68-.83,4.74.2,1.23-.41,2.06-.2,2.26,1.24a2.68,2.68,0,0,1-1.23,3.3c-1.65.41-2.27-.62-2.68-1.86a1.92,1.92,0,0,1-2.27-.41c.62,1.44-1.44,4.33-3.09,2.89L803,698.68c0,.82,1.85,1.85.62,3.3-1.24.61-2.06-.21-3.09-.83-.21-.2-2.48.83-3.3-1.85a4.76,4.76,0,0,1-2.68-3.3l-1.65-1.65c-1.85-1.85-4.32-3.09-5.76-5.56a5.5,5.5,0,0,1-2.27-2.06,11.9,11.9,0,0,1-2.89-3.5c-.61.2-3.09-3.5-3.5-4.12-1.44-2.06-3.71-3.5-4.74-6A20.69,20.69,0,0,1,769.4,667c-2.68-1-3.09-2.67-4.33-4.94a23.25,23.25,0,0,0-2.06-2.68,12.36,12.36,0,0,1-2.88-4.32s-6.18-8.86-7-10.72c-1-2.47-2.47-6-2.47-6.18-1.44-2.88-1.23-3.91-2.47-6.38-1.24-1.24-2.27-3.92-1.85-5.57l-2.48-6.79a4.31,4.31,0,0,1,2.27-5.36v-.21c-1.24-.82-1.85-2.06-1.65-4.32-1-1-1.23-1.86.21-2.68.82-1,1.85-1,3.09-.21,1.23,1.24.82,2.27-.21,3.09a2.19,2.19,0,0,1,.62,2.27c.41-.82,2.06-.82,3.09-.21,1.65-5.15,7-.2,3.5,2.68,1,.83.62,2.27,0,3.09a1.42,1.42,0,0,1,1.86,1.65c1.23.62,1.85,1.65,1,3.5,2.06.41,2.67,1.86,2.06,3.92.41.2.41.41.2,1,2.27.2,3.09,4.53,2.47,6a.91.91,0,0,1,.19,1.29.94.94,0,0,1-.6.36c.62.41,1.44.62,1,1.65a23.31,23.31,0,0,0,2.27,2.06,5.92,5.92,0,0,1,1.65,4.73c.2,0,.2.21.41.21a2.52,2.52,0,0,1,1.44,2.88h0c1.65-.61,2.68.83,3.91,1.65.83.62,1.24,1.45.42,2.06-.21.21.41.62-.42,1.45a3.57,3.57,0,0,1-.61,2.88c3.5.41,4.12,3.71,3.5,6.59.82.62,1.85,1.24,1.65,2.47.61.62,2.88,2.06,2.26,3.09,1.44-.2,2.68.62,2.47,2.06.62.42.83.62.83,1.24A1.51,1.51,0,0,1,784,672s0,.06,0,.09C784,672.31,784.2,672.52,784,672.72Z" transform="translate(-115.48 -394.02)"/><path class="cls-1" d="M1063.78,650.06v-.41a3.26,3.26,0,0,1,.21-3.09c.41-.83,1.24-.62,2.06-.83a.78.78,0,0,1,.62-.2,1.55,1.55,0,0,1-.41-1,3.8,3.8,0,0,1,1-2.27c.2-.2.61-.62.82-.62,0-.2,0-.41.21-.41-1.24-1.44.2-3.09,1.23-2.26a6.4,6.4,0,0,1,2.89-.62,2.62,2.62,0,0,1,1.44-1.86,5.12,5.12,0,0,1,0-7.23,5.34,5.34,0,0,1,.44-.39c.21,0-.21-1.23.21-2.06a12.83,12.83,0,0,1,0-4.94c.41-.83.41-.41.41-1a4.45,4.45,0,0,1-1.65-4.33c-.82-1-1-2.06.41-2.68.83-1,2.06-1,3.3-.2,1,1.23.41,2.47-.62,3.29a1.87,1.87,0,0,1,.68,2c.82-1,4.53-.41,3.71,1.65l-.62,1.86c.82-.42,1-2.68,2.88-1.86,1,.83.62,1.86.42,2.89-.21.41,1.64,2.06-.42,3.91a5.62,5.62,0,0,1-2.06,3.91l-.82,2.06c-.82,2.48-1,5.36-2.68,7.42a6.13,6.13,0,0,1-1.23,2.88,10.73,10.73,0,0,1-1.86,4.13c.41.41-2.06,4.12-2.47,4.73-1.24,2.27-1.86,5-3.71,6.8a21.64,21.64,0,0,1-3.71,6.39c-.2,2.88-1.23,3.91-3.09,6a20.14,20.14,0,0,1-1.65,2.89,12.61,12.61,0,0,1-2.67,4.53s-6,9.06-7.21,10.5a34.49,34.49,0,0,1-4.54,4.74c-2.06,2.48-3.09,2.68-4.94,4.74a7.69,7.69,0,0,1-4.33,4.12l-5.15,4.74a4.71,4.71,0,0,1-6.18.21h0a4.44,4.44,0,0,1-3.29,3.29c-.62,1.24-1.24,1.86-2.48.83a2.41,2.41,0,0,1-1.64-2.89c.82-1.44,1.85-1.44,3.09-.82.2-.83.82-1.24,1.85-1.44-1-.21-1.65-1.86-1.44-2.89-5.36.62-3.09-6.38,1-4.32.41-1.24,1.85-1.45,2.88-1.24-.2,0-1-1.65.83-2.27,0-1.44.61-2.26,2.68-2.26-.21-2.27.82-3.3,2.67-3.51a1,1,0,0,1,1-.61c-.82-2.06,2.89-4.54,4.54-4.74a1,1,0,0,1,1.64-.21c0-.82,0-1.65,1-1.44a16.88,16.88,0,0,0,1-3.09,6.52,6.52,0,0,1,3.71-3.3v-.41c.21-1.44.83-2.26,2.06-2.47h0c-1.23-1.24-.41-2.88,0-4.33.21-.82.83-1.85,1.86-1.23.2.2.41-.62,1.44-.21a3.49,3.49,0,0,1,2.88-.41c-1-3.3,1.86-5.36,4.74-6,0-1,.21-2.27,1.44-2.27.41-1,.83-3.71,2.06-3.5a1.91,1.91,0,0,1,.25-2.7,1.74,1.74,0,0,1,.75-.39c0-.62.21-1,.62-1a1.57,1.57,0,0,1,1-2,1.11,1.11,0,0,1,.26-.07.73.73,0,0,1,.61-.21Z" transform="translate(-115.48 -394.02)"/><path class="cls-1" d="M1002.39,709.8a.2.2,0,0,1-.19.21h0a1.55,1.55,0,0,1-1,.41.78.78,0,0,0,.62-.2c.2-.21.41-.21.61-.42Z" transform="translate(-115.48 -394.02)"/><path class="cls-1" d="M938.74,722.16h0a.2.2,0,0,1,.2-.2h0a.2.2,0,0,0-.2.2Z" transform="translate(-115.48 -394.02)"/><path class="cls-1" d="M939.77,717.22c.62,0,1,1.24,1.23,1.44a.93.93,0,0,1,.85-1H942c-.2-.2.42-.62.62-.41.41-.62,1.44,0,1.65.82a1.68,1.68,0,0,1,.82-.41.64.64,0,0,1,.4-.81h0a1,1,0,0,1,1.26-.64,1.14,1.14,0,0,1,.38.23c.21-.42.42-.62,1-.42,1-1,2.06,1.24.62,1.24a1.42,1.42,0,0,1-1.65.82.54.54,0,0,1-.45.62h-.16c0,.41-1.45.83-1.65.62-.41.41-1,0-1.24-.21-.2-.41-1,.21-.82.42.41.2.41.82.2.82a1.4,1.4,0,0,1-1.44.62c-.82-.21-1.23,1-2.06.41,0,.62-2.47,1.65-3.29,1.24a2.41,2.41,0,0,1-1.86,1,2,2,0,0,1-1.85.2,4.67,4.67,0,0,1-3.3,1,2,2,0,0,1-2.06.41,1.83,1.83,0,0,1-2.06.21,3,3,0,0,1-2.06.41,2.24,2.24,0,0,1-1.65,0c-.41.62-1.65.83-2.06.21a1.85,1.85,0,0,1-2.06.2,1.2,1.2,0,0,1-1.44,0c-.41.21-.62.21-.82,0a2.8,2.8,0,0,1-2.27,0c-.62.62-1.85.62-2.06-.2a4.74,4.74,0,0,1-2.88-.21c-.62.41-1.65-.2-2.06-.62a4.57,4.57,0,0,1-3.3-.82A4,4,0,0,1,900,723c-1.65.2-2.06-2.27-.21-1.86a1.31,1.31,0,0,1,1,1c.83,0,2.06.62,2.06,1.65,1-.62,1.65-.2,2.47.41v-.82c-2.06,0-1.23-1.85-.41-1.85-.62-1,.62-1.65,1.24-1.24,0-.41,1.44-1.24,1.85-.41.41,0,.62.2.62.41.21,0,1.24.21,1.44.82.83-1.23,4.12-.82,4.53-.41a1.11,1.11,0,0,1,.83-.41c.2-.21.41-.21.82-.21a1.75,1.75,0,0,1,1.24.83c.41-.62,1.85-.21,2.26.41-.2-.21.62-.62.83-.41.82-1.24,2.06.41,2.06,1.23a1.82,1.82,0,0,1,1-.2c0-.41.2-.62.62-.83a.87.87,0,0,1,.91-.82.86.86,0,0,1,.53.21c.41-.21.62-.21,1-.42-1,0-1.24-.41-1.24-1,4.74-.41,9.69-.61,14.22-1.85Z" transform="translate(-115.48 -394.02)"/><path class="cls-1" d="M1040.71,480.72c-.2-.62.62-1.65.83-1.85a1,1,0,0,1-1.38-.29.75.75,0,0,1-.07-.12c-.2.2-.61-.21-.61-.62-.83-.21-.62-1.24,0-1.86-.21,0-.42-.2-.62-.61a.46.46,0,0,1-.61.22.52.52,0,0,1-.22-.22c-.2.2-1.23-.21-1.23-1.24-.41,0-.62-.21-.62-.82-1.24-.42.41-2.48.82-1a1.38,1.38,0,0,1,1.45,1,1.53,1.53,0,0,1,.82.41c.41,0,1.24,1,1.24,1.23a.81.81,0,0,1,.3,1.11,1.13,1.13,0,0,1-.1.13c-.2.41.62,1,.83.62,0-.41.61-.62.61-.41a1.31,1.31,0,0,1,1,1c.21.82,1.45.82,1.24,1.85.62-.41,2.47,1.44,2.27,2.47.82.21,1.44.41,1.64,1.24a1.7,1.7,0,0,1,1,1.65,4.31,4.31,0,0,1,2.27,2.67c.62.21,1.44,1.24,1.24,1.65a1.82,1.82,0,0,1,.82,1.86,3.24,3.24,0,0,1,1.24,1.85,1.2,1.2,0,0,1,.61,1.44c.83,0,1.45,1.24,1.24,1.86a3.11,3.11,0,0,1,1,1.85c.41.21.41.82.41,1.24.41.2.41.41.21.82a2.83,2.83,0,0,1,1,2.06c.62.21,1.23,1.44.62,2.06a3.88,3.88,0,0,1,.82,2.68,1.59,1.59,0,0,1,.21,2.06,3.41,3.41,0,0,1,.61,3.3c.42.82,0,1.85-.41,2.88.83,1.65-1.23,2.88-1.44.82-.21-.41,0-.82.41-1.23a6.22,6.22,0,0,0,.21-5l-.83.21c.83,1.85-1.23,2.06-1.44,1.24-.62,1-1.85,0-1.65-.83-.41.41-1.85-.62-1.23-1.44,0-.41,0-.62.2-.82-.2-.21-.41-1.24.21-1.45-1.65-.41-2.47-3.5-2.06-4.12-.41,0-.62-.2-.82-.62-.21,0-.42-.41-.42-.61a1.24,1.24,0,0,1,.21-1.45,1.61,1.61,0,0,1-.44-2.22l0,0c-.21.2-.83-.41-.83-.62-1.44-.41-.41-2.06.42-2.47-.42-.21-.62-.41-.62-.62a1.6,1.6,0,0,1-1-.41c-.62.2-1.44-.41-1.24-1a2.78,2.78,0,0,0-.62-.83c.21.83,0,1.45-.61,1.45-2.06-4.12-4.12-8.66-7-12.16Z" transform="translate(-115.48 -394.02)"/><path class="cls-1" d="M833.67,417.07c-.61.2-1.44-.83-1.64-1a1.29,1.29,0,0,1-.62,1.44c.2,0-.21.62-.42.62-.41.61-1.44.41-2.06-.21,0,.21-.2.41-.61.62,0,0,.61.41,0,.82a1.35,1.35,0,0,1-1.45,1.24c.21.41-.2.62-.61.62-.62,1.23-2.48-.42-1.24-1,.21-.62.62-1.24,1.24-1.24a1,1,0,0,1,.41-.82c0-.42,1-1.24,1.23-1.24.42-.41,1.24-.41,1.24-.21.41.21,1-.41.62-.61-.41,0-.41-.62-.21-.83a1.11,1.11,0,0,1,1-1c.83,0,.83-1.23,1.86-1-.21-.62,1.65-2.47,2.68-2.26.2-.62.41-1.45,1.23-1.65a1.88,1.88,0,0,1,1.65-.83,4.24,4.24,0,0,1,2.88-2.06,1.94,1.94,0,0,1,1.65-1.23,2.58,2.58,0,0,1,1.86-.83,2.8,2.8,0,0,1,1.85-1,1.47,1.47,0,0,1,1.65-.62c0-.82,1.23-1.23,1.85-1,0-.41,1.24-1,1.86-1a2.18,2.18,0,0,1,1.23-.41c.21-.2.41-.2.83-.2a2.62,2.62,0,0,1,2.06-.83c.41-.62,1.64-1,2.06-.41a3,3,0,0,1,2.67-.82,2.23,2.23,0,0,1,2.27-.21,3.38,3.38,0,0,1,3.3-.21,3,3,0,0,1,2.88.42c1.65-.83,2.68,1.23.82,1.44a.93.93,0,0,1-1.23-.41c-.83.41-2.27.2-2.47-.83a1.94,1.94,0,0,1-2.48.41v.83c2.06-.62,2.06,1.23,1.24,1.44a.93.93,0,0,1-.82,1.65c.2.41-.83,1.85-1.65,1-.41.21-.41.21-.62-.21a1.29,1.29,0,0,1-1.65-.2c-.41,1.64-3.5,2.26-4.12,2.06,0,.2-.2.41-.62.61-.2.21-.41.42-.61.42a1.73,1.73,0,0,1-1.45-.21c-.2.62-1.64.83-2.26.21.2.2-.41.82-.83.82-.2,1.44-1.85.41-2.26-.62-.21.42-.41.62-.83.62,0,.41,0,.83-.41,1a.87.87,0,0,1-1,1.24c-.41.2-.62.2-.82.41.82,0,1.44.21,1.44.82-4.12,1.86-8.86,3.92-12.57,6.6Z" transform="translate(-115.48 -394.02)"/><path class="cls-1" d="M780.52,497.41c-.41.62-1.65.2-2.06.2.21.21.83.83.21,1.45.41,0,.2.82,0,.82.2.82-1,1.24-1.65.82a1.83,1.83,0,0,1-.21,1,.43.43,0,0,1,.46.39.45.45,0,0,1,0,.23,1.12,1.12,0,0,1-.38,1.54.88.88,0,0,1-.24.11c.2.41.2.83-.21,1,0,1.44-2.47.83-1.65-.2a2.12,2.12,0,0,1,.42-1.86c-.21-.2-.21-.41,0-.82-.42-.21.2-1.65.41-1.65,0-.62.82-1,1-.83.41,0,.41-1,0-1-.21.21-.62-.2-.62-.41-.21-.2,0-1,.41-1.44.62-.41,0-1.44.83-1.85-.42-.42.2-2.89,1.23-3.3a1.91,1.91,0,0,1,.21-2.06,1.85,1.85,0,0,1,1-1.65,4.32,4.32,0,0,1,1-3.29c-.21-.62.62-1.86,1-1.86a2.12,2.12,0,0,1,1-1.65,5,5,0,0,1,1-2.06c0-.61.62-1,1-1.23-.41-.62.21-1.65,1-1.86-.21-.2.41-1.64,1-1.85a1.7,1.7,0,0,1,1-1c-.21-.41,0-.62.41-.62a2.63,2.63,0,0,1,1.44-1.85,1.23,1.23,0,0,1,1-1.44,1.29,1.29,0,0,1,.48,0,3,3,0,0,1,1.85-2.06,1.81,1.81,0,0,1,1.85-1.24,3.26,3.26,0,0,1,2.48-2.06,3.66,3.66,0,0,1,2.67-1.24c1-1.44,3.09-.41,1.45,1a1.16,1.16,0,0,1-1.24.21,1.9,1.9,0,0,1-2.47.62,1.77,1.77,0,0,1-1.86,1.44l.42.62c1.44-1.44,2.47.2,1.85.82,1.24,0,.82,1.44.21,1.86.41.2.2,1.85-.83,1.64-.2.42-.41.42-.82.21a1,1,0,0,1-1.23.71l-.21-.09c.61,1.44-1.65,3.71-2.48,3.91a.63.63,0,0,1,0,.83,1.09,1.09,0,0,1-.41.82,1.26,1.26,0,0,1-1.44.41c.21.83-.82,1.65-1.65,1.65.21,0,0,.82-.2.82.41,1.45-1.45,1.65-2.27,1a1.11,1.11,0,0,1-.41.83c.2.41.41.62.2,1a.93.93,0,0,1,.16,1.31.91.91,0,0,1-.57.34c0,.2-.2.61-.2.82.61-.62,1.23-.62,1.64-.21-2.67,3.92-5.56,8-7.21,12.16Z" transform="translate(-115.48 -394.02)"/><path class="cls-2" d="M924.93,409.86a4.67,4.67,0,0,1-1.64-.42c-.21,1-2.48,1-3.09.21-1.65.41-2.06.41-2.68-1.24.2,2.27-3.5,1.65-4.33-1a.72.72,0,0,1-.41-.2,2.42,2.42,0,0,1-1,1.44c1.24.82.41,3.09-1,2.27-1.65.41-1.85-1-1.44-1.86-.41-.2-.41-.62-.83-.62a4.1,4.1,0,0,1-1.44,3.3,2.31,2.31,0,0,1-3.26-.18l0,0c-.62-.82-.42-1.44-.42-2.47a2.81,2.81,0,0,1-1.23-.41c-.41.62-4.12,2.27-5-2.47-1.23,1-.82.82-.41,2.88.41.83-.2,1.44-1,1.65a3.18,3.18,0,0,1-3.29-1.85.74.74,0,0,1-.62-.21,3.15,3.15,0,0,1-3.92,2.06c.42,2.06-1.44,6-3.91,3.91-1.85-1.64-.21-3.09-.82-4.73-1.65.2-2.89-.83-2.27-2.06-2.06.41-2.89-1.45-1.86-2.48-1.64-1.85-.41-4.53,2.89-3.29,2.88-.42,4.12,2.67,3.3,5.15,1-1.86,2.26-3.5,3.29-5.36.21-.41.62-1.24,0-1.65-.82-.82-1.85-2.06-1.44-3.29,0-.62,0-.62.82-.83,1.86-.2,3.92-.62,5.77.21,2.89-1.65,6-.62,9.07-1.24,2.47-.41,2.06,1.86,2.06,3.5,0,.42,0,.42.41.62,1.85.83,2.06-.82,2.06-2.26,0-2.27,1.23-2.68,2.88-2.27.62-1.44,5.77,0,6.8.62,3.09-1,6,.62,9.06.62,1.86,0,2.27,1.64,1.45,2.88a2.91,2.91,0,0,1,1,1.85c.41-1.85,1-3.7,5.15-3.7l3.5.41s1.85-.62,1,1.65c-.62,1.85,0,5.35,2.47,4.74-.2-.21,2.06-3.51,3.92-2.07a3.71,3.71,0,0,1,3.5.42c2.06.61,2.68.82,1.65,2.06,1.64,1.44,1.44,3.29,0,5.35,1.64,1.65.82,3.3-.42,3.92.21.62-.41,1.85-2.06,1.44-.41,1-2.67,1-2.06-.82a1.78,1.78,0,0,1,2.06-.83,2.36,2.36,0,0,1,.21-1.65,2.87,2.87,0,0,1-3.09.42c.21,2.47-3.09,2.88-3.71,1.44-1.65.62-2.88-.21-2.68-2.06a1.17,1.17,0,0,1-1.44-.81,1.12,1.12,0,0,1,0-.63,3.92,3.92,0,0,1-3.5-1.45c0,.62-2.47,1.24-2.88.21,0-.21-.21-.21-.42-.21,0,.62.21,1.24-.41,1.24.21,1-3.91,2.88-4.33.21Z" transform="translate(-115.48 -394.02)"/><path class="cls-1" d="M908.25,738.44a1.83,1.83,0,0,0-1.44.62c-.42-1.24-2.68-1-3.09-.21-1.86-.41-2.06-.62-2.89,1,.21-2.27-3.5-1.44-4.32,1l-.42.41a3.35,3.35,0,0,0-.82-1.44c1-.82.41-3.3-1-2.27-1.85-.41-1.85.83-1.44,1.86-.62.2-.62.62-1,.62a4.1,4.1,0,0,0-1.44-3.3,2.25,2.25,0,0,0-3.09,0,3.72,3.72,0,0,0-.62,2.47c-.41.21-.83.21-1.24.62-.2-.62-4.12-2.47-4.94,2.27-1.24-1-.83-.62-.41-2.68a1.1,1.1,0,0,0-.37-1.5,1.15,1.15,0,0,0-.63-.15,2.92,2.92,0,0,0-3.29,1.85h-.62a3.22,3.22,0,0,0-3.91-1.85c.41-2.27-1.24-6-3.92-3.91-1.65,1.44-.2,2.88-.82,4.53-1.65-.21-2.68,1-2.27,2.06-1.85-.41-2.88,1.44-1.85,2.47-1.65,1.85-.41,4.74,2.88,3.5,2.89.21,4.12-2.88,3.3-5.15a48.08,48.08,0,0,1,3.29,5.36c.21.41.62,1.24,0,1.44a4.57,4.57,0,0,0-1.44,3.5c0,.42.21.62.83.62,2.06.21,3.91.83,6,0,2.89,1.65,6,.41,8.86,1,2.68.62,2.06-1.85,2.06-3.5,0-.41,0-.41.41-.41,2.06-1,2.06.82,2.06,2.26.21,2.27,1.24,2.68,2.89,2.06.61,1.65,5.76.21,6.79-.61,3.3,1.23,6-.62,9.07-.42,1.85,0,2.26-1.64,1.65-3.09.82-.41.61-1,.82-1.64.41,1.64,1,3.7,5.15,3.5l3.5-.21s2.06.41,1.24-1.85c-.62-1.86-.21-5.15,2.26-4.54,0,.21,2.06,3.3,3.92,2.07,1,.41,2.06.2,3.71-.42,1.85-.61,2.47-.82,1.44-2.06,1.85-1.44,1.44-3.29,0-5.35,1.65-1.86.82-3.51-.21-3.92a1.55,1.55,0,0,0-1.57-1.53,2,2,0,0,0-.49.09c-.41-1-2.68-1-2.26.82a1.78,1.78,0,0,0,2.06.83,3.7,3.7,0,0,0,.2,1.44,3.26,3.26,0,0,0-3.09-.21c.41-2.67-3.09-3.09-3.71-1.44-1.64-.62-2.88.21-2.47,2.06-1.23-.2-1.85.41-1.65,1.44a4,4,0,0,0-3.5,1.45c.21-.83-2.26-1.24-2.68-.21-.2,0-.41,0-.41.21-.2-.62,0-1.24-.41-1.24,0-1.24-4.12-2.88-4.53-.41Z" transform="translate(-115.48 -394.02)"/><path class="cls-1" d="M900.63,744.62a.2.2,0,0,0,.2.2h0Z" transform="translate(-115.48 -394.02)"/><path class="cls-1" d="M776,650.47c-2.27-3.91-10.3-10.3-9.06-15.45-1.45-1.44-2.06-6-2.48-8.65a9.86,9.86,0,0,1,.42-6c1.23-2.06-.42-3.51,0-5.77l1.85-7.83-.41-4.33-.83-4.12c-.41-1.65.62-2.47-.61-3.91-1.24-1.65,2.67-4.33-.62-5.56-2.68-.62-.21-2.27-1.24-3.71-1.23-1.65,0-3.71-.62-5.36-.2-1-1.44-1.85-1.23-2.88.2-.83.41-.41,0-1.24-.83-2.26-1.65-4.32-1.24-6.59.21-.82.21-.62.62-1,1.65-1.85.82-5.15,3.71-6.18.62-.21.62-.21.62-.41.41-3.3,4.12-4.12,3.91,1,0,.2,0,0,.21.2,2.06,1.65,1.44,5.36.61,7.21-.82,1.45-1.23.83-.82,2.06.21.62.41.21,1,.62,1.65,1.24,1.44,3.09.82,4.74a7.34,7.34,0,0,1-.41,2.27,7.05,7.05,0,0,1,0,4.12,4.29,4.29,0,0,1,1.44,2.47c2.48,2.68,1.65,6.8,1.65,6.8a3.39,3.39,0,0,1,.56,4.76l-.15.18c1.24,2.06,2.68,8.65,3.3,11.33.82,3.3,2.68,7.21,3.91,10.3-.2.21,2.48,7.42,2.48,7.42,0,1.44-1,1.85-1.65,2.26-.83.42-1.24.21-1.65-1-.62-1-.41-2.88-1.85-5.35a3.19,3.19,0,0,1-1.24.41c-1,.41-.62.41-.41,1.24,3.5,12.15,10.51,22.86,15.86,34.19,1.44,2.68,2.27,2.06,3.92,4.12,11.53,14.22,7,12.36,24.51,23.49a24.12,24.12,0,0,1,2.47,1.65c1.24,1.23,2.06.82,3.71,1.44a56.36,56.36,0,0,1,9.48,6c13.39,9.69,16.07,10.1,29.66,15.45a30.17,30.17,0,0,0,2.89,1c.82.21.82.21.2.83a5.31,5.31,0,0,1-2.26,1.65c-1.45.61-2.68-.21-3.09-.21a3.15,3.15,0,0,1-3.71-.82,5.48,5.48,0,0,1-4.53-1.24c-.21-.21-1.24.41-3.51-.21a2,2,0,0,1,.62,2.48,4.52,4.52,0,0,1,4.12,1.23c0,.21,2.47-1.85,4.74,1,0,0,4.12-.2,6.59,2.68a3.56,3.56,0,0,1,2.27,1.65,6.26,6.26,0,0,1,3.91.41h2.47c1.65-.41,3.51-.41,4.54,1.44.2.62,0,.62.41,1,1.24.62.82.21,2.27-.41,2.06-.82,5.76-.82,7,1.44.21.21,0,.21.41.21,5,.41,3.71,4.12.41,4.12-.41,0-.41-.21-.61.41-1.24,2.88-4.54,1.44-6.6,2.88-.41.42-.2.42-1,.42-2.26.2-4.32-.83-6.38-2.06-.83-.42-.42,0-1.24,0-1.24,0-1.65-1.24-2.68-1.65-1.65-.83-3.91.2-5.35-1.24-1.24-1.23-3.3,1-3.51-1.85-.82-3.3-3.91.2-5.35-1.24-1.24-1.23-2.47-.2-3.92-1a53.24,53.24,0,0,0-7.41-4.32,1.72,1.72,0,0,0-1.44-.42,18.81,18.81,0,0,1-9.07-4.53c-1-.82-2.26-1-2.68-2.26-.2-1-.41-1.45.21-2.06,1.24-.83,2.27-.21,3.3.82.41.62.2-1,0-1.24a2.23,2.23,0,0,0-1.24-1.44c-.41-.2-1.24.41-2.27.62H832c-.62.21-.62.41-1.45-.21a19.47,19.47,0,0,1-.62-3.29c-.2-.83-.41-.62-1-1a42.13,42.13,0,0,1-5.35-3.71c-5-4.53-10.92-7.42-16.28-11.74-7.82-6.39-14.42-13-20-21.84A107.07,107.07,0,0,1,776,650.47Z" transform="translate(-115.48 -394.02)"/><path class="cls-1" d="M1072.85,497c2.06,4.12,9.89,10.92,8.24,15.86,1.24,1.65,1.65,6.18,2.06,8.86.21,1.85.21,4.12-.82,5.77-1.24,2.26.2,3.7-.42,6l-2.06,7.62v4.53l.62,3.92c.41,1.65-.62,2.68.41,4.12,1,1.65-2.88,4.12.21,5.56,2.68.62.21,2.27,1,3.71,1.24,1.65-.21,3.71.41,5.36.21,1,1.44,1.85,1,3.09-.2.82-.41.2,0,1.23a14.23,14.23,0,0,1,.83,6.59c-.21.83-.21.62-.62,1-1.86,1.65-1.24,5.15-4.12,6-.62,0-.62,0-.62.41-.62,3.09-4.33,3.71-3.91-1.24,0-.2,0-.2-.21-.41-1.86-1.65-1-5.15,0-7.21.82-1.23,1-.62.62-2.06,0-.41-.21-.2-.83-.62-1.44-1.23-1.23-3.09-.41-4.73a7.64,7.64,0,0,1,.41-2.27,7.06,7.06,0,0,1,.21-4.12,4,4,0,0,1-1.24-2.47c-2.47-2.89-1.23-7-1.44-7a3.29,3.29,0,0,1-.09-4.65l.09-.09c-1.24-2.06-2.27-8.85-2.68-11.53-.62-3.3-2.26-7.42-3.29-10.51.2-.2-2.06-7.62-2.06-7.62,0-1.44,1-1.65,1.85-2.06.82-.62,1.24-.21,1.65,1,.41,1,.2,2.88,1.44,5.36a3,3,0,0,0,1.24-.42c1-.2.61-.2.41-1-2.68-12.36-9.07-23.48-14-35-1-2.68-2.06-2.26-3.5-4.32-10.92-15-6.39-12.78-23.28-24.93a25.1,25.1,0,0,1-2.27-1.85c-1.23-1-2.06-.83-3.5-1.65a59.41,59.41,0,0,1-9.48-6.39c-12.56-10.3-15.24-10.92-28.42-17.1-1-.41-1.86-.82-2.89-1.23-.82-.21-.82,0-.2-.83a6,6,0,0,1,2.47-1.44c1.23-.62,2.47.41,2.88.41a3.26,3.26,0,0,1,3.71,1c2.27,0,3.71.41,4.33,1.44.41.21,1.44-.41,3.7.42-.82-1-1-1.65-.41-2.68a4.26,4.26,0,0,1-4.12-1.24c-.2-.2-2.68,1.65-4.74-1.23,0-.21-4.32,0-6.38-3.09a4.1,4.1,0,0,1-2.27-1.86,6.29,6.29,0,0,1-3.91-.62c-.83-.2-1.65,0-2.27-.2-1.85.41-3.71.2-4.53-1.65-.21-.62,0-.62-.41-1-1.24-.62-.83-.21-2.27.41-2.06.41-5.77.21-7-1.85,0-.21,0-.21-.21-.21-4.94-.82-3.5-4.32-.21-4.12.21,0,.21,0,.42-.41,1.64-2.88,4.73-1.44,6.79-2.68.62-.41.42-.41,1-.41,2.48,0,4.33,1.24,6.39,2.47.83.41.41.21,1.24.21,1,0,1.65,1.23,2.47,1.85,1.65.83,3.91-.2,5.36,1.44,1,1.24,3.29-.82,3.29,1.86.62,3.5,3.92.2,5.36,1.65,1.23,1.44,2.47.41,3.91,1.44a51,51,0,0,0,7,4.53,4.49,4.49,0,0,0,1.44.62c3.5.62,6.38,2.68,8.86,4.94,1,.83,2.26,1.24,2.47,2.47.41.83.41,1.24-.41,1.86-1,1-2.06.2-2.89-.83-.62-.61-.41,1-.41,1.24a2.16,2.16,0,0,0,1.24,1.44c.61.21,1.44-.41,2.47-.41H1020c.82,0,.82-.21,1.44.21a24.43,24.43,0,0,1,.62,3.5c0,.82.21.62.82,1a31.53,31.53,0,0,1,5.16,4.12c4.73,4.74,10.5,8,15.65,12.57a91.92,91.92,0,0,1,18.75,22.86c2.47,2.89,8.65,13.39,10.3,17.31Z" transform="translate(-115.48 -394.02)"/><path class="cls-1" d="M785.88,453.74c2.68-3.51,5.77-13.4,10.92-14,1-1.86,4.94-4.12,7.21-5.57a9.4,9.4,0,0,1,5.77-1.64c2.47.41,3.09-1.65,5.35-2.06l8-1.24,3.91-1.85,3.5-2.27c1.45-.82,2.68-.41,3.51-1.85,1-1.86,4.94.82,4.94-2.68-.41-2.68,2.06-1,2.88-2.47,1-1.86,3.51-1.24,5-2.48.82-.61,1-2.06,2.26-2.26.83-.21.42.2,1-.41,1.86-1.65,3.51-3.09,5.77-3.51.83-.2.62-.2,1.24.21,2.26.82,5.15-1.24,7,1.24.41.41.41.41.62.41,3.3-.83,5.36,2.26.62,3.91-.21.21-.21,0-.21.41-.82,2.27-4.53,3.3-6.59,3.09-1.65-.41-1.24-.82-2.27,0-.41.42,0,.62-.2,1.24-.62,1.85-2.27,2.47-4.12,2.27a7.21,7.21,0,0,1-2.27.61,7.37,7.37,0,0,1-3.71,1.45,5,5,0,0,1-1.85,2.26c-1.65,3.3-5.77,3.92-5.77,4.12-1.44,3.3-4.32,1.86-4.32,2.06-1.45,1.86-7.22,5.56-9.48,7.21a91,91,0,0,0-8.24,7.21c-.21,0-6,5-6,5-1.44.61-2.06-.21-2.67-.62-.83-.62-.62-1,.2-2.06.83-.83,2.47-1.44,4.53-3.5-.41-.42-.61-.62-1-1-.61-.83-.41-.42-1.23,0C800.09,452.5,792.47,463,784,472.07c-1.86,2.27-1.24,2.88-2.27,5.15-9.27,15.86-9.07,10.92-13.19,31.31a11.64,11.64,0,0,1-.82,2.89c-.41,1.65.21,2.26,0,3.91a50.68,50.68,0,0,1-2.06,11.13c-4.12,15.86-3.5,18.74-3.71,33.16a16,16,0,0,0,.21,3.09c0,.83,0,.83-.83.42a9.89,9.89,0,0,1-2.47-1.45c-.82-1-.62-2.67-.82-2.88a3.42,3.42,0,0,1-.41-3.91c-1-1.86-1-3.51-.42-4.54,0-.41-1-1-1.23-3.5-.62,1.24-1,1.65-2.27,1.44a4.16,4.16,0,0,1,.41,4.33c0,.21,2.68,1.85.83,4.74,0,.2,1.85,3.91,0,7.21a6.38,6.38,0,0,1-.62,2.68,8.27,8.27,0,0,1,.82,3.91c.21.82.62,1.44.83,2.27,1,1.44,1.65,3.09.41,4.73-.41.42-.62.21-.82.83,0,1.44,0,.62,1.23,1.85,1.44,1.65,2.68,5.15,1.24,7.21-.21.21-.21,0-.21.21,1.44,4.94-2.47,4.94-3.5,2.06-.21-.41-.21-.41-.62-.41-3.29-.21-3.09-3.71-5.15-5.15-.62-.21-.62,0-.82-.83-1-2.06-.83-4.32-.41-6.59,0-1,0-.41-.42-1.24-.41-1,.62-2.06.62-3.09.21-1.85-1.65-3.5-.82-5.56.82-1.44-2.06-2.68.41-3.71,2.88-2.06-1.44-3.7-.62-5.56.62-1.65-.82-2.47-.41-4.12.41-2.47,1.24-5.77,1.24-8.24v-1.65c-.83-3.5-.21-6.8.82-10.09.41-1.24.21-2.47,1.24-3.3.61-.62,1-.82,1.85-.41,1.24.62,1,1.85.41,3.09-.2.82,1,0,1.24-.21a2.82,2.82,0,0,0,1-1.64c0-.62-1-1.24-1.44-2.06s-.62-1.65-1-2.48c-.42-.61-.62-.41-.42-1.23a24.44,24.44,0,0,1,2.89-2.06c.62-.21.41-.41.62-1a57.87,57.87,0,0,1,1.44-6.39c2.47-6.38,3.09-13,5.15-19.57,3.29-9.48,7-18.13,13-26.37,1.85-3.71,8.65-13.59,11.74-16.68Z" transform="translate(-115.48 -394.02)"/><path class="cls-1" d="M1056.57,650.47c2.27-3.91,10.3-10.71,8.86-15.65,1.24-1.45,1.86-6,2.27-8.66a9.66,9.66,0,0,0-.62-6c-1.24-2.06.21-3.5-.21-5.77l-2.06-7.83L1065,602l.82-3.91c.42-1.65-.61-2.68.42-4.12,1.23-1.65-2.68-4.12.61-5.36,2.68-.62,0-2.47,1-3.71,1.24-1.65,0-3.71.42-5.56.41-1,1.64-1.65,1.23-2.88,0-.83-.41-.42,0-1.24.83-2.27,1.44-4.33,1-6.59-.2-.83,0-.62-.62-1-1.64-1.86-.82-5.15-3.91-6.18-.62,0-.41,0-.62-.41-.41-3.09-4.12-3.92-3.91,1.23,0,.21,0,0-.21.21-1.85,1.65-1.23,5.35-.2,7.21.82,1.44,1,.82.61,2.06-.2.62-.41.41-.82.62-1.65,1.44-1.44,3.09-.62,4.73a11,11,0,0,0,.41,2.48,6.37,6.37,0,0,0,0,3.91,4,4,0,0,0-1.23,2.47c-2.47,2.89-1.65,7-1.65,7-2.47,2.67-.21,4.74-.21,4.74-1.23,2-2.47,8.85-3.09,11.53-.82,3.3-2.47,7.21-3.5,10.3,0,.41-2.47,7.42-2.47,7.42,0,1.65,1.24,1.85,1.85,2.26.83.62,1.24.42,1.65-.82a28.21,28.21,0,0,1,1.65-5.56,2.89,2.89,0,0,0,1.24.41c1,.41.82.41.41,1.24-3.09,12.36-9.68,23.28-15,34.61-1,2.67-2.06,2.26-3.71,4.12-11.12,14.62-6.59,12.56-23.9,24.3a9.37,9.37,0,0,0-2.26,1.65c-1.24,1.24-2.27.83-3.71,1.65a47.09,47.09,0,0,0-9.48,6.18c-13,9.89-15.65,10.51-29,16.07-1,.41-1.86.82-2.89,1.24-.82.2-.82,0-.2.82a9.18,9.18,0,0,0,2.26,1.65c1.44.41,2.68-.41,3.09-.41a3.6,3.6,0,0,0,3.71-1c2.27.2,3.71-.42,4.53-1.45a4.89,4.89,0,0,0,3.51-.2,2.34,2.34,0,0,0-.62,2.68,4.52,4.52,0,0,0-4.12,1.23c0,.21-2.48-1.65-4.74,1,0,.21-4.12,0-6.39,2.89a4.63,4.63,0,0,0-2.26,1.64,8.32,8.32,0,0,0-3.92.83,9.29,9.29,0,0,0-2.47,0c-1.85-.41-3.5-.41-4.53,1.44-.21.62,0,.82-.41,1-1.24.62-.62.21-2.27-.41-2.06-.62-5.77-.41-7,1.65,0,.2,0,.2-.21.2-4.94.62-3.71,4.33-.41,4.12.41,0,.2,0,.62.41,1.44,2.89,4.53,1.45,6.59,2.89.62.41.41.41,1,.41,2.47,0,4.32-1,6.38-2.27.83-.41.42-.2,1.24-.2,1.24.2,1.65-1.24,2.68-1.65,1.65-.82,3.91.21,5.35-1.44,1-1.24,3.3,1,3.3-1.86.82-3.5,3.91.21,5.36-1.44,1.23-1.23,2.47-.2,3.91-1.23a67.46,67.46,0,0,1,7.21-4.33,2,2,0,0,1,1.44-.41,19.72,19.72,0,0,0,9-4.89c1-.82,2.26-1,2.68-2.26.2-.83.2-1.44-.42-1.86-1-1-2.06-.41-3.09.62-.61.83-.2-1-.2-1.23a3.84,3.84,0,0,1,1.23-1.45c.42-.2,1.24.62,2.27.62h2.68c.62.21.82.41,1.44-.2a17.45,17.45,0,0,0,.62-3.51c0-.61.2-.61.82-.82a51.36,51.36,0,0,0,5.36-3.91c4.94-4.54,10.71-7.83,15.86-12.37,7.62-6.59,14.22-13.18,19.57-22,2.68-3.09,9.07-13.18,10.71-17.1Z" transform="translate(-115.48 -394.02)"/><path class="cls-3" d="M1044.42,566c0,76.84-58.09,139.26-129.79,139.26-71.48,0-129.57-62.42-129.57-139.26s58.09-139.26,129.57-139.26C986.33,426.74,1044.42,489.16,1044.42,566Zm-70,31.52-1-1.86-1-1.85-1-1.85-.83-1.65-1-1.86-1-1.85-1-1.85-1-1.86-.2-.41h-1.86l-.2-.21-.21-.2h-1.44l-2.27,1.23-.41.21h-1.44l-.62-.21-.21-.2-.41-.62-.2-.21h-.21l-.82.62V571l.2-.2h.21v-.21h0l.2.21v-.21h0l.21-.2h0v-.21l.21-.21-.21-.2v-.21l-.41-.2v-.21l-.21-.21v-.41h.41v-.41h0l.21-.21h0v-.2h.21v-.41h0V567h-.42l-.2.21H956v.2l-.41.41-.21.21-.61.41h-.21l-.41.41-.21.21-.41.21-.21.2-.2.41-.21.21-.2.21h0l-.21.2v.21h-.21l-.2.2-.62.21-.62.21-.2.2v.21l-.21.2v.21l-.41.21-.41.2-.21.21h-.21v-.21h-.41v.21h-8l.2-.21v-.2h0V572l.21-.2v-.21h0l-.21-.2v-.21l-.2-.21-.62-.61-.21-.21.21-.41v-.41l-.41-.42h0v-.61h0v-.21h-.62l-.21-.41H937.5l-.2-.21-.42-.2h-.82V567l-1.24-.21h-3.91l.21-.2.61-.62.21-.41.21-.21v-.2h.2l.21-.21h.2v-.41l.42-.41h.2v-1.45h0l-.41-.41v-.2l-.41-.21-.21-.21-.62-1-.2-.41-.21-.2-.2-.21v-.21h-.62l-.21-.2-.2-.21-.42-.41v-1.24l-.2-.2h-.41v-.21l-.21-.2h-.21l-.62-.42-.2-.2v-.62l-.21-.21-.2-.41-.21-.2v-1l-.41-.42v-.2l-.21-.41-.41-.21-.41-.21-.21-.2h0l-.2-.62v-.21l.2.21h.21l.41-.21.21-.41-.21-.41-.21-.21h-.41l-.41-.2-.21-.21-1.23-1.44-.41-.21v-.2l.41-.21.2-.21v-.2h0v-.41l-.2-.62-.21-.21h.21l.41.21h.41l.41-.21.21-.2H926l.21-.21v-.21l-.21-.2V545l-.61-1-.21-.21.21-.21v-.2l.2-1,.21-.62h0v-.21l.41-.2.21-.21v-.2l.2-.21h.21l.62-.41.61-.62.83-.41.21-.41.41-.21h.82l.41-.21.42-.2.2-.21.21-.41.2-.41v-.62l-.2-.62v-.2l-.21-.83h0l-.41-.62-.21-.2v-.62l.21-.21.21-.41.61-1.23.21-.42,1-1.23.21-.41.2-.21v-2.27l.21-.61h.2v-.62l.21-.21h0v-1l-.21-.2v-.21h0l.2-.28h.41v-.2H935l.21-.21h.2v-.2h1l.21-.21h0V523h0l.41-.2.21-.21.2-.2h.41v-.21h.21V522h.21l.2-.2.21-.21h0l.2-.62v-.2h.42v-.21h.82l.21-.2.61-.42.42-.2.2-.21h.21l.2-.41v-.21h0l.21.21h.21v-.21h.2l.21-.2.41-.41.41-.21h0l.83-.21h.2v-.2h.21l.2.2h.42v-.2l.2.2H946V518h0l.2-.21.21-.2h0v.2l.41-.2H947l.2.2h0l.21-.2v-.21h.21l.2-.2h.83v.2H949v-.2h.41V517h0v-.21h.21l.2-.2.21.2.2.21.21-.21v-.2h.21l.2.2h0l.21.21v-.21l.2-.2h.21l.62.2.2-.2v-.21l.21.21.21.2v-.2l.2-.21v-.2l.41-.21v-.21l.21-.2v-.21h.21l.2-.2-.2-.21v-.21h.2l.41-.2h1v-.21l.21-.2h.21v.2h0v.21l.41.41.2-.21v-.41h.42v.41h.2l.41-.41H958l.21.21h.2l.21-.21h0l.21.21h0v.82l.2.21.41.41h.21l.21.21v.2l.2-.2.21-.42.2-.2h.5l.2.2V516h0l.21.21h0l.2.2h.21L962,516l.2-.21.21-.2v-.21l-.41-.62-.21-.2-.21-.21-.2-.41-1-.41-.21-.21v-.41l-.2-.41v-.21l-.21-.41-.41-.41-.41-.21-.21-.2h-.41l-.21.2-.41.41h-1v-.2l-1.24-.62h-.61l.41-.62L956,509l.62-1.24.82-1.24.83-1,.62-1.23.82-1.24.82-1.24.62-1.23.41-.41h-.2l-.21-.21v-.21l-.2-.41h0l-.21.21h0l-.21.2h-.2v-.2h0v-.21h-.62l-.21-.2v-.42l-.2-.2h-.41l-.21.2h-.21l-.2-.2h0v-.21h.2l.21-.2-.21-.21h-.41l-.2.21h-.42v-.21h0v-.21h-.2l-.21-.2h-.2l-.21-.21h-.21V497l-.2.2h0v.21h0l-.21.2h-.2l-.21-.2h0v-.21h0V497l-.41-.21h0v-.41H955l-.2-.21h-.42L954,496l-.41-.62-.21-.21h-.61l-.42-.2h-.2v.82h-.21l-.41-.21h-.41l-.21.21-.2.41h-.21l-.21.21h-.61l-.21.2-.21-.2-.61.41h-.42v-.21h0l.21-.2h0v-.21l-.21-.2-.2-.42h-.21v.21l-.2.21v.2h-.21v-.62l-.21-.2h0l-.61-.21-.21-.2h-.21l-.2-.21h-.21l-.2.21h-.21l-.21-.21v-.41h0l-.2.2-.62.21V495h0l-.41.61-.41.21-.21.21v.2h0l-.21.21-.61-.21H942l-.2.21-.21.2-.41.42-.21.2-.61-.2H940v.41h-.61l-.21.2-.21-.2h-.2l-.21-.21h0V497h-1l-.2-.21-.42-.21-.2-.2h-.21l-.2.2-.21.42v.2h-.21l-.2-.2v-.21h-.21V497h0l-.41-.21h0l-.41.21h-.21l-.2.2h-.62V497l-.21-.42-.2-.2h0l-.62-.41v.2l-.21.21h-.2v-.21h0l-.42-.2h-.2v-.42h-.21v-.2h0l-.2-.21h0v-.2h0l.2-.21.21-.21.2-.2.21-.62h0l-.21-.21v-.41l-.2-.2-.21-.21v-.41l.21-.21h0v-.2l-.21-.21-.2-.21.2-.41h-.2v-.2H931l-.21-.42h-.2v.42h0l-.41-.21v.21h-.21l-.21.2h0l-.2-.2-.21-.21h-.41v-.21h0L928,490v-.82l.21-.21.21-.2v-.21l-.21-.41h0v-.21h0v-.2H928l-.2-.21-.21-.21-.2-.2.2-.21h0l-.2-.2h0v-.42h0l-.21-.2h0v.2l-.21-.2h0v-.41h-.41v-.21h-.41l-.21-.21-.2-.2h-.21v.2l-.2.21h-.21v-.21h-.41v-.2h-.21l-.2-.21v-.41l-.21-.21h-.62l.21-.2v-.21h-.21V484h-.41v-.21l-.21-.62-.2-.2-.21.41h-.2l-.62-.21L921,483l-.21-.21-.2-.2-.21-.42V482l-.2-.21H920l.21-.2h.41v-.21h-.21V481H920l-.21-.41v-.42h0v-.2l-.41-1h0v-.21h-.2v-.2H919v-.21h-.21l-.61-.41-.21-.21-.41-.41-.21-.62h-.2l-.21.21h-.21v-.21h-.2v-.2h-.62v-.21l.21-.21-.21-.61-.21-.21-.2-.21h-.21l-.2.42h-.62l-.21-.21H914l-.42-.41v-.21h-.41l-.41-.62-.21-.2h-.2l-.41-.21h-.42V474h0l-.2.21-.21.21h-.2v.2h-.21l-.21.21h-.61l-.21.2-.41-.2-.62-.21v-.2h-.21l-.2.2-.21-.2h-.41V475h.62v.21l.2.21h.42l.2.2v.21l.41,1v.41l.42.41.2.21h.41v.2l.42.21h0v.21h.2l.21.2v.62h0v.21h0l-.21.2h-.2v.21h0v.41h0v.41l.41,1.44h0v.42h0l.2.2h-.61l-.42.21h-.2v-.21h0l-.21-.2-.2-.21h-.21v.41l-.41,1.24-.21,1.23-.2,1.24-.42,1v.62l-.2.41-.21.21-.62.41-.41.62-.41.41-.41.62-.62.61-.41.62-.41.62-.62.41-.41.62-.42.62-.61.41-.62.41-.62.62-.62.41-.41.41-.62.42-.62.41-.61.62-.42.41-.61.2-.83.42-1.23.41-1.24.41-1.24.41-1.23.41-1.24.62-1.23.41-1.24.42-1.24.41-.61.21-.21.2-.62.62-1,1.24-.41.41-.21.2-.2.62-.21.21-.2.2h-.21v.42h.21v.2l.2.21v.41h-.41l-.21.21h-.2v-.83h-.21v-.2h-.82l-.21.2h0l.21.21h0l-.21.62v.41l-.2.41-.21.21v.41l.21.2v.21h-.42V510l.21.61v.21l-.41.21h0v.2h-.21v.21l-.2.2v.83h-.21v.2h-.41v.83l-.21.41-.62,1.24v.61l-.2.21-.21.21v.41l.21.41h0l.2.21v.41l-.2.2v.62h-.21l-.21.41-1,.21-.41.41-.41.41-.21.21v.62l.21.41v.41h-.82v.21l-.21.41v.21l-.21.41-.41.2v-.2h-.2v-.21h-.21l-.21.21h0l-.2-.21H872.2v-.2l-.21-.21-.21-.21v-.2h-.2l-.21-.21v-.2h0l-.2-.21H871l-.21-.21v-.41l-.2-.41-.21-.62-.2-.41v-.21l.2-.41v-.2h0l-.2-.21h-.42l-.2-.21-.41-.41-.21-.2-.41.2-.41.21-.62.2-.41-.2-.21-.21-.21-.2-.2-.42h-.83l-.2-.2-.21-.21-.2-.2-.21-.21h-.41l-.21-.21h-.41l-.21.21h0l-.2.21v.2l-.21.21v.2l-.82.62-.41.21h-.42l-.41-.21-.2-.2v-.42l1.23-1.64v-.21h-.41l-.41.21-.21-.21-.2-.41h0v-.21h0v-.2l-.21-.21v-.62l.21-.2v-.21h.2l.21-.21h.41l.21.21.41.21h0l.2-.21.21-.21.21-.2.2-.21.62-.2.21-.21v-.21h-.21v-.2h0v-.21h0l-.21-.2-.2-.42v-.2h0v-.21h0v-.41h0v-.41h.2v-.21l-.2-.2h0v-.21h-.21v-.62h0v-.2H863v-.62h0v-.21h-.42l-.2-.2h0v.2l-.21.21v.2h-.2v.21h-.21l-.21.21h-1l-.2.2-.41.62-.21.41-1.44.83-.41.41-.21.2-.21.42-.2.2v.41l-.21.21-.41.21-.21.2-.41.41-.41.83-.21.2-.2.21H855l-.2.21-.21.41-.21.2-.82.62h-.21v.21l-.2.41h0l.2.62v.2l-.2.42h0l-.21.2h0l-.2.21.2.2V519h-.2v.41h-.21v.21h0l.21.2.2.21.21.21.82.82v.41l.21.21.41.41.21.21.41.41v.41l-.41.21-.42.2h0v.21l-.2.2v.21h0v.21h0l-.21.2h0l.21.21.2.41.21.21.21.2.61.41v.21l.83.82.2.42.62,1,.21.82v.82l-.41.83-.21.41h-.82l-.42-.41-.2-.21H855l-.2.41h-.21l-.21.42-.2.41v.41l.2.41.21.41.21.42.2.2.41.21.42.2h.2l.21.21.2.21h.21l.41.41.41.2.21.21.21.21h0l.61.41,1,.41,1.65.82,1.65,1,1.44.62.21.21,1,1h.2l.21.2v.21h0v.21l.21.41.2.2.41.62.62.41.21.21v.21l.62.82.2.21v.41l.21.2v.21l.41.41.21.21.2.41.21.62v.41h0v.21h0v.41h.2l1,1.44v.41l.21.21h-.21v.2h0v.21h0l.21.21.82,1.44.42.62,1.23.82.21.21.2.41H874l1,1,.21.21v.41l.2.2.41.83V557h-.2l.2.41h.21l.21.2h.2l.41.42.21.41.21.41.2.41v.41l-.2.42v.41l.61.62v.41l.21.2h.21v.83h-.21v.2h.41v.62l.21.21h.2l.21.2h0l.21.21-.21.21h0v.2h-.41v.21h.2v.2l.21.21h0l.21-.21v-.2h0l.2-.21.21.21h0V565h0v.21h-.21v.2h.21v.41h0l.41.21h.21l.2.21v.41h0v.2l.21.21.21.21-.21.2v.21l.21.2v.62l.2.62.21.41.82,1,.21.21v.2l-.21.21v.41l.21.21v.41h0v.21h.2v.2h0v.21l.21.2.21.42v.41h-.21v.2h.21v.21h0l.41.41v.21l.2.41h.21l.21.21v.61l.41.21v.21l.2.2v.21h0l.21.41h0v.21l.21.2.2.21.83,1.44v.21l.2.2h.21v.41h.2l.21.21v.41l.41.41v.21h0l.41.41v.41l.21.21v.21h0l-.21.2v.21H888v.2h.21l-.21.21.21.21v.41l.2.2v.21l.21.41h-.21v.21H888v.62l.21.2.41.21,1.44.82.21.21.41.2h.2l.21.21v.21h.21l.2.2v.21l.21.2h0v.21h0l.2.41h.21l.21.21v.2l.2.21v.21l.21.41v.2h-.21v.62l.21.21v.41h.2v.62l.21.62-.21.2v.21l-.2.2v.21h.82l.41.41v.41h0v.42h0l.21.2h.21l.61.21.62.62.41.41.21.41.21.41v.21l-.21.41v.21h.21l.2.2h.21l.2.62.42.21h0v.61l.41.83.2.21.83.61v.21h0v.62l.2.82.21.21v.41l.21.21,1,1,.41.82.2.21h.21l.41.61.41.83v2.06l-.2.41v.21l-.21.41v.41l-.2.41v.41h-.42v-.2h0v-.21h0v-.2h-.41v.2h-.2l-.21.21v.82H901l.2-.2h0v.2h0v.21h0l.21.62h0v.41h0v.2h0V614h0l-.21.21h0V615l.21.21.21-.21-.21-.21.62.21h0l.2.21h0v.2h.21l.21.21.2.2v.62h0l-.2.21.2.41h.41l.21.21.21.2v.21l.41.2.2.21v.21l-.2.2h0v.21h.2l.21.2v.21l.21.21V620l.2.21.41.21h.21v.2h0l.21.21h.2v.2h.21v.21h.2l.62.41.21.21h0l.41.2.82.42.42.2v.62h.2l.21.21.2.2v.21l.42.62.2.2V625l.21.2h.62l.61.62h0V626h0v.2h-.41l.41.21.42.21.2.2V627l-.2.2h-.21l.21.21h.2v.21h.41l.21.2h0l.41.41h.41l.42.21,1.64,1,.62.21.21.2.41.21,1.65.82h.2v.21l.21.2h0l.21.21v.21h0l.61.41H920l.21.2h.61l.21.21h.21v.21h.61l1,.61h0l.21.21h0V634h.21l.82.62.62.62.2.2.83.21.2.21h0l.21.2h0v.21l.62-.21.62.21,1,.41.62.21.41.2.41.21H930v.41l.2.21h.21l.2.2h.62l.41.21.42.2.2.21,1.86.82,1,.83.2.2H937l.41.42H938l.21.2h.2v.21h.21v.2h.41l.62.83v.41h.2l.21.21.41.2h.21v.21l.2.2.42.21h0l.2.21-.2.2h.2v.21h.83l.2.2.62.21.21.21.41.61.2.21.42.21,1.64.41h0l.21.2.21.21h.2l.41.21h.42v.41h.2l.21.21.2.41h.21v.2l.21.21v.62l.2,1v.82l-.2.21h0v.2h0l.41-.2.2.2h.21l.41.21.41.21.21.2.21.41h.2l.21.21.41.41h.21l.61.21.21.2.41.21V654h.21l.2.2v.41l.21.21h.21l.2.21.62.41v.2h.21v.21h.2l.62.62.21.2.41.21h.41l.62.62.62.62h.2l.41-.21h.42l1,.21.41-.21h.41l.62-.41h.41l.21-.21h.2l.41-.62.42-.41.2-.2.21-.21.62-1.44v-.62l-.21-.41-.21-.21v-.62l-.2-.41v-.82l.2-.21H965l.41-.41,1.23-1.24h0v-1l-.2-.41v-.2l-.21-.21-.41-.21-.21-.2H965l.2-.21.21-.62.2-.2h.21l.41-.62.41-.21H967l.21-.2h.41l.2-.21v-.21h0l-.2-.2h0l.2-.21.42-.2v-.21l.2-.41,1-1.24.21-.2.2-.42v-.2l.21-.21h.41l.62-.2.21-.21.2-.21v-.2l-.2-.41v-1.45l.41-.2.2-.21,1-.41.21-.41v-.41h-.21l-.61-.21-.21-.62h-1l-.21.21h-.61l-.21-.21-.21-.2-.41-.42-.2-.61-.42-1-.41-1-.41-1-.41-1v-1l.62-1v-.42l.2-.2h0l.21-.21h.2v-.62l.21-.2.21-.21.2-.2.21-.21.2-.21.21.21.21-.21V626l-.21-.21-.41-.41v-.21l-.62-.41-.21-.2-.61-.83v-.2l-.21-.21h-.21l.21-.21v-1.44h0l.21-.2.2-.21.41-.21H969l.21-.2v-1.44l.2-.21H970v-.82h.21l.41-.42.2-.2.62-.41h.21v-.21l-.21-.21v-1l.21-.2h.41l.62-.21.2-.2v-.42l-.2-.61-.21-.42h0v-.2l-.62-.41-.2-.21v-1l-.21-.21v-.61h0v-.42h-.2l-.42-.41-.2-.41.2-.21h.62v-.41h0v-.2l.21-.21v-.21l.2-.2v-4.74l-.2-1.24v-.41l.2-.2.21-.21.21-.41V601l.2.21.21-.41v-.21l.2-.21.83-.2h.2l.21-.42-.21-.2h-.2l-.21-.21h0l.21-.2V599l.41-.21h.21v-.41l.2-.2h0Z" transform="translate(-115.48 -394.02)"/><path class="cls-3" d="M1012.08,457a193,193,0,0,1,14.21,17.31c-20.81-19.37-26.78-31.11-56.45-44.3a142.15,142.15,0,0,0-31.1-9.47c-26-3.09-52.12-.83-76.43,8.86a125.16,125.16,0,0,0-39.14,22.24,143.23,143.23,0,0,0-16.69,16.9,162.15,162.15,0,0,0-11.33,15.24,136.43,136.43,0,0,0-10.09,18.75,63.66,63.66,0,0,0-3.71,9.89c-1.65,6.59-3.09,14.83-4.54,21.63a137.22,137.22,0,0,0-.61,43c5.76,34.41,6.59,38.32,23.07,68.6a125.72,125.72,0,0,0,15.86,23.08s.21.62-.2.2a17.3,17.3,0,0,1-1.86-2.06A18.41,18.41,0,0,1,811,665.1a6.85,6.85,0,0,0,1.44,4.33,37.55,37.55,0,0,0,2.68,3.09c1.65,2.06,3.92,3.7,5.56,5.56,1.65,1.65,4.12,3.29,5.36,4.53a6,6,0,0,0,3.09,1,77.2,77.2,0,0,1-6-6,9,9,0,0,0-1.45-1.24l-1.23-1.24a41.75,41.75,0,0,0-3.09-3.29c-.83-1.24,7.62,6.18,9.68,8.24,3.91,3.29,7.83,6.8,12,9.68,13,9.27,15.66,9.89,28.84,15,10.92,3.91,27.19,6.59,38.52,7.21,19.16,1,39.35-.62,57.48-6.8,16.69-6,24.93-9.06,41.2-23.9,7.83-7,13.39-15.65,19.78-24.3,6.18-8.86,13.18-18.34,17.51-28.23,4.94-12,9.89-32.14,11.12-45.53,1.24-14.83,2.06-39.34-.41-53.15-4.53-26.57-19.77-56-41-73.13ZM863.54,697c-33.37-18.13-55.62-37.9-70.86-74.37-6.18-14.62-13.19-41.41-11.75-56.86.62-7.21,1.45-29,3.51-36,6.18-21.63,6.18-25.95,20.6-45.94,8.86-10.92,18.74-18.74,28.43-30.07,6.8-6.19,14-9.89,22.25-13.81,13.8-6.18,10.09-3.29,22.45-6.8a151.55,151.55,0,0,1,33.37-5.56c9.27-.41,11.13-2.26,21.64-.82,35.63,6.18,37.49,9.89,67.36,29.87,24.31,17.51,39.14,50.88,47.38,78.49,8.45,30.69,0,61.8-12.36,90-4.74,10.72-2.68,11.13,1.44,1.65,1.65-3.71,7.42-15,7.42-14.83.41-.21,2.27-1.85,0,3.91-1.85,4.33-7.62,16.07-9.06,19-22.46,44.91-61.19,72.31-114.13,73.95-14.22.62-31.93.62-46.56-4.12a64.74,64.74,0,0,1-9.48-3.91c-1.44-.82-1-1,0-.82,1.86.61,3.5,1.23,5.36,1.85,5.77,2.88,12,3.5,6.8,1.44" transform="translate(-115.48 -394.02)"/></svg>