<svg id="Layer_1" data-name="Layer 1" xmlns="http://www.w3.org/2000/svg" viewBox="0 0 49.48 49.71"><defs><style>.cls-1{fill:#303030;fill-rule:evenodd;}</style></defs><path class="cls-1" d="M46.38,10.71A24.64,24.64,0,0,0,7.61,40.44L4.11,53.2l13.06-3.42a24.63,24.63,0,0,0,11.77,3h0A24.65,24.65,0,0,0,46.38,10.71ZM29,48.62h0a20.52,20.52,0,0,1-10.43-2.86l-.74-.44-7.75,2L12.1,39.8,11.61,39A20.47,20.47,0,1,1,29,48.62Z" transform="translate(-4.11 -3.49)"/><path class="cls-1" d="M40.19,33.28c-.62-.31-3.65-1.8-4.21-2s-1-.31-1.39.31S33,33.59,32.65,34s-.72.46-1.34.15a16.54,16.54,0,0,1-4.95-3,18.38,18.38,0,0,1-3.42-4.27c-.36-.61,0-.94.27-1.25s.61-.72.92-1.08a4.34,4.34,0,0,0,.62-1,1.13,1.13,0,0,0-.06-1.08c-.15-.3-1.38-3.33-1.89-4.57s-1-1-1.39-1.05-.77,0-1.18,0a2.24,2.24,0,0,0-1.64.77,6.89,6.89,0,0,0-2.15,5.13c0,3,2.2,6,2.51,6.37s4.34,6.63,10.51,9.29A33.71,33.71,0,0,0,33,39.61a8.41,8.41,0,0,0,3.88.24c1.18-.17,3.64-1.49,4.16-2.92A5.09,5.09,0,0,0,41.36,34C41.21,33.74,40.8,33.59,40.19,33.28Z" transform="translate(-4.11 -3.49)"/></svg>